<?xml version="1.0" encoding="utf-8"?>
<!-- Generator: Adobe Illustrator 18.0.0, SVG Export Plug-In . SVG Version: 6.00 Build 0)  -->
<!DOCTYPE svg PUBLIC "-//W3C//DTD SVG 1.1//EN" "http://www.w3.org/Graphics/SVG/1.1/DTD/svg11.dtd">
<svg version="1.1" id="Layer_1" xmlns="http://www.w3.org/2000/svg" xmlns:xlink="http://www.w3.org/1999/xlink" x="0px" y="0px"
	 width="100px" height="63px" viewBox="0 0 100 63" enable-background="new 0 0 100 63" xml:space="preserve">
<g>
	<g>
		<path fill="#FFFFFF" d="M-269-17c0,1.1-0.9,2-2,2h-22c-1.1,0-2-0.9-2-2v-17c0-1.1,0.9-2,2-2h5c1.1,0,2.225,0.45,2.5,1s1.4,1,2.5,1
			h12c1.1,0,2,0.9,2,2V-17z"/>
		<g>
			<path fill="#CCCCCC" d="M-288-35c0.805,0,1.495,0.315,1.606,0.447C-285.884-33.533-284.3-33-283-33h12c0.551,0,1,0.449,1,1v15
				c0,0.551-0.449,1-1,1h-22c-0.551,0-1-0.449-1-1v-17c0-0.551,0.449-1,1-1H-288 M-288-36h-5c-1.1,0-2,0.9-2,2v17c0,1.1,0.9,2,2,2
				h22c1.1,0,2-0.9,2-2v-15c0-1.1-0.9-2-2-2h-12c-1.1,0-2.225-0.45-2.5-1S-286.9-36-288-36L-288-36z"/>
		</g>
	</g>
	<g>
		<path fill="#E5E5E5" d="M-270-29.485c0,0.267-0.218,0.485-0.485,0.485h-23.03c-0.267,0-0.485-0.218-0.485-0.485v-0.03
			c0-0.267,0.218-0.485,0.485-0.485h23.03c0.267,0,0.485,0.218,0.485,0.485V-29.485z"/>
	</g>
</g>
<g>
	<g>
		<path fill="#FFFFFF" d="M-269,33c0,1.1-0.9,2-2,2h-22c-1.1,0-2-0.9-2-2V16c0-1.1,0.9-2,2-2h5c1.1,0,2.225,0.45,2.5,1s1.4,1,2.5,1
			h12c1.1,0,2,0.9,2,2V33z"/>
		<g>
			<path fill="#CCCCCC" d="M-288,15c0.805,0,1.495,0.315,1.606,0.447C-285.884,16.467-284.3,17-283,17h12c0.551,0,1,0.449,1,1v15
				c0,0.551-0.449,1-1,1h-22c-0.551,0-1-0.449-1-1V16c0-0.551,0.449-1,1-1H-288 M-288,14h-5c-1.1,0-2,0.9-2,2v17c0,1.1,0.9,2,2,2h22
				c1.1,0,2-0.9,2-2V18c0-1.1-0.9-2-2-2h-12c-1.1,0-2.225-0.45-2.5-1S-286.9,14-288,14L-288,14z"/>
		</g>
	</g>
	<g>
		<path fill="#E5E5E5" d="M-270,20.515c0,0.267-0.218,0.485-0.485,0.485h-23.03c-0.267,0-0.485-0.218-0.485-0.485v-0.03
			c0-0.267,0.218-0.485,0.485-0.485h23.03c0.267,0,0.485,0.218,0.485,0.485V20.515z"/>
	</g>
</g>
<g>
	<g>
		<path fill="#FFFFFF" d="M-269,83c0,1.1-0.9,2-2,2h-22c-1.1,0-2-0.9-2-2V66c0-1.1,0.9-2,2-2h5c1.1,0,2.225,0.45,2.5,1s1.4,1,2.5,1
			h12c1.1,0,2,0.9,2,2V83z"/>
		<g>
			<path fill="#CCCCCC" d="M-288,65c0.805,0,1.495,0.315,1.606,0.447C-285.884,66.467-284.3,67-283,67h12c0.551,0,1,0.449,1,1v15
				c0,0.551-0.449,1-1,1h-22c-0.551,0-1-0.449-1-1V66c0-0.551,0.449-1,1-1H-288 M-288,64h-5c-1.1,0-2,0.9-2,2v17c0,1.1,0.9,2,2,2h22
				c1.1,0,2-0.9,2-2V68c0-1.1-0.9-2-2-2h-12c-1.1,0-2.225-0.45-2.5-1S-286.9,64-288,64L-288,64z"/>
		</g>
	</g>
	<g>
		<path fill="#E5E5E5" d="M-270,70.515c0,0.267-0.218,0.485-0.485,0.485h-23.03c-0.267,0-0.485-0.218-0.485-0.485v-0.03
			c0-0.267,0.218-0.485,0.485-0.485h23.03c0.267,0,0.485,0.218,0.485,0.485V70.515z"/>
	</g>
</g>
<defs>
	<filter id="Adobe_OpacityMaskFilter" filterUnits="userSpaceOnUse" x="-286" y="71" width="13" height="10">
		<feColorMatrix  type="matrix" values="1 0 0 0 0  0 1 0 0 0  0 0 1 0 0  0 0 0 1 0"/>
	</filter>
</defs>
<mask maskUnits="userSpaceOnUse" x="-286" y="71" width="13" height="10" id="SVGID_1_">
	<g filter="url(#Adobe_OpacityMaskFilter)">
		<g>
			<path fill="#FFFFFF" d="M-280.5,74c0.786,0,1.425,0.639,1.425,1.425c0,0.786-0.639,1.425-1.425,1.425s-1.425-0.639-1.425-1.425
				C-281.925,74.639-281.286,74-280.5,74 M-280.5,73c-1.34,0-2.425,1.085-2.425,2.425c0,1.34,1.085,2.425,2.425,2.425
				s2.425-1.085,2.425-2.425C-278.075,74.085-279.16,73-280.5,73L-280.5,73z"/>
		</g>
		<g>
			<rect x="-280" y="76" fill="#FFFFFF" width="7" height="5"/>
		</g>
		<rect x="-289" y="76" width="9" height="6"/>
	</g>
</mask>
<rect x="-286" y="71" opacity="0.15" mask="url(#SVGID_1_)" width="13" height="10"/>
<g>
	<path fill="#FFFFFF" d="M-164,7c0,1.65-1.35,3-3,3h-49c-1.65,0-3-1.35-3-3v-40c0-1.65,1.35-3,3-3h13.038
		c1.65,0,3.449,1.273,3.998,2.829l0.121,0.342c0.549,1.556,2.348,2.829,3.998,2.829H-167c1.65,0,3,1.35,3,3V7z"/>
	<g>
		<path fill="#CCCCCC" d="M-202.962-35c1.221,0,2.649,1.01,3.055,2.162l0.121,0.342c0.692,1.961,2.862,3.496,4.941,3.496H-167
			c1.103,0,2,0.897,2,2V7c0,1.103-0.897,2-2,2h-49c-1.103,0-2-0.897-2-2v-40c0-1.103,0.897-2,2-2H-202.962 M-202.962-36H-216
			c-1.65,0-3,1.35-3,3V7c0,1.65,1.35,3,3,3h49c1.65,0,3-1.35,3-3v-34c0-1.65-1.35-3-3-3h-27.845c-1.65,0-3.449-1.273-3.998-2.829
			l-0.121-0.342C-199.512-34.727-201.312-36-202.962-36L-202.962-36z"/>
	</g>
</g>
<rect x="-218" y="-24" fill="#E5E5E5" width="53" height="1"/>
<g>
	<path fill="#FFFFFF" d="M-164,67c0,1.65-1.35,3-3,3h-49c-1.65,0-3-1.35-3-3V27c0-1.65,1.35-3,3-3h13.038
		c1.65,0,3.449,1.273,3.998,2.829l0.121,0.342c0.549,1.556,2.348,2.829,3.998,2.829H-167c1.65,0,3,1.35,3,3V67z"/>
	<g>
		<path fill="#CCCCCC" d="M-202.962,25c1.221,0,2.649,1.01,3.055,2.162l0.121,0.342c0.692,1.961,2.862,3.497,4.941,3.497H-167
			c1.103,0,2,0.897,2,2v34c0,1.103-0.897,2-2,2h-49c-1.103,0-2-0.897-2-2V27c0-1.103,0.897-2,2-2H-202.962 M-202.962,24H-216
			c-1.65,0-3,1.35-3,3v40c0,1.65,1.35,3,3,3h49c1.65,0,3-1.35,3-3V33c0-1.65-1.35-3-3-3h-27.845c-1.65,0-3.449-1.273-3.998-2.829
			l-0.121-0.342C-199.512,25.273-201.312,24-202.962,24L-202.962,24z"/>
	</g>
</g>
<rect x="-218" y="36" fill="#E5E5E5" width="53" height="1"/>
<g>
	<path fill="#FFFFFF" d="M-164,127c0,1.65-1.35,3-3,3h-49c-1.65,0-3-1.35-3-3V87c0-1.65,1.35-3,3-3h13.038
		c1.65,0,3.449,1.273,3.998,2.829l0.121,0.342c0.549,1.556,2.348,2.829,3.998,2.829H-167c1.65,0,3,1.35,3,3V127z"/>
	<g>
		<path fill="#CCCCCC" d="M-202.962,85c1.221,0,2.649,1.01,3.055,2.162l0.121,0.342c0.692,1.961,2.862,3.496,4.941,3.496H-167
			c1.103,0,2,0.897,2,2v34c0,1.103-0.897,2-2,2h-49c-1.103,0-2-0.897-2-2V87c0-1.103,0.897-2,2-2H-202.962 M-202.962,84H-216
			c-1.65,0-3,1.35-3,3v40c0,1.65,1.35,3,3,3h49c1.65,0,3-1.35,3-3V93c0-1.65-1.35-3-3-3h-27.845c-1.65,0-3.449-1.273-3.998-2.829
			l-0.121-0.342C-199.512,85.273-201.312,84-202.962,84L-202.962,84z"/>
	</g>
</g>
<rect x="-218" y="96" fill="#E5E5E5" width="53" height="1"/>
<defs>
	<filter id="Adobe_OpacityMaskFilter_1_" filterUnits="userSpaceOnUse" x="-186" y="112" width="17" height="12">
		<feColorMatrix  type="matrix" values="1 0 0 0 0  0 1 0 0 0  0 0 1 0 0  0 0 0 1 0"/>
	</filter>
</defs>
<mask maskUnits="userSpaceOnUse" x="-186" y="112" width="17" height="12" id="SVGID_2_">
	<g filter="url(#Adobe_OpacityMaskFilter_1_)">
		<g>
			<path fill="#FFFFFF" d="M-180.5,114.525c1.048,0,1.9,0.852,1.9,1.9s-0.852,1.9-1.9,1.9s-1.9-0.852-1.9-1.9
				S-181.548,114.525-180.5,114.525 M-180.5,113.025c-1.879,0-3.4,1.521-3.4,3.4s1.521,3.4,3.4,3.4s3.4-1.521,3.4-3.4
				S-178.621,113.025-180.5,113.025L-180.5,113.025z"/>
		</g>
		<g>
			<rect x="-179" y="117" fill="#FFFFFF" width="9" height="6"/>
		</g>
		<g>
			<rect x="-188" y="117" width="9" height="6"/>
		</g>
	</g>
</mask>
<rect x="-186" y="112" opacity="0.15" mask="url(#SVGID_2_)" width="17" height="12"/>
<g>
	<path fill="#999999" d="M-276.5,24c0.786,0,1.425,0.639,1.425,1.425s-0.639,1.425-1.425,1.425s-1.425-0.639-1.425-1.425
		S-277.286,24-276.5,24 M-276.5,23c-1.34,0-2.425,1.085-2.425,2.425c0,1.34,1.085,2.425,2.425,2.425s2.425-1.085,2.425-2.425
		C-274.075,24.085-275.16,23-276.5,23L-276.5,23z"/>
</g>
<g>
	<rect x="-280" y="26" fill="#999999" width="7" height="5"/>
</g>
<g>
	<path fill="#999999" d="M-174.5,54.525c1.048,0,1.9,0.852,1.9,1.9s-0.852,1.9-1.9,1.9s-1.9-0.852-1.9-1.9
		S-175.548,54.525-174.5,54.525 M-174.5,53.025c-1.879,0-3.4,1.521-3.4,3.4s1.521,3.4,3.4,3.4s3.4-1.521,3.4-3.4
		S-172.621,53.025-174.5,53.025L-174.5,53.025z"/>
</g>
<g>
	<rect x="-179" y="57" fill="#999999" width="9" height="6"/>
</g>
<defs>
	<filter id="Adobe_OpacityMaskFilter_2_" filterUnits="userSpaceOnUse" x="-114" y="-36" width="20" height="26">
		<feFlood  style="flood-color:white;flood-opacity:1" result="back"/>
		<feBlend  in="SourceGraphic" in2="back" mode="normal"/>
	</filter>
</defs>
<mask maskUnits="userSpaceOnUse" x="-114" y="-36" width="20" height="26" id="SVGID_3_">
	<g filter="url(#Adobe_OpacityMaskFilter_2_)">
		<g>
			<polygon points="-94,-28 -94,-36 -102,-36 			"/>
		</g>
	</g>
</mask>
<g mask="url(#SVGID_3_)">
	<path fill="#FFFFFF" d="M-95-10h-18c-0.552,0-1-0.448-1-1v-24c0-0.552,0.448-1,1-1h18c0.552,0,1,0.448,1,1v24
		C-94-10.448-94.448-10-95-10z"/>
	<g>
		<path fill="#CCCCCC" d="M-95-35v24h-18v-24H-95 M-95-36h-18c-0.552,0-1,0.448-1,1v24c0,0.552,0.448,1,1,1h18c0.552,0,1-0.448,1-1
			v-24C-94-35.552-94.448-36-95-36L-95-36z"/>
	</g>
</g>
<g>
	<path fill="#CCCCCC" d="M-101-33.586L-96.414-29h-4.172L-101-29.414V-33.586 M-102-36v7l1,1h7L-102-36L-102-36z"/>
</g>
<defs>
	<filter id="Adobe_OpacityMaskFilter_3_" filterUnits="userSpaceOnUse" x="-67" y="-36" width="45" height="61">
		<feFlood  style="flood-color:white;flood-opacity:1" result="back"/>
		<feBlend  in="SourceGraphic" in2="back" mode="normal"/>
	</filter>
</defs>
<mask maskUnits="userSpaceOnUse" x="-67" y="-36" width="45" height="61" id="SVGID_4_">
	<g filter="url(#Adobe_OpacityMaskFilter_3_)">
		<polyline points="-38,-36 -22,-36 -22,-20 		"/>
	</g>
</mask>
<g mask="url(#SVGID_4_)">
	<path fill="#FFFFFF" d="M-64.5,24.5c-1.103,0-2-0.897-2-2v-56c0-1.103,0.897-2,2-2h40c1.103,0,2,0.897,2,2v56c0,1.103-0.897,2-2,2
		H-64.5z"/>
	<path fill="#CCCCCC" d="M-24.5-35c0.827,0,1.5,0.673,1.5,1.5v56c0,0.827-0.673,1.5-1.5,1.5h-40c-0.827,0-1.5-0.673-1.5-1.5v-56
		c0-0.827,0.673-1.5,1.5-1.5H-24.5 M-24.5-36h-40c-1.375,0-2.5,1.125-2.5,2.5v56c0,1.375,1.125,2.5,2.5,2.5h40
		c1.375,0,2.5-1.125,2.5-2.5v-56C-22-34.875-23.125-36-24.5-36L-24.5-36z"/>
</g>
<g>
	<polygon fill="#FFFFFF" points="-34.897,-20.5 -36.719,-21.281 -37.5,-23.103 -37.5,-34.793 -23.207,-20.5 	"/>
	<path fill="#CCCCCC" d="M-37-33.586L-24.414-21h-10.381l-1.544-0.662L-37-23.205V-33.586 M-38-36v13l0.9,2.1L-35-20h13L-38-36
		L-38-36z"/>
</g>
<rect x="-114" y="-36" fill="none" width="20" height="26"/>
<rect x="-67" y="-36" fill="none" width="45" height="61"/>
<path d="M47-6H21c-1.1,0-2-0.9-2-2v-1c0-1.1,0.9-2,2-2h26c1.1,0,2,0.9,2,2v1C49-6.9,48.1-6,47-6z"/>
<defs>
	<filter id="Adobe_OpacityMaskFilter_4_" filterUnits="userSpaceOnUse" x="-116" y="65" width="19" height="14">
		<feColorMatrix  type="matrix" values="1 0 0 0 0  0 1 0 0 0  0 0 1 0 0  0 0 0 1 0"/>
	</filter>
</defs>
<mask maskUnits="userSpaceOnUse" x="-116" y="65" width="19" height="14" id="SVGID_5_">
	<g filter="url(#Adobe_OpacityMaskFilter_4_)">
		<rect x="-116" y="71" fill="#FFFFFF" width="17" height="2"/>
		<polyline fill="none" stroke="#FFFFFF" stroke-width="1.6" stroke-miterlimit="10" points="-104,66 -98,72 -104,78 		"/>
	</g>
</mask>
<rect x="-116" y="65" mask="url(#SVGID_5_)" fill="#B2B2B2" width="19" height="14"/>
<defs>
	<filter id="Adobe_OpacityMaskFilter_5_" filterUnits="userSpaceOnUse" x="-191" y="65" width="19" height="14">
		<feColorMatrix  type="matrix" values="1 0 0 0 0  0 1 0 0 0  0 0 1 0 0  0 0 0 1 0"/>
	</filter>
</defs>
<mask maskUnits="userSpaceOnUse" x="-191" y="65" width="19" height="14" id="SVGID_6_">
	<g filter="url(#Adobe_OpacityMaskFilter_5_)">
		<rect x="-189" y="71" fill="#FFFFFF" width="17" height="2"/>
		<polyline fill="none" stroke="#FFFFFF" stroke-width="1.6" stroke-miterlimit="10" points="-184,66 -190,72 -184,78 		"/>
	</g>
</mask>
<rect x="-191" y="65" mask="url(#SVGID_6_)" fill="#B2B2B2" width="19" height="14"/>
<rect x="116" y="66" width="18" height="2"/>
<rect x="116" y="72" width="18" height="2"/>
<rect x="116" y="78" width="18" height="2"/>
<rect x="111" y="72" width="3" height="2"/>
<rect x="111" y="66" width="3" height="2"/>
<rect x="111" y="78" width="3" height="2"/>
<rect x="111" y="66" fill="none" width="23" height="14"/>
<g>
	<path d="M36.483,0l25.2,63h-12.6l-5.32-14h-25.76l-5.32,14h-12.6l25.2-63H36.483z M40.123,39l-9.24-24.16L21.643,39H40.123z
		 M99.483,0l-25.2,63h-6.3l25.2-63H99.483z"/>
</g>
<rect fill="none" width="100" height="63"/>
</svg>
