<?xml version="1.0" encoding="utf-8"?>
<!-- Generator: Adobe Illustrator 18.0.0, SVG Export Plug-In . SVG Version: 6.00 Build 0)  -->
<!DOCTYPE svg PUBLIC "-//W3C//DTD SVG 1.1//EN" "http://www.w3.org/Graphics/SVG/1.1/DTD/svg11.dtd">
<svg version="1.1" id="Layer_1" xmlns="http://www.w3.org/2000/svg" xmlns:xlink="http://www.w3.org/1999/xlink" x="0px" y="0px"
	 width="20px" height="14px" viewBox="0 0 20 14" enable-background="new 0 0 20 14" xml:space="preserve">
<g>
	<g>
		<path fill="#FFFFFF" d="M-258-50c0,1.1-0.9,2-2,2h-22c-1.1,0-2-0.9-2-2v-17c0-1.1,0.9-2,2-2h5c1.1,0,2.225,0.45,2.5,1s1.4,1,2.5,1
			h12c1.1,0,2,0.9,2,2V-50z"/>
		<g>
			<path fill="#CCCCCC" d="M-277-68c0.805,0,1.495,0.315,1.606,0.447C-274.884-66.533-273.3-66-272-66h12c0.551,0,1,0.449,1,1v15
				c0,0.551-0.449,1-1,1h-22c-0.551,0-1-0.449-1-1v-17c0-0.551,0.449-1,1-1H-277 M-277-69h-5c-1.1,0-2,0.9-2,2v17c0,1.1,0.9,2,2,2
				h22c1.1,0,2-0.9,2-2v-15c0-1.1-0.9-2-2-2h-12c-1.1,0-2.225-0.45-2.5-1S-275.9-69-277-69L-277-69z"/>
		</g>
	</g>
	<g>
		<path fill="#E5E5E5" d="M-259-62.485c0,0.267-0.218,0.485-0.485,0.485h-23.03c-0.267,0-0.485-0.218-0.485-0.485v-0.03
			c0-0.267,0.218-0.485,0.485-0.485h23.03c0.267,0,0.485,0.218,0.485,0.485V-62.485z"/>
	</g>
</g>
<g>
	<g>
		<path fill="#FFFFFF" d="M-258,0c0,1.1-0.9,2-2,2h-22c-1.1,0-2-0.9-2-2v-17c0-1.1,0.9-2,2-2h5c1.1,0,2.225,0.45,2.5,1s1.4,1,2.5,1
			h12c1.1,0,2,0.9,2,2V0z"/>
		<g>
			<path fill="#CCCCCC" d="M-277-18c0.805,0,1.495,0.315,1.606,0.447C-274.884-16.533-273.3-16-272-16h12c0.551,0,1,0.449,1,1V0
				c0,0.551-0.449,1-1,1h-22c-0.551,0-1-0.449-1-1v-17c0-0.551,0.449-1,1-1H-277 M-277-19h-5c-1.1,0-2,0.9-2,2V0c0,1.1,0.9,2,2,2h22
				c1.1,0,2-0.9,2-2v-15c0-1.1-0.9-2-2-2h-12c-1.1,0-2.225-0.45-2.5-1S-275.9-19-277-19L-277-19z"/>
		</g>
	</g>
	<g>
		<path fill="#E5E5E5" d="M-259-12.485c0,0.267-0.218,0.485-0.485,0.485h-23.03c-0.267,0-0.485-0.218-0.485-0.485v-0.03
			c0-0.267,0.218-0.485,0.485-0.485h23.03c0.267,0,0.485,0.218,0.485,0.485V-12.485z"/>
	</g>
</g>
<g>
	<g>
		<path fill="#FFFFFF" d="M-258,50c0,1.1-0.9,2-2,2h-22c-1.1,0-2-0.9-2-2V33c0-1.1,0.9-2,2-2h5c1.1,0,2.225,0.45,2.5,1s1.4,1,2.5,1
			h12c1.1,0,2,0.9,2,2V50z"/>
		<g>
			<path fill="#CCCCCC" d="M-277,32c0.805,0,1.495,0.315,1.606,0.447C-274.884,33.467-273.3,34-272,34h12c0.551,0,1,0.449,1,1v15
				c0,0.551-0.449,1-1,1h-22c-0.551,0-1-0.449-1-1V33c0-0.551,0.449-1,1-1H-277 M-277,31h-5c-1.1,0-2,0.9-2,2v17c0,1.1,0.9,2,2,2h22
				c1.1,0,2-0.9,2-2V35c0-1.1-0.9-2-2-2h-12c-1.1,0-2.225-0.45-2.5-1S-275.9,31-277,31L-277,31z"/>
		</g>
	</g>
	<g>
		<path fill="#E5E5E5" d="M-259,37.515c0,0.267-0.218,0.485-0.485,0.485h-23.03c-0.267,0-0.485-0.218-0.485-0.485v-0.03
			c0-0.267,0.218-0.485,0.485-0.485h23.03c0.267,0,0.485,0.218,0.485,0.485V37.515z"/>
	</g>
</g>
<defs>
	<filter id="Adobe_OpacityMaskFilter" filterUnits="userSpaceOnUse" x="-275" y="38" width="13" height="10">
		<feColorMatrix  type="matrix" values="1 0 0 0 0  0 1 0 0 0  0 0 1 0 0  0 0 0 1 0"/>
	</filter>
</defs>
<mask maskUnits="userSpaceOnUse" x="-275" y="38" width="13" height="10" id="SVGID_1_">
	<g filter="url(#Adobe_OpacityMaskFilter)">
		<g>
			<path fill="#FFFFFF" d="M-269.5,41c0.786,0,1.425,0.639,1.425,1.425s-0.639,1.425-1.425,1.425s-1.425-0.639-1.425-1.425
				S-270.286,41-269.5,41 M-269.5,40c-1.34,0-2.425,1.085-2.425,2.425s1.085,2.425,2.425,2.425s2.425-1.085,2.425-2.425
				S-268.16,40-269.5,40L-269.5,40z"/>
		</g>
		<g>
			<rect x="-269" y="43" fill="#FFFFFF" width="7" height="5"/>
		</g>
		<rect x="-278" y="43" width="9" height="6"/>
	</g>
</mask>
<rect x="-275" y="38" opacity="0.15" mask="url(#SVGID_1_)" width="13" height="10"/>
<g>
	<path fill="#FFFFFF" d="M-153-26c0,1.65-1.35,3-3,3h-49c-1.65,0-3-1.35-3-3v-40c0-1.65,1.35-3,3-3h13.038
		c1.65,0,3.449,1.273,3.998,2.829l0.121,0.342c0.549,1.556,2.348,2.829,3.998,2.829H-156c1.65,0,3,1.35,3,3V-26z"/>
	<g>
		<path fill="#CCCCCC" d="M-191.962-68c1.221,0,2.649,1.01,3.055,2.162l0.121,0.342c0.692,1.961,2.862,3.496,4.941,3.496H-156
			c1.103,0,2,0.897,2,2v34c0,1.103-0.897,2-2,2h-49c-1.103,0-2-0.897-2-2v-40c0-1.103,0.897-2,2-2H-191.962 M-191.962-69H-205
			c-1.65,0-3,1.35-3,3v40c0,1.65,1.35,3,3,3h49c1.65,0,3-1.35,3-3v-34c0-1.65-1.35-3-3-3h-27.845c-1.65,0-3.449-1.273-3.998-2.829
			l-0.121-0.342C-188.512-67.727-190.312-69-191.962-69L-191.962-69z"/>
	</g>
</g>
<rect x="-207" y="-57" fill="#E5E5E5" width="53" height="1"/>
<g>
	<path fill="#FFFFFF" d="M-153,34c0,1.65-1.35,3-3,3h-49c-1.65,0-3-1.35-3-3V-6c0-1.65,1.35-3,3-3h13.038
		c1.65,0,3.449,1.273,3.998,2.829l0.121,0.342C-187.294-4.273-185.495-3-183.845-3H-156c1.65,0,3,1.35,3,3V34z"/>
	<g>
		<path fill="#CCCCCC" d="M-191.962-8c1.221,0,2.649,1.01,3.055,2.162l0.121,0.342C-188.095-3.536-185.924-2-183.845-2H-156
			c1.103,0,2,0.897,2,2v34c0,1.103-0.897,2-2,2h-49c-1.103,0-2-0.897-2-2V-6c0-1.103,0.897-2,2-2H-191.962 M-191.962-9H-205
			c-1.65,0-3,1.35-3,3v40c0,1.65,1.35,3,3,3h49c1.65,0,3-1.35,3-3V0c0-1.65-1.35-3-3-3h-27.845c-1.65,0-3.449-1.273-3.998-2.829
			l-0.121-0.342C-188.512-7.727-190.312-9-191.962-9L-191.962-9z"/>
	</g>
</g>
<rect x="-207" y="3" fill="#E5E5E5" width="53" height="1"/>
<g>
	<path fill="#FFFFFF" d="M-153,94c0,1.65-1.35,3-3,3h-49c-1.65,0-3-1.35-3-3V54c0-1.65,1.35-3,3-3h13.038
		c1.65,0,3.449,1.273,3.998,2.829l0.121,0.342c0.549,1.556,2.348,2.829,3.998,2.829H-156c1.65,0,3,1.35,3,3V94z"/>
	<g>
		<path fill="#CCCCCC" d="M-191.962,52c1.221,0,2.649,1.01,3.055,2.162l0.121,0.342c0.692,1.961,2.862,3.496,4.941,3.496H-156
			c1.103,0,2,0.897,2,2v34c0,1.103-0.897,2-2,2h-49c-1.103,0-2-0.897-2-2V54c0-1.103,0.897-2,2-2H-191.962 M-191.962,51H-205
			c-1.65,0-3,1.35-3,3v40c0,1.65,1.35,3,3,3h49c1.65,0,3-1.35,3-3V60c0-1.65-1.35-3-3-3h-27.845c-1.65,0-3.449-1.273-3.998-2.829
			l-0.121-0.342C-188.512,52.273-190.312,51-191.962,51L-191.962,51z"/>
	</g>
</g>
<rect x="-207" y="63" fill="#E5E5E5" width="53" height="1"/>
<defs>
	<filter id="Adobe_OpacityMaskFilter_1_" filterUnits="userSpaceOnUse" x="-175" y="79" width="17" height="12">
		<feColorMatrix  type="matrix" values="1 0 0 0 0  0 1 0 0 0  0 0 1 0 0  0 0 0 1 0"/>
	</filter>
</defs>
<mask maskUnits="userSpaceOnUse" x="-175" y="79" width="17" height="12" id="SVGID_2_">
	<g filter="url(#Adobe_OpacityMaskFilter_1_)">
		<g>
			<path fill="#FFFFFF" d="M-169.5,81.525c1.048,0,1.9,0.852,1.9,1.9s-0.852,1.9-1.9,1.9c-1.048,0-1.9-0.852-1.9-1.9
				S-170.548,81.525-169.5,81.525 M-169.5,80.025c-1.879,0-3.4,1.521-3.4,3.4s1.521,3.4,3.4,3.4s3.4-1.521,3.4-3.4
				S-167.621,80.025-169.5,80.025L-169.5,80.025z"/>
		</g>
		<g>
			<rect x="-168" y="84" fill="#FFFFFF" width="9" height="6"/>
		</g>
		<g>
			<rect x="-177" y="84" width="9" height="6"/>
		</g>
	</g>
</mask>
<rect x="-175" y="79" opacity="0.15" mask="url(#SVGID_2_)" width="17" height="12"/>
<g>
	<path fill="#999999" d="M-265.5-9c0.786,0,1.425,0.639,1.425,1.425c0,0.786-0.639,1.425-1.425,1.425s-1.425-0.639-1.425-1.425
		C-266.925-8.361-266.286-9-265.5-9 M-265.5-10c-1.34,0-2.425,1.085-2.425,2.425s1.085,2.425,2.425,2.425s2.425-1.085,2.425-2.425
		S-264.16-10-265.5-10L-265.5-10z"/>
</g>
<g>
	<rect x="-269" y="-7" fill="#999999" width="7" height="5"/>
</g>
<g>
	<path fill="#999999" d="M-163.5,21.525c1.048,0,1.9,0.852,1.9,1.9c0,1.048-0.852,1.9-1.9,1.9c-1.048,0-1.9-0.852-1.9-1.9
		C-165.4,22.377-164.548,21.525-163.5,21.525 M-163.5,20.025c-1.879,0-3.4,1.521-3.4,3.4s1.521,3.4,3.4,3.4s3.4-1.521,3.4-3.4
		S-161.621,20.025-163.5,20.025L-163.5,20.025z"/>
</g>
<g>
	<rect x="-168" y="24" fill="#999999" width="9" height="6"/>
</g>
<defs>
	<filter id="Adobe_OpacityMaskFilter_2_" filterUnits="userSpaceOnUse" x="-103" y="-69" width="20" height="26">
		<feFlood  style="flood-color:white;flood-opacity:1" result="back"/>
		<feBlend  in="SourceGraphic" in2="back" mode="normal"/>
	</filter>
</defs>
<mask maskUnits="userSpaceOnUse" x="-103" y="-69" width="20" height="26" id="SVGID_3_">
	<g filter="url(#Adobe_OpacityMaskFilter_2_)">
		<g>
			<polygon points="-83,-61 -83,-69 -91,-69 			"/>
		</g>
	</g>
</mask>
<g mask="url(#SVGID_3_)">
	<path fill="#FFFFFF" d="M-84-43h-18c-0.552,0-1-0.448-1-1v-24c0-0.552,0.448-1,1-1h18c0.552,0,1,0.448,1,1v24
		C-83-43.448-83.448-43-84-43z"/>
	<g>
		<path fill="#CCCCCC" d="M-84-68v24h-18v-24H-84 M-84-69h-18c-0.552,0-1,0.448-1,1v24c0,0.552,0.448,1,1,1h18c0.552,0,1-0.448,1-1
			v-24C-83-68.552-83.448-69-84-69L-84-69z"/>
	</g>
</g>
<g>
	<path fill="#CCCCCC" d="M-90-66.586L-85.414-62h-4.172L-90-62.414V-66.586 M-91-69v7l1,1h7L-91-69L-91-69z"/>
</g>
<defs>
	<filter id="Adobe_OpacityMaskFilter_3_" filterUnits="userSpaceOnUse" x="-56" y="-69" width="45" height="61">
		<feFlood  style="flood-color:white;flood-opacity:1" result="back"/>
		<feBlend  in="SourceGraphic" in2="back" mode="normal"/>
	</filter>
</defs>
<mask maskUnits="userSpaceOnUse" x="-56" y="-69" width="45" height="61" id="SVGID_4_">
	<g filter="url(#Adobe_OpacityMaskFilter_3_)">
		<polyline points="-27,-69 -11,-69 -11,-53 		"/>
	</g>
</mask>
<g mask="url(#SVGID_4_)">
	<path fill="#FFFFFF" d="M-53.5-8.5c-1.103,0-2-0.897-2-2v-56c0-1.103,0.897-2,2-2h40c1.103,0,2,0.897,2,2v56c0,1.103-0.897,2-2,2
		H-53.5z"/>
	<path fill="#CCCCCC" d="M-13.5-68c0.827,0,1.5,0.673,1.5,1.5v56c0,0.827-0.673,1.5-1.5,1.5h-40c-0.827,0-1.5-0.673-1.5-1.5v-56
		c0-0.827,0.673-1.5,1.5-1.5H-13.5 M-13.5-69h-40c-1.375,0-2.5,1.125-2.5,2.5v56c0,1.375,1.125,2.5,2.5,2.5h40
		c1.375,0,2.5-1.125,2.5-2.5v-56C-11-67.875-12.125-69-13.5-69L-13.5-69z"/>
</g>
<g>
	<polygon fill="#FFFFFF" points="-23.897,-53.5 -25.719,-54.281 -26.5,-56.103 -26.5,-67.793 -12.207,-53.5 	"/>
	<path fill="#CCCCCC" d="M-26-66.586L-13.414-54h-10.381l-1.544-0.662L-26-56.205V-66.586 M-27-69v13l0.9,2.1L-24-53h13L-27-69
		L-27-69z"/>
</g>
<rect x="-103" y="-69" fill="none" width="20" height="26"/>
<rect x="-56" y="-69" fill="none" width="45" height="61"/>
<path fill="#B3B3B3" d="M58-39H32c-1.1,0-2-0.9-2-2v-1c0-1.1,0.9-2,2-2h26c1.1,0,2,0.9,2,2v1C60-39.9,59.1-39,58-39z"/>
<rect x="33" y="6" width="17" height="2"/>
<polyline fill="none" stroke="#000000" stroke-width="1.6" stroke-miterlimit="10" points="45,1 51,7 45,13 "/>
<rect x="33" y="0" fill="none" width="20" height="14"/>
<rect x="3" y="6" width="17" height="2"/>
<polyline fill="none" stroke="#000000" stroke-width="1.6" stroke-miterlimit="10" points="8,1 2,7 8,13 "/>
<rect x="0" y="0" fill="none" width="20" height="14"/>
</svg>
