<?xml version="1.0" encoding="utf-8"?>
<!-- Generator: Adobe Illustrator 18.0.0, SVG Export Plug-In . SVG Version: 6.00 Build 0)  -->
<!DOCTYPE svg PUBLIC "-//W3C//DTD SVG 1.1//EN" "http://www.w3.org/Graphics/SVG/1.1/DTD/svg11.dtd">
<svg version="1.1" id="Layer_1" xmlns="http://www.w3.org/2000/svg" xmlns:xlink="http://www.w3.org/1999/xlink" x="0px" y="0px"
	 width="20px" height="14px" viewBox="0 0 20 14" enable-background="new 0 0 20 14" xml:space="preserve">
<g>
	<g>
		<path fill="#FFFFFF" d="M-77-170c0,1.1-0.9,2-2,2h-22c-1.1,0-2-0.9-2-2v-17c0-1.1,0.9-2,2-2h5c1.1,0,2.225,0.45,2.5,1
			c0.275,0.55,1.4,1,2.5,1h12c1.1,0,2,0.9,2,2V-170z"/>
		<g>
			<path fill="#CCCCCC" d="M-96-188c0.805,0,1.495,0.315,1.606,0.447C-93.884-186.533-92.3-186-91-186h12c0.551,0,1,0.449,1,1v15
				c0,0.551-0.449,1-1,1h-22c-0.551,0-1-0.449-1-1v-17c0-0.551,0.449-1,1-1H-96 M-96-189h-5c-1.1,0-2,0.9-2,2v17c0,1.1,0.9,2,2,2h22
				c1.1,0,2-0.9,2-2v-15c0-1.1-0.9-2-2-2h-12c-1.1,0-2.225-0.45-2.5-1C-93.775-188.55-94.9-189-96-189L-96-189z"/>
		</g>
	</g>
	<g>
		<path fill="#E5E5E5" d="M-78-182.485c0,0.267-0.218,0.485-0.485,0.485h-23.03c-0.267,0-0.485-0.218-0.485-0.485v-0.03
			c0-0.267,0.218-0.485,0.485-0.485h23.03c0.267,0,0.485,0.218,0.485,0.485V-182.485z"/>
	</g>
</g>
<g>
	<g>
		<path fill="#FFFFFF" d="M-77-120c0,1.1-0.9,2-2,2h-22c-1.1,0-2-0.9-2-2v-17c0-1.1,0.9-2,2-2h5c1.1,0,2.225,0.45,2.5,1
			c0.275,0.55,1.4,1,2.5,1h12c1.1,0,2,0.9,2,2V-120z"/>
		<g>
			<path fill="#CCCCCC" d="M-96-138c0.805,0,1.495,0.315,1.606,0.447C-93.884-136.533-92.3-136-91-136h12c0.551,0,1,0.449,1,1v15
				c0,0.551-0.449,1-1,1h-22c-0.551,0-1-0.449-1-1v-17c0-0.551,0.449-1,1-1H-96 M-96-139h-5c-1.1,0-2,0.9-2,2v17c0,1.1,0.9,2,2,2h22
				c1.1,0,2-0.9,2-2v-15c0-1.1-0.9-2-2-2h-12c-1.1,0-2.225-0.45-2.5-1C-93.775-138.55-94.9-139-96-139L-96-139z"/>
		</g>
	</g>
	<g>
		<rect x="-102" y="-133" fill="#E5E5E5" width="24" height="1"/>
	</g>
</g>
<g>
	<g>
		<path fill="#FFFFFF" d="M-77-70c0,1.1-0.9,2-2,2h-22c-1.1,0-2-0.9-2-2v-17c0-1.1,0.9-2,2-2h5c1.1,0,2.225,0.45,2.5,1
			c0.275,0.55,1.4,1,2.5,1h12c1.1,0,2,0.9,2,2V-70z"/>
		<g>
			<path fill="#CCCCCC" d="M-96-88c0.805,0,1.495,0.315,1.606,0.447C-93.884-86.533-92.3-86-91-86h12c0.551,0,1,0.449,1,1v15
				c0,0.551-0.449,1-1,1h-22c-0.551,0-1-0.449-1-1v-17c0-0.551,0.449-1,1-1H-96 M-96-89h-5c-1.1,0-2,0.9-2,2v17c0,1.1,0.9,2,2,2h22
				c1.1,0,2-0.9,2-2v-15c0-1.1-0.9-2-2-2h-12c-1.1,0-2.225-0.45-2.5-1C-93.775-88.55-94.9-89-96-89L-96-89z"/>
		</g>
	</g>
	<g>
		<path fill="#E5E5E5" d="M-78-82.485C-78-82.218-78.218-82-78.485-82h-23.03c-0.267,0-0.485-0.218-0.485-0.485v-0.03
			c0-0.267,0.218-0.485,0.485-0.485h23.03C-78.218-83-78-82.782-78-82.515V-82.485z"/>
	</g>
</g>
<defs>
	<filter id="Adobe_OpacityMaskFilter" filterUnits="userSpaceOnUse" x="-124" y="-82" width="13" height="10">
		<feColorMatrix  type="matrix" values="1 0 0 0 0  0 1 0 0 0  0 0 1 0 0  0 0 0 1 0"/>
	</filter>
</defs>
<mask maskUnits="userSpaceOnUse" x="-124" y="-82" width="13" height="10" id="SVGID_1_">
	<g filter="url(#Adobe_OpacityMaskFilter)">
		<g>
			<path fill="#FFFFFF" d="M-118.5-79c0.786,0,1.425,0.639,1.425,1.425c0,0.786-0.639,1.425-1.425,1.425
				c-0.786,0-1.425-0.639-1.425-1.425C-119.925-78.361-119.286-79-118.5-79 M-118.5-80c-1.34,0-2.425,1.085-2.425,2.425
				c0,1.34,1.085,2.425,2.425,2.425c1.34,0,2.425-1.085,2.425-2.425C-116.075-78.915-117.16-80-118.5-80L-118.5-80z"/>
		</g>
		<g>
			<rect x="-118" y="-77" fill="#FFFFFF" width="7" height="5"/>
		</g>
		<rect x="-127" y="-77" width="9" height="6"/>
	</g>
</mask>
<rect x="-124" y="-82" opacity="0.15" mask="url(#SVGID_1_)" width="13" height="10"/>
<g>
	<path fill="#FFFFFF" d="M28-146c0,1.65-1.35,3-3,3h-49c-1.65,0-3-1.35-3-3v-40c0-1.65,1.35-3,3-3h13.038
		c1.65,0,3.449,1.273,3.998,2.829l0.121,0.342C-6.294-184.273-4.495-183-2.845-183H25c1.65,0,3,1.35,3,3V-146z"/>
	<g>
		<path fill="#CCCCCC" d="M-10.962-188c1.221,0,2.649,1.01,3.055,2.162l0.121,0.342C-7.095-183.536-4.924-182-2.845-182H25
			c1.103,0,2,0.897,2,2v34c0,1.103-0.897,2-2,2h-49c-1.103,0-2-0.897-2-2v-40c0-1.103,0.897-2,2-2H-10.962 M-10.962-189H-24
			c-1.65,0-3,1.35-3,3v40c0,1.65,1.35,3,3,3h49c1.65,0,3-1.35,3-3v-34c0-1.65-1.35-3-3-3H-2.845c-1.65,0-3.449-1.273-3.998-2.829
			l-0.121-0.342C-7.512-187.727-9.312-189-10.962-189L-10.962-189z"/>
	</g>
</g>
<rect x="-26" y="-177" fill="#E5E5E5" width="53" height="1"/>
<g>
	<path fill="#FFFFFF" d="M28-86c0,1.65-1.35,3-3,3h-49c-1.65,0-3-1.35-3-3v-40c0-1.65,1.35-3,3-3h13.038
		c1.65,0,3.449,1.273,3.998,2.829l0.121,0.342C-6.294-124.273-4.495-123-2.845-123H25c1.65,0,3,1.35,3,3V-86z"/>
	<g>
		<path fill="#CCCCCC" d="M-10.962-128c1.221,0,2.649,1.01,3.055,2.162l0.121,0.342C-7.095-123.536-4.924-122-2.845-122H25
			c1.103,0,2,0.897,2,2v34c0,1.103-0.897,2-2,2h-49c-1.103,0-2-0.897-2-2v-40c0-1.103,0.897-2,2-2H-10.962 M-10.962-129H-24
			c-1.65,0-3,1.35-3,3v40c0,1.65,1.35,3,3,3h49c1.65,0,3-1.35,3-3v-34c0-1.65-1.35-3-3-3H-2.845c-1.65,0-3.449-1.273-3.998-2.829
			l-0.121-0.342C-7.512-127.727-9.312-129-10.962-129L-10.962-129z"/>
	</g>
</g>
<rect x="-26" y="-117" fill="#E5E5E5" width="53" height="1"/>
<g>
	<path fill="#FFFFFF" d="M28-26c0,1.65-1.35,3-3,3h-49c-1.65,0-3-1.35-3-3v-40c0-1.65,1.35-3,3-3h13.038
		c1.65,0,3.449,1.273,3.998,2.829l0.121,0.342C-6.294-64.273-4.495-63-2.845-63H25c1.65,0,3,1.35,3,3V-26z"/>
	<g>
		<path fill="#CCCCCC" d="M-10.962-68c1.221,0,2.649,1.01,3.055,2.162l0.121,0.342C-7.095-63.536-4.924-62-2.845-62H25
			c1.103,0,2,0.897,2,2v34c0,1.103-0.897,2-2,2h-49c-1.103,0-2-0.897-2-2v-40c0-1.103,0.897-2,2-2H-10.962 M-10.962-69H-24
			c-1.65,0-3,1.35-3,3v40c0,1.65,1.35,3,3,3h49c1.65,0,3-1.35,3-3v-34c0-1.65-1.35-3-3-3H-2.845c-1.65,0-3.449-1.273-3.998-2.829
			l-0.121-0.342C-7.512-67.727-9.312-69-10.962-69L-10.962-69z"/>
	</g>
</g>
<rect x="-26" y="-57" fill="#E5E5E5" width="53" height="1"/>
<g>
	<path fill="#999999" d="M-87-122v-3c0-0.55,0.45-1,1-1h4c0.55,0,1,0.45,1,1v3"/>
</g>
<g>
	<path fill="#999999" d="M15-90v-4c0-1.1,0.9-2,2-2h3c1.1,0,2,0.9,2,2v4"/>
</g>
<defs>
	<filter id="Adobe_OpacityMaskFilter_1_" filterUnits="userSpaceOnUse" x="78" y="-229" width="20" height="26">
		<feFlood  style="flood-color:white;flood-opacity:1" result="back"/>
		<feBlend  in="SourceGraphic" in2="back" mode="normal"/>
	</filter>
</defs>
<mask maskUnits="userSpaceOnUse" x="78" y="-229" width="20" height="26" id="SVGID_2_">
	<g filter="url(#Adobe_OpacityMaskFilter_1_)">
		<g>
			<polygon points="98,-221 98,-229 90,-229 			"/>
		</g>
	</g>
</mask>
<g mask="url(#SVGID_2_)">
	<path fill="#FFFFFF" d="M97-203H79c-0.552,0-1-0.448-1-1v-24c0-0.552,0.448-1,1-1h18c0.552,0,1,0.448,1,1v24
		C98-203.448,97.552-203,97-203z"/>
	<g>
		<path fill="#CCCCCC" d="M97-228v24H79v-24H97 M97-229H79c-0.552,0-1,0.448-1,1v24c0,0.552,0.448,1,1,1h18c0.552,0,1-0.448,1-1v-24
			C98-228.552,97.552-229,97-229L97-229z"/>
	</g>
</g>
<g>
	<path fill="#CCCCCC" d="M91-226.586L95.586-222h-4.172L91-222.414V-226.586 M90-229v7l1,1h7L90-229L90-229z"/>
</g>
<rect x="78" y="-229" fill="none" width="20" height="26"/>
<g>
	<path fill="#CCCCCC" d="M97-164H79v-24h11v-1H79c-0.552,0-1,0.448-1,1v24c0,0.552,0.448,1,1,1h18c0.552,0,1-0.448,1-1v-17h-1V-164z
		"/>
</g>
<g>
	<path fill="#CCCCCC" d="M91-187.586L96.586-182H91V-187.586 M90.5-189c-0.275,0-0.5,0.45-0.5,1v6c0,0.55,0.45,1,1,1h6
		c0.55,0,1-0.225,1-0.5s-0.318-0.818-0.707-1.207l-5.586-5.586C91.318-188.682,90.775-189,90.5-189L90.5-189z"/>
</g>
<g>
	<path fill="#CCCCCC" d="M96-134H78v-24h11v-1H78c-0.552,0-1,0.448-1,1v24c0,0.552,0.448,1,1,1h18c0.552,0,1-0.448,1-1v-17h-1V-134z
		"/>
</g>
<g>
	<path fill="#CCCCCC" d="M90-157.586L95.586-152H90V-157.586 M89.5-159c-0.275,0-0.5,0.45-0.5,1v6c0,0.55,0.45,1,1,1h6
		c0.55,0,1-0.225,1-0.5s-0.318-0.818-0.707-1.207l-5.586-5.586C90.318-158.682,89.775-159,89.5-159L89.5-159z"/>
</g>
<path d="M239-159h-26c-1.1,0-2-0.9-2-2v-1c0-1.1,0.9-2,2-2h26c1.1,0,2,0.9,2,2v1C241-159.9,240.1-159,239-159z"/>
<rect x="308" y="-87" width="18" height="2"/>
<rect x="308" y="-81" width="18" height="2"/>
<rect x="308" y="-75" width="18" height="2"/>
<rect x="303" y="-81" width="3" height="2"/>
<rect x="303" y="-87" width="3" height="2"/>
<rect x="303" y="-75" width="3" height="2"/>
<rect x="303" y="-87" fill="none" width="23" height="14"/>
<path fill="none" stroke="#999999" stroke-miterlimit="10" d="M-82.5-126v-1c0-0.828-0.672-1.5-1.5-1.5s-1.5,0.672-1.5,1.5v1"/>
<g>
	<path fill="#CCCCCC" d="M-87-72v-3c0-0.55,0.45-1,1-1h4c0.55,0,1,0.45,1,1v3"/>
</g>
<path fill="none" stroke="#CCCCCC" stroke-miterlimit="10" d="M-85.5-76v-1c0-0.828-0.672-1.5-1.5-1.5s-1.5,0.672-1.5,1.5v1"/>
<g>
	<g>
		<path fill="#FFFFFF" d="M-145,33c0,2.2-1.8,4-4,4h-44c-2.2,0-4-1.8-4-4V-1c0-2.2,1.8-4,4-4h10c2.2,0,4.45,0.9,5,2
			c0.55,1.1,2.8,2,5.001,2H-149c2.2,0,4,1.8,4,4V33z"/>
		<g>
			<path fill="#CCCCCC" d="M-183-3c1.585,0,2.946,0.61,3.234,0.938c1.043,2.01,4.184,3.062,6.767,3.062H-149c1.103,0,2,0.897,2,2v30
				c0,1.103-0.897,2-2,2h-44c-1.103,0-2-0.897-2-2V-1c0-1.103,0.897-2,2-2H-183 M-183-5h-10c-2.2,0-4,1.8-4,4v34c0,2.2,1.8,4,4,4h44
				c2.2,0,4-1.8,4-4V3c0-2.2-1.8-4-4-4h-23.999c-2.2,0-4.45-0.9-5-2C-178.55-4.1-180.8-5-183-5L-183-5z"/>
		</g>
	</g>
	<g>
		<rect x="-195" y="7" fill="#E5E5E5" width="48" height="2"/>
	</g>
</g>
<g>
	<path fill="#999999" d="M-165,27v-6c0-1.1,0.9-2,2-2h8c1.1,0,2,0.9,2,2v6"/>
</g>
<path fill="none" stroke="#999999" stroke-width="2" stroke-miterlimit="10" d="M-156,19v-2c0-1.657-1.343-3-3-3s-3,1.343-3,3v2"/>
<path fill="none" stroke="#999999" stroke-miterlimit="10" d="M20.5-96v-1.5c0-1.105-0.895-2-2-2s-2,0.895-2,2v1.5"/>
<rect x="3" y="6" width="17" height="2"/>
<polyline fill="none" stroke="#000000" stroke-width="2" stroke-miterlimit="10" points="8,1 2,7 8,13 "/>
<rect x="52" y="6" width="17" height="2"/>
<polyline fill="none" stroke="#000000" stroke-width="2" stroke-miterlimit="10" points="64,1 70,7 64,13 "/>
<g>
	<g>
		<g>
			<path fill="#FFFFFF" d="M170-128h-42.5c-1.375,0-2.5-1.125-2.5-2.5V-189"/>
		</g>
		<path fill="#CCCCCC" d="M169-174v43.5c0,0.827-0.673,1.5-1.5,1.5h-40c-0.827,0-1.5-0.673-1.5-1.5v-56c0-0.827,0.673-1.5,1.5-1.5
			H155v-1l0,0h-27.5c-1.375,0-2.5,1.125-2.5,2.5v56c0,1.375,1.125,2.5,2.5,2.5h40c1.375,0,2.5-1.125,2.5-2.5V-174H169z"/>
	</g>
</g>
<g>
	<path fill="#CCCCCC" d="M156-187.586L156-187.586L168.586-175c0,0,0,0,0,0H156V-187.586 M155.5-189c-0.275,0-0.5,0.45-0.5,1v13
		c0,0.55,0.45,1,1,1h13c0.55,0,1-0.225,1-0.5s-0.318-0.818-0.707-1.207l-12.586-12.586C156.318-188.682,155.775-189,155.5-189
		L155.5-189z"/>
</g>
<rect fill="none" width="20" height="14"/>
</svg>
