<?xml version="1.0" encoding="utf-8"?>
<!-- Generator: Adobe Illustrator 18.0.0, SVG Export Plug-In . SVG Version: 6.00 Build 0)  -->
<!DOCTYPE svg PUBLIC "-//W3C//DTD SVG 1.1//EN" "http://www.w3.org/Graphics/SVG/1.1/DTD/svg11.dtd">
<svg version="1.1" id="Layer_1" xmlns="http://www.w3.org/2000/svg" xmlns:xlink="http://www.w3.org/1999/xlink" x="0px" y="0px"
	 width="20px" height="14px" viewBox="0 0 20 14" enable-background="new 0 0 20 14" xml:space="preserve">
<g>
	<g>
		<path fill="#FFFFFF" d="M-129-170c0,1.1-0.9,2-2,2h-22c-1.1,0-2-0.9-2-2v-17c0-1.1,0.9-2,2-2h5c1.1,0,2.225,0.45,2.5,1
			s1.4,1,2.5,1h12c1.1,0,2,0.9,2,2V-170z"/>
		<g>
			<path fill="#CCCCCC" d="M-148-188c0.805,0,1.495,0.315,1.606,0.447c0.51,1.019,2.094,1.553,3.395,1.553h12c0.551,0,1,0.449,1,1
				v15c0,0.551-0.449,1-1,1h-22c-0.551,0-1-0.449-1-1v-17c0-0.551,0.449-1,1-1H-148 M-148-189h-5c-1.1,0-2,0.9-2,2v17
				c0,1.1,0.9,2,2,2h22c1.1,0,2-0.9,2-2v-15c0-1.1-0.9-2-2-2h-12c-1.1,0-2.225-0.45-2.5-1S-146.9-189-148-189L-148-189z"/>
		</g>
	</g>
	<g>
		<path fill="#E5E5E5" d="M-130-182.485c0,0.267-0.218,0.485-0.485,0.485h-23.03c-0.267,0-0.485-0.218-0.485-0.485v-0.03
			c0-0.267,0.218-0.485,0.485-0.485h23.03c0.267,0,0.485,0.218,0.485,0.485V-182.485z"/>
	</g>
</g>
<g>
	<g>
		<path fill="#FFFFFF" d="M-129-120c0,1.1-0.9,2-2,2h-22c-1.1,0-2-0.9-2-2v-17c0-1.1,0.9-2,2-2h5c1.1,0,2.225,0.45,2.5,1
			s1.4,1,2.5,1h12c1.1,0,2,0.9,2,2V-120z"/>
		<g>
			<path fill="#CCCCCC" d="M-148-138c0.805,0,1.495,0.315,1.606,0.447c0.51,1.019,2.094,1.553,3.395,1.553h12c0.551,0,1,0.449,1,1
				v15c0,0.551-0.449,1-1,1h-22c-0.551,0-1-0.449-1-1v-17c0-0.551,0.449-1,1-1H-148 M-148-139h-5c-1.1,0-2,0.9-2,2v17
				c0,1.1,0.9,2,2,2h22c1.1,0,2-0.9,2-2v-15c0-1.1-0.9-2-2-2h-12c-1.1,0-2.225-0.45-2.5-1S-146.9-139-148-139L-148-139z"/>
		</g>
	</g>
	<g>
		<rect x="-154" y="-133" fill="#E5E5E5" width="24" height="1"/>
	</g>
</g>
<g>
	<g>
		<path fill="#FFFFFF" d="M-129-70c0,1.1-0.9,2-2,2h-22c-1.1,0-2-0.9-2-2v-17c0-1.1,0.9-2,2-2h5c1.1,0,2.225,0.45,2.5,1s1.4,1,2.5,1
			h12c1.1,0,2,0.9,2,2V-70z"/>
		<g>
			<path fill="#CCCCCC" d="M-148-88c0.805,0,1.495,0.315,1.606,0.447C-145.884-86.533-144.3-86-143-86h12c0.551,0,1,0.449,1,1v15
				c0,0.551-0.449,1-1,1h-22c-0.551,0-1-0.449-1-1v-17c0-0.551,0.449-1,1-1H-148 M-148-89h-5c-1.1,0-2,0.9-2,2v17c0,1.1,0.9,2,2,2
				h22c1.1,0,2-0.9,2-2v-15c0-1.1-0.9-2-2-2h-12c-1.1,0-2.225-0.45-2.5-1S-146.9-89-148-89L-148-89z"/>
		</g>
	</g>
	<g>
		<path fill="#E5E5E5" d="M-130-82.485c0,0.267-0.218,0.485-0.485,0.485h-23.03c-0.267,0-0.485-0.218-0.485-0.485v-0.03
			c0-0.267,0.218-0.485,0.485-0.485h23.03c0.267,0,0.485,0.218,0.485,0.485V-82.485z"/>
	</g>
</g>
<defs>
	<filter id="Adobe_OpacityMaskFilter" filterUnits="userSpaceOnUse" x="-176" y="-82" width="13" height="10">
		<feColorMatrix  type="matrix" values="1 0 0 0 0  0 1 0 0 0  0 0 1 0 0  0 0 0 1 0"/>
	</filter>
</defs>
<mask maskUnits="userSpaceOnUse" x="-176" y="-82" width="13" height="10" id="SVGID_1_">
	<g filter="url(#Adobe_OpacityMaskFilter)">
		<g>
			<path fill="#FFFFFF" d="M-170.5-79c0.786,0,1.425,0.639,1.425,1.425c0,0.786-0.639,1.425-1.425,1.425s-1.425-0.639-1.425-1.425
				C-171.925-78.361-171.286-79-170.5-79 M-170.5-80c-1.34,0-2.425,1.085-2.425,2.425c0,1.34,1.085,2.425,2.425,2.425
				c1.34,0,2.425-1.085,2.425-2.425C-168.075-78.915-169.16-80-170.5-80L-170.5-80z"/>
		</g>
		<g>
			<rect x="-170" y="-77" fill="#FFFFFF" width="7" height="5"/>
		</g>
		<rect x="-179" y="-77" width="9" height="6"/>
	</g>
</mask>
<rect x="-176" y="-82" opacity="0.15" mask="url(#SVGID_1_)" width="13" height="10"/>
<g>
	<path fill="#FFFFFF" d="M-24-146c0,1.65-1.35,3-3,3h-49c-1.65,0-3-1.35-3-3v-40c0-1.65,1.35-3,3-3h13.038
		c1.65,0,3.449,1.273,3.998,2.829l0.121,0.342c0.549,1.556,2.348,2.829,3.998,2.829H-27c1.65,0,3,1.35,3,3V-146z"/>
	<g>
		<path fill="#CCCCCC" d="M-62.962-188c1.221,0,2.649,1.01,3.055,2.162l0.121,0.342c0.692,1.961,2.862,3.496,4.941,3.496H-27
			c1.103,0,2,0.897,2,2v34c0,1.103-0.897,2-2,2h-49c-1.103,0-2-0.897-2-2v-40c0-1.103,0.897-2,2-2H-62.962 M-62.962-189H-76
			c-1.65,0-3,1.35-3,3v40c0,1.65,1.35,3,3,3h49c1.65,0,3-1.35,3-3v-34c0-1.65-1.35-3-3-3h-27.845c-1.65,0-3.449-1.273-3.998-2.829
			l-0.121-0.342C-59.512-187.727-61.312-189-62.962-189L-62.962-189z"/>
	</g>
</g>
<rect x="-78" y="-177" fill="#E5E5E5" width="53" height="1"/>
<g>
	<path fill="#FFFFFF" d="M-24-86c0,1.65-1.35,3-3,3h-49c-1.65,0-3-1.35-3-3v-40c0-1.65,1.35-3,3-3h13.038
		c1.65,0,3.449,1.273,3.998,2.829l0.121,0.342c0.549,1.556,2.348,2.829,3.998,2.829H-27c1.65,0,3,1.35,3,3V-86z"/>
	<g>
		<path fill="#CCCCCC" d="M-62.962-128c1.221,0,2.649,1.01,3.055,2.162l0.121,0.342c0.692,1.961,2.862,3.496,4.941,3.496H-27
			c1.103,0,2,0.897,2,2v34c0,1.103-0.897,2-2,2h-49c-1.103,0-2-0.897-2-2v-40c0-1.103,0.897-2,2-2H-62.962 M-62.962-129H-76
			c-1.65,0-3,1.35-3,3v40c0,1.65,1.35,3,3,3h49c1.65,0,3-1.35,3-3v-34c0-1.65-1.35-3-3-3h-27.845c-1.65,0-3.449-1.273-3.998-2.829
			l-0.121-0.342C-59.512-127.727-61.312-129-62.962-129L-62.962-129z"/>
	</g>
</g>
<rect x="-78" y="-117" fill="#E5E5E5" width="53" height="1"/>
<g>
	<path fill="#FFFFFF" d="M-24-26c0,1.65-1.35,3-3,3h-49c-1.65,0-3-1.35-3-3v-40c0-1.65,1.35-3,3-3h13.038
		c1.65,0,3.449,1.273,3.998,2.829l0.121,0.342C-58.294-64.273-56.495-63-54.845-63H-27c1.65,0,3,1.35,3,3V-26z"/>
	<g>
		<path fill="#CCCCCC" d="M-62.962-68c1.221,0,2.649,1.01,3.055,2.162l0.121,0.342C-59.095-63.536-56.924-62-54.845-62H-27
			c1.103,0,2,0.897,2,2v34c0,1.103-0.897,2-2,2h-49c-1.103,0-2-0.897-2-2v-40c0-1.103,0.897-2,2-2H-62.962 M-62.962-69H-76
			c-1.65,0-3,1.35-3,3v40c0,1.65,1.35,3,3,3h49c1.65,0,3-1.35,3-3v-34c0-1.65-1.35-3-3-3h-27.845c-1.65,0-3.449-1.273-3.998-2.829
			l-0.121-0.342C-59.512-67.727-61.312-69-62.962-69L-62.962-69z"/>
	</g>
</g>
<rect x="-78" y="-57" fill="#E5E5E5" width="53" height="1"/>
<g>
	<path fill="#999999" d="M-139-122v-3c0-0.55,0.45-1,1-1h4c0.55,0,1,0.45,1,1v3"/>
</g>
<g>
	<path fill="#999999" d="M-37-90v-4c0-1.1,0.9-2,2-2h3c1.1,0,2,0.9,2,2v4"/>
</g>
<defs>
	<filter id="Adobe_OpacityMaskFilter_1_" filterUnits="userSpaceOnUse" x="26" y="-229" width="20" height="26">
		<feFlood  style="flood-color:white;flood-opacity:1" result="back"/>
		<feBlend  in="SourceGraphic" in2="back" mode="normal"/>
	</filter>
</defs>
<mask maskUnits="userSpaceOnUse" x="26" y="-229" width="20" height="26" id="SVGID_2_">
	<g filter="url(#Adobe_OpacityMaskFilter_1_)">
		<g>
			<polygon points="46,-221 46,-229 38,-229 			"/>
		</g>
	</g>
</mask>
<g mask="url(#SVGID_2_)">
	<path fill="#FFFFFF" d="M45-203H27c-0.552,0-1-0.448-1-1v-24c0-0.552,0.448-1,1-1h18c0.552,0,1,0.448,1,1v24
		C46-203.448,45.552-203,45-203z"/>
	<g>
		<path fill="#CCCCCC" d="M45-228v24H27v-24H45 M45-229H27c-0.552,0-1,0.448-1,1v24c0,0.552,0.448,1,1,1h18c0.552,0,1-0.448,1-1v-24
			C46-228.552,45.552-229,45-229L45-229z"/>
	</g>
</g>
<g>
	<path fill="#CCCCCC" d="M39-226.586L43.586-222h-4.172L39-222.414V-226.586 M38-229v7l1,1h7L38-229L38-229z"/>
</g>
<rect x="26" y="-229" fill="none" width="20" height="26"/>
<g>
	<path fill="#CCCCCC" d="M45-164H27v-24h11v-1H27c-0.552,0-1,0.448-1,1v24c0,0.552,0.448,1,1,1h18c0.552,0,1-0.448,1-1v-17h-1V-164z
		"/>
</g>
<g>
	<path fill="#CCCCCC" d="M39-187.586L44.586-182H39V-187.586 M38.5-189c-0.275,0-0.5,0.45-0.5,1v6c0,0.55,0.45,1,1,1h6
		c0.55,0,1-0.225,1-0.5s-0.318-0.818-0.707-1.207l-5.586-5.586C39.318-188.682,38.775-189,38.5-189L38.5-189z"/>
</g>
<g>
	<path fill="#CCCCCC" d="M44-134H26v-24h11v-1H26c-0.552,0-1,0.448-1,1v24c0,0.552,0.448,1,1,1h18c0.552,0,1-0.448,1-1v-17h-1V-134z
		"/>
</g>
<g>
	<path fill="#CCCCCC" d="M38-157.586L43.586-152H38V-157.586 M37.5-159c-0.275,0-0.5,0.45-0.5,1v6c0,0.55,0.45,1,1,1h6
		c0.55,0,1-0.225,1-0.5s-0.318-0.818-0.707-1.207l-5.586-5.586C38.318-158.682,37.775-159,37.5-159L37.5-159z"/>
</g>
<path d="M187-159h-26c-1.1,0-2-0.9-2-2v-1c0-1.1,0.9-2,2-2h26c1.1,0,2,0.9,2,2v1C189-159.9,188.1-159,187-159z"/>
<rect x="256" y="-87" width="18" height="2"/>
<rect x="256" y="-81" width="18" height="2"/>
<rect x="256" y="-75" width="18" height="2"/>
<rect x="251" y="-81" width="3" height="2"/>
<rect x="251" y="-87" width="3" height="2"/>
<rect x="251" y="-75" width="3" height="2"/>
<rect x="251" y="-87" fill="none" width="23" height="14"/>
<path fill="none" stroke="#999999" stroke-miterlimit="10" d="M-134.5-126v-1c0-0.828-0.672-1.5-1.5-1.5s-1.5,0.672-1.5,1.5v1"/>
<g>
	<path fill="#CCCCCC" d="M-139-72v-3c0-0.55,0.45-1,1-1h4c0.55,0,1,0.45,1,1v3"/>
</g>
<path fill="none" stroke="#CCCCCC" stroke-miterlimit="10" d="M-137.5-76v-1c0-0.828-0.672-1.5-1.5-1.5s-1.5,0.672-1.5,1.5v1"/>
<g>
	<g>
		<path fill="#FFFFFF" d="M-197,33c0,2.2-1.8,4-4,4h-44c-2.2,0-4-1.8-4-4V-1c0-2.2,1.8-4,4-4h10c2.2,0,4.45,0.9,5,2
			c0.55,1.1,2.8,2,5.001,2H-201c2.2,0,4,1.8,4,4V33z"/>
		<g>
			<path fill="#CCCCCC" d="M-235-3c1.585,0,2.946,0.61,3.234,0.938c1.043,2.01,4.184,3.062,6.767,3.062H-201c1.103,0,2,0.897,2,2v30
				c0,1.103-0.897,2-2,2h-44c-1.103,0-2-0.897-2-2V-1c0-1.103,0.897-2,2-2H-235 M-235-5h-10c-2.2,0-4,1.8-4,4v34c0,2.2,1.8,4,4,4h44
				c2.2,0,4-1.8,4-4V3c0-2.2-1.8-4-4-4h-23.999c-2.2,0-4.45-0.9-5-2C-230.55-4.1-232.8-5-235-5L-235-5z"/>
		</g>
	</g>
	<g>
		<rect x="-247" y="7" fill="#E5E5E5" width="48" height="2"/>
	</g>
</g>
<g>
	<path fill="#999999" d="M-217,27v-6c0-1.1,0.9-2,2-2h8c1.1,0,2,0.9,2,2v6"/>
</g>
<path fill="none" stroke="#999999" stroke-width="2" stroke-miterlimit="10" d="M-208,19v-2c0-1.657-1.343-3-3-3s-3,1.343-3,3v2"/>
<path fill="none" stroke="#999999" stroke-miterlimit="10" d="M-31.5-96v-1.5c0-1.105-0.895-2-2-2s-2,0.895-2,2v1.5"/>
<rect x="-49" y="6" width="17" height="2"/>
<polyline fill="none" stroke="#000000" stroke-width="2" stroke-miterlimit="10" points="-44,1 -50,7 -44,13 "/>
<rect y="6" width="17" height="2"/>
<polyline fill="none" stroke="#000000" stroke-width="2" stroke-miterlimit="10" points="12,1 18,7 12,13 "/>
<g>
	<g>
		<g>
			<path fill="#FFFFFF" d="M118-128H75.5c-1.375,0-2.5-1.125-2.5-2.5V-189"/>
		</g>
		<path fill="#CCCCCC" d="M117-174v43.5c0,0.827-0.673,1.5-1.5,1.5h-40c-0.827,0-1.5-0.673-1.5-1.5v-56c0-0.827,0.673-1.5,1.5-1.5
			H103v-1l0,0H75.5c-1.375,0-2.5,1.125-2.5,2.5v56c0,1.375,1.125,2.5,2.5,2.5h40c1.375,0,2.5-1.125,2.5-2.5V-174H117z"/>
	</g>
</g>
<g>
	<path fill="#CCCCCC" d="M104-187.586L104-187.586L116.586-175c0,0,0,0,0,0H104V-187.586 M103.5-189c-0.275,0-0.5,0.45-0.5,1v13
		c0,0.55,0.45,1,1,1h13c0.55,0,1-0.225,1-0.5s-0.318-0.818-0.707-1.207l-12.586-12.586C104.318-188.682,103.775-189,103.5-189
		L103.5-189z"/>
</g>
<rect x="-52" fill="none" width="20" height="14"/>
<rect fill="none" width="20" height="14"/>
</svg>
