<?xml version="1.0" encoding="utf-8"?>
<!-- Generator: Adobe Illustrator 18.0.0, SVG Export Plug-In . SVG Version: 6.00 Build 0)  -->
<!DOCTYPE svg PUBLIC "-//W3C//DTD SVG 1.1//EN" "http://www.w3.org/Graphics/SVG/1.1/DTD/svg11.dtd">
<svg version="1.1" id="Layer_1" xmlns="http://www.w3.org/2000/svg" xmlns:xlink="http://www.w3.org/1999/xlink" x="0px" y="0px"
	 width="30px" height="5px" viewBox="0 0 30 5" enable-background="new 0 0 30 5" xml:space="preserve">
<g>
	<g>
		<path fill="#FFFFFF" d="M-288-6c0,1.1-0.9,2-2,2h-22c-1.1,0-2-0.9-2-2v-17c0-1.1,0.9-2,2-2h5c1.1,0,2.225,0.45,2.5,1s1.4,1,2.5,1
			h12c1.1,0,2,0.9,2,2V-6z"/>
		<g>
			<path fill="#CCCCCC" d="M-307-24c0.805,0,1.495,0.315,1.606,0.447C-304.884-22.533-303.3-22-302-22h12c0.551,0,1,0.449,1,1v15
				c0,0.551-0.449,1-1,1h-22c-0.551,0-1-0.449-1-1v-17c0-0.551,0.449-1,1-1H-307 M-307-25h-5c-1.1,0-2,0.9-2,2v17c0,1.1,0.9,2,2,2
				h22c1.1,0,2-0.9,2-2v-15c0-1.1-0.9-2-2-2h-12c-1.1,0-2.225-0.45-2.5-1S-305.9-25-307-25L-307-25z"/>
		</g>
	</g>
	<g>
		<path fill="#E5E5E5" d="M-289-18.485c0,0.267-0.218,0.485-0.485,0.485h-23.03c-0.267,0-0.485-0.218-0.485-0.485v-0.03
			c0-0.267,0.218-0.485,0.485-0.485h23.03c0.267,0,0.485,0.218,0.485,0.485V-18.485z"/>
	</g>
</g>
<g>
	<g>
		<path fill="#FFFFFF" d="M-288,44c0,1.1-0.9,2-2,2h-22c-1.1,0-2-0.9-2-2V27c0-1.1,0.9-2,2-2h5c1.1,0,2.225,0.45,2.5,1s1.4,1,2.5,1
			h12c1.1,0,2,0.9,2,2V44z"/>
		<g>
			<path fill="#CCCCCC" d="M-307,26c0.805,0,1.495,0.315,1.606,0.447C-304.884,27.467-303.3,28-302,28h12c0.551,0,1,0.449,1,1v15
				c0,0.551-0.449,1-1,1h-22c-0.551,0-1-0.449-1-1V27c0-0.551,0.449-1,1-1H-307 M-307,25h-5c-1.1,0-2,0.9-2,2v17c0,1.1,0.9,2,2,2h22
				c1.1,0,2-0.9,2-2V29c0-1.1-0.9-2-2-2h-12c-1.1,0-2.225-0.45-2.5-1S-305.9,25-307,25L-307,25z"/>
		</g>
	</g>
	<g>
		<path fill="#E5E5E5" d="M-289,31.515c0,0.267-0.218,0.485-0.485,0.485h-23.03c-0.267,0-0.485-0.218-0.485-0.485v-0.03
			c0-0.267,0.218-0.485,0.485-0.485h23.03c0.267,0,0.485,0.218,0.485,0.485V31.515z"/>
	</g>
</g>
<g>
	<g>
		<path fill="#FFFFFF" d="M-288,94c0,1.1-0.9,2-2,2h-22c-1.1,0-2-0.9-2-2V77c0-1.1,0.9-2,2-2h5c1.1,0,2.225,0.45,2.5,1s1.4,1,2.5,1
			h12c1.1,0,2,0.9,2,2V94z"/>
		<g>
			<path fill="#CCCCCC" d="M-307,76c0.805,0,1.495,0.315,1.606,0.447C-304.884,77.467-303.3,78-302,78h12c0.551,0,1,0.449,1,1v15
				c0,0.551-0.449,1-1,1h-22c-0.551,0-1-0.449-1-1V77c0-0.551,0.449-1,1-1H-307 M-307,75h-5c-1.1,0-2,0.9-2,2v17c0,1.1,0.9,2,2,2h22
				c1.1,0,2-0.9,2-2V79c0-1.1-0.9-2-2-2h-12c-1.1,0-2.225-0.45-2.5-1S-305.9,75-307,75L-307,75z"/>
		</g>
	</g>
	<g>
		<path fill="#E5E5E5" d="M-289,81.515c0,0.267-0.218,0.485-0.485,0.485h-23.03c-0.267,0-0.485-0.218-0.485-0.485v-0.03
			c0-0.267,0.218-0.485,0.485-0.485h23.03c0.267,0,0.485,0.218,0.485,0.485V81.515z"/>
	</g>
</g>
<defs>
	<filter id="Adobe_OpacityMaskFilter" filterUnits="userSpaceOnUse" x="-305" y="82" width="13" height="10">
		<feColorMatrix  type="matrix" values="1 0 0 0 0  0 1 0 0 0  0 0 1 0 0  0 0 0 1 0"/>
	</filter>
</defs>
<mask maskUnits="userSpaceOnUse" x="-305" y="82" width="13" height="10" id="SVGID_1_">
	<g filter="url(#Adobe_OpacityMaskFilter)">
		<g>
			<path fill="#FFFFFF" d="M-299.5,85c0.786,0,1.425,0.639,1.425,1.425c0,0.786-0.639,1.425-1.425,1.425s-1.425-0.639-1.425-1.425
				C-300.925,85.639-300.286,85-299.5,85 M-299.5,84c-1.34,0-2.425,1.085-2.425,2.425c0,1.34,1.085,2.425,2.425,2.425
				s2.425-1.085,2.425-2.425C-297.075,85.085-298.16,84-299.5,84L-299.5,84z"/>
		</g>
		<g>
			<rect x="-299" y="87" fill="#FFFFFF" width="7" height="5"/>
		</g>
		<rect x="-308" y="87" width="9" height="6"/>
	</g>
</mask>
<rect x="-305" y="82" opacity="0.15" mask="url(#SVGID_1_)" width="13" height="10"/>
<g>
	<path fill="#FFFFFF" d="M-183,18c0,1.65-1.35,3-3,3h-49c-1.65,0-3-1.35-3-3v-40c0-1.65,1.35-3,3-3h13.038
		c1.65,0,3.449,1.273,3.998,2.829l0.121,0.342c0.549,1.556,2.348,2.829,3.998,2.829H-186c1.65,0,3,1.35,3,3V18z"/>
	<g>
		<path fill="#CCCCCC" d="M-221.962-24c1.221,0,2.649,1.01,3.055,2.162l0.121,0.342c0.692,1.961,2.862,3.496,4.941,3.496H-186
			c1.103,0,2,0.897,2,2v34c0,1.103-0.897,2-2,2h-49c-1.103,0-2-0.897-2-2v-40c0-1.103,0.897-2,2-2H-221.962 M-221.962-25H-235
			c-1.65,0-3,1.35-3,3v40c0,1.65,1.35,3,3,3h49c1.65,0,3-1.35,3-3v-34c0-1.65-1.35-3-3-3h-27.845c-1.65,0-3.449-1.273-3.998-2.829
			l-0.121-0.342C-218.512-23.727-220.312-25-221.962-25L-221.962-25z"/>
	</g>
</g>
<rect x="-237" y="-13" fill="#E5E5E5" width="53" height="1"/>
<g>
	<path fill="#FFFFFF" d="M-183,78c0,1.65-1.35,3-3,3h-49c-1.65,0-3-1.35-3-3V38c0-1.65,1.35-3,3-3h13.038
		c1.65,0,3.449,1.273,3.998,2.829l0.121,0.342c0.549,1.556,2.348,2.829,3.998,2.829H-186c1.65,0,3,1.35,3,3V78z"/>
	<g>
		<path fill="#CCCCCC" d="M-221.962,36c1.221,0,2.649,1.01,3.055,2.162l0.121,0.342c0.692,1.961,2.862,3.496,4.941,3.496H-186
			c1.103,0,2,0.897,2,2v34c0,1.103-0.897,2-2,2h-49c-1.103,0-2-0.897-2-2V38c0-1.103,0.897-2,2-2H-221.962 M-221.962,35H-235
			c-1.65,0-3,1.35-3,3v40c0,1.65,1.35,3,3,3h49c1.65,0,3-1.35,3-3V44c0-1.65-1.35-3-3-3h-27.845c-1.65,0-3.449-1.273-3.998-2.829
			l-0.121-0.342C-218.512,36.273-220.312,35-221.962,35L-221.962,35z"/>
	</g>
</g>
<rect x="-237" y="47" fill="#E5E5E5" width="53" height="1"/>
<g>
	<path fill="#FFFFFF" d="M-183,138c0,1.65-1.35,3-3,3h-49c-1.65,0-3-1.35-3-3V98c0-1.65,1.35-3,3-3h13.038
		c1.65,0,3.449,1.273,3.998,2.829l0.121,0.342c0.549,1.556,2.348,2.829,3.998,2.829H-186c1.65,0,3,1.35,3,3V138z"/>
	<g>
		<path fill="#CCCCCC" d="M-221.962,96c1.221,0,2.649,1.01,3.055,2.162l0.121,0.342c0.692,1.961,2.862,3.496,4.941,3.496H-186
			c1.103,0,2,0.897,2,2v34c0,1.103-0.897,2-2,2h-49c-1.103,0-2-0.897-2-2V98c0-1.103,0.897-2,2-2H-221.962 M-221.962,95H-235
			c-1.65,0-3,1.35-3,3v40c0,1.65,1.35,3,3,3h49c1.65,0,3-1.35,3-3v-34c0-1.65-1.35-3-3-3h-27.845c-1.65,0-3.449-1.273-3.998-2.829
			l-0.121-0.342C-218.512,96.273-220.312,95-221.962,95L-221.962,95z"/>
	</g>
</g>
<rect x="-237" y="107" fill="#E5E5E5" width="53" height="1"/>
<defs>
	<filter id="Adobe_OpacityMaskFilter_1_" filterUnits="userSpaceOnUse" x="-205" y="123" width="17" height="12">
		<feColorMatrix  type="matrix" values="1 0 0 0 0  0 1 0 0 0  0 0 1 0 0  0 0 0 1 0"/>
	</filter>
</defs>
<mask maskUnits="userSpaceOnUse" x="-205" y="123" width="17" height="12" id="SVGID_2_">
	<g filter="url(#Adobe_OpacityMaskFilter_1_)">
		<g>
			<path fill="#FFFFFF" d="M-199.5,125.525c1.048,0,1.9,0.852,1.9,1.9s-0.852,1.9-1.9,1.9s-1.9-0.852-1.9-1.9
				S-200.548,125.525-199.5,125.525 M-199.5,124.025c-1.879,0-3.4,1.521-3.4,3.4c0,1.879,1.521,3.4,3.4,3.4s3.4-1.521,3.4-3.4
				C-196.1,125.546-197.621,124.025-199.5,124.025L-199.5,124.025z"/>
		</g>
		<g>
			<rect x="-198" y="128" fill="#FFFFFF" width="9" height="6"/>
		</g>
		<g>
			<rect x="-207" y="128" width="9" height="6"/>
		</g>
	</g>
</mask>
<rect x="-205" y="123" opacity="0.15" mask="url(#SVGID_2_)" width="17" height="12"/>
<g>
	<path fill="#999999" d="M-295.5,35c0.786,0,1.425,0.639,1.425,1.425s-0.639,1.425-1.425,1.425s-1.425-0.639-1.425-1.425
		S-296.286,35-295.5,35 M-295.5,34c-1.34,0-2.425,1.085-2.425,2.425s1.085,2.425,2.425,2.425s2.425-1.085,2.425-2.425
		S-294.16,34-295.5,34L-295.5,34z"/>
</g>
<g>
	<rect x="-299" y="37" fill="#999999" width="7" height="5"/>
</g>
<g>
	<path fill="#999999" d="M-193.5,65.525c1.048,0,1.9,0.852,1.9,1.9c0,1.048-0.852,1.9-1.9,1.9s-1.9-0.852-1.9-1.9
		C-195.4,66.377-194.548,65.525-193.5,65.525 M-193.5,64.025c-1.879,0-3.4,1.521-3.4,3.4c0,1.879,1.521,3.4,3.4,3.4
		s3.4-1.521,3.4-3.4C-190.1,65.546-191.621,64.025-193.5,64.025L-193.5,64.025z"/>
</g>
<g>
	<rect x="-198" y="68" fill="#999999" width="9" height="6"/>
</g>
<defs>
	<filter id="Adobe_OpacityMaskFilter_2_" filterUnits="userSpaceOnUse" x="-133" y="-25" width="20" height="26">
		<feFlood  style="flood-color:white;flood-opacity:1" result="back"/>
		<feBlend  in="SourceGraphic" in2="back" mode="normal"/>
	</filter>
</defs>
<mask maskUnits="userSpaceOnUse" x="-133" y="-25" width="20" height="26" id="SVGID_3_">
	<g filter="url(#Adobe_OpacityMaskFilter_2_)">
		<g>
			<polygon points="-113,-17 -113,-25 -121,-25 			"/>
		</g>
	</g>
</mask>
<g mask="url(#SVGID_3_)">
	<path fill="#FFFFFF" d="M-114,1h-18c-0.552,0-1-0.448-1-1v-24c0-0.552,0.448-1,1-1h18c0.552,0,1,0.448,1,1V0
		C-113,0.552-113.448,1-114,1z"/>
	<g>
		<path fill="#CCCCCC" d="M-114-24V0h-18v-24H-114 M-114-25h-18c-0.552,0-1,0.448-1,1V0c0,0.552,0.448,1,1,1h18c0.552,0,1-0.448,1-1
			v-24C-113-24.552-113.448-25-114-25L-114-25z"/>
	</g>
</g>
<g>
	<path fill="#CCCCCC" d="M-120-22.586l4.586,4.586h-4.172L-120-18.414V-22.586 M-121-25v7l1,1h7L-121-25L-121-25z"/>
</g>
<defs>
	<filter id="Adobe_OpacityMaskFilter_3_" filterUnits="userSpaceOnUse" x="-86" y="-25" width="45" height="61">
		<feFlood  style="flood-color:white;flood-opacity:1" result="back"/>
		<feBlend  in="SourceGraphic" in2="back" mode="normal"/>
	</filter>
</defs>
<mask maskUnits="userSpaceOnUse" x="-86" y="-25" width="45" height="61" id="SVGID_4_">
	<g filter="url(#Adobe_OpacityMaskFilter_3_)">
		<polyline points="-57,-25 -41,-25 -41,-9 		"/>
	</g>
</mask>
<g mask="url(#SVGID_4_)">
	<path fill="#FFFFFF" d="M-83.5,35.5c-1.103,0-2-0.897-2-2v-56c0-1.103,0.897-2,2-2h40c1.103,0,2,0.897,2,2v56c0,1.103-0.897,2-2,2
		H-83.5z"/>
	<path fill="#CCCCCC" d="M-43.5-24c0.827,0,1.5,0.673,1.5,1.5v56c0,0.827-0.673,1.5-1.5,1.5h-40c-0.827,0-1.5-0.673-1.5-1.5v-56
		c0-0.827,0.673-1.5,1.5-1.5H-43.5 M-43.5-25h-40c-1.375,0-2.5,1.125-2.5,2.5v56c0,1.375,1.125,2.5,2.5,2.5h40
		c1.375,0,2.5-1.125,2.5-2.5v-56C-41-23.875-42.125-25-43.5-25L-43.5-25z"/>
</g>
<g>
	<polygon fill="#FFFFFF" points="-53.897,-9.5 -55.719,-10.281 -56.5,-12.103 -56.5,-23.793 -42.207,-9.5 	"/>
	<path fill="#CCCCCC" d="M-56-22.586L-43.414-10h-10.381l-1.544-0.662L-56-12.205V-22.586 M-57-25v13l0.9,2.1L-54-9h13L-57-25
		L-57-25z"/>
</g>
<rect x="-133" y="-25" fill="none" width="20" height="26"/>
<rect x="-86" y="-25" fill="none" width="45" height="61"/>
<path d="M28,5H2C0.9,5,0,4.1,0,3V2c0-1.1,0.9-2,2-2l26,0c1.1,0,2,0.9,2,2v1C30,4.1,29.1,5,28,5z"/>
</svg>
