<?xml version="1.0" encoding="utf-8"?>
<!-- Generator: Adobe Illustrator 18.0.0, SVG Export Plug-In . SVG Version: 6.00 Build 0)  -->
<!DOCTYPE svg PUBLIC "-//W3C//DTD SVG 1.1//EN" "http://www.w3.org/Graphics/SVG/1.1/DTD/svg11.dtd">
<svg version="1.1" id="Layer_1" xmlns="http://www.w3.org/2000/svg" xmlns:xlink="http://www.w3.org/1999/xlink" x="0px" y="0px"
	 width="7px" height="6px" viewBox="0 0 7 6" enable-background="new 0 0 7 6" xml:space="preserve">
<g>
	<g>
		<path fill="#FFFFFF" d="M-331-48c0,1.1-0.9,2-2,2h-22c-1.1,0-2-0.9-2-2v-17c0-1.1,0.9-2,2-2h5c1.1,0,2.225,0.45,2.5,1s1.4,1,2.5,1
			h12c1.1,0,2,0.9,2,2V-48z"/>
		<g>
			<path fill="#CCCCCC" d="M-350-66c0.805,0,1.495,0.315,1.606,0.447C-347.884-64.533-346.3-64-345-64h12c0.551,0,1,0.449,1,1v15
				c0,0.551-0.449,1-1,1h-22c-0.551,0-1-0.449-1-1v-17c0-0.551,0.449-1,1-1H-350 M-350-67h-5c-1.1,0-2,0.9-2,2v17c0,1.1,0.9,2,2,2
				h22c1.1,0,2-0.9,2-2v-15c0-1.1-0.9-2-2-2h-12c-1.1,0-2.225-0.45-2.5-1S-348.9-67-350-67L-350-67z"/>
		</g>
	</g>
	<g>
		<path fill="#E5E5E5" d="M-332-60.485c0,0.267-0.218,0.485-0.485,0.485h-23.03c-0.267,0-0.485-0.218-0.485-0.485v-0.03
			c0-0.267,0.218-0.485,0.485-0.485h23.03c0.267,0,0.485,0.218,0.485,0.485V-60.485z"/>
	</g>
</g>
<g>
	<g>
		<path fill="#FFFFFF" d="M-331,2c0,1.1-0.9,2-2,2h-22c-1.1,0-2-0.9-2-2v-17c0-1.1,0.9-2,2-2h5c1.1,0,2.225,0.45,2.5,1
			c0.275,0.55,1.4,1,2.5,1h12c1.1,0,2,0.9,2,2V2z"/>
		<g>
			<path fill="#CCCCCC" d="M-350-16c0.805,0,1.495,0.315,1.606,0.447C-347.884-14.533-346.3-14-345-14h12c0.551,0,1,0.449,1,1V2
				c0,0.551-0.449,1-1,1h-22c-0.551,0-1-0.449-1-1v-17c0-0.551,0.449-1,1-1H-350 M-350-17h-5c-1.1,0-2,0.9-2,2V2c0,1.1,0.9,2,2,2h22
				c1.1,0,2-0.9,2-2v-15c0-1.1-0.9-2-2-2h-12c-1.1,0-2.225-0.45-2.5-1S-348.9-17-350-17L-350-17z"/>
		</g>
	</g>
	<g>
		<path fill="#E5E5E5" d="M-332-10.485c0,0.267-0.218,0.485-0.485,0.485h-23.03c-0.267,0-0.485-0.218-0.485-0.485v-0.03
			c0-0.267,0.218-0.485,0.485-0.485h23.03c0.267,0,0.485,0.218,0.485,0.485V-10.485z"/>
	</g>
</g>
<g>
	<g>
		<path fill="#FFFFFF" d="M-331,52c0,1.1-0.9,2-2,2h-22c-1.1,0-2-0.9-2-2V35c0-1.1,0.9-2,2-2h5c1.1,0,2.225,0.45,2.5,1s1.4,1,2.5,1
			h12c1.1,0,2,0.9,2,2V52z"/>
		<g>
			<path fill="#CCCCCC" d="M-350,34c0.805,0,1.495,0.315,1.606,0.447C-347.884,35.467-346.3,36-345,36h12c0.551,0,1,0.449,1,1v15
				c0,0.551-0.449,1-1,1h-22c-0.551,0-1-0.449-1-1V35c0-0.551,0.449-1,1-1H-350 M-350,33h-5c-1.1,0-2,0.9-2,2v17c0,1.1,0.9,2,2,2h22
				c1.1,0,2-0.9,2-2V37c0-1.1-0.9-2-2-2h-12c-1.1,0-2.225-0.45-2.5-1S-348.9,33-350,33L-350,33z"/>
		</g>
	</g>
	<g>
		<path fill="#E5E5E5" d="M-332,39.515c0,0.267-0.218,0.485-0.485,0.485h-23.03c-0.267,0-0.485-0.218-0.485-0.485v-0.03
			c0-0.267,0.218-0.485,0.485-0.485h23.03c0.267,0,0.485,0.218,0.485,0.485V39.515z"/>
	</g>
</g>
<defs>
	<filter id="Adobe_OpacityMaskFilter" filterUnits="userSpaceOnUse" x="-348" y="40" width="13" height="10">
		<feColorMatrix  type="matrix" values="1 0 0 0 0  0 1 0 0 0  0 0 1 0 0  0 0 0 1 0"/>
	</filter>
</defs>
<mask maskUnits="userSpaceOnUse" x="-348" y="40" width="13" height="10" id="SVGID_1_">
	<g filter="url(#Adobe_OpacityMaskFilter)">
		<g>
			<path fill="#FFFFFF" d="M-342.5,43c0.786,0,1.425,0.639,1.425,1.425s-0.639,1.425-1.425,1.425s-1.425-0.639-1.425-1.425
				S-343.286,43-342.5,43 M-342.5,42c-1.34,0-2.425,1.085-2.425,2.425s1.085,2.425,2.425,2.425s2.425-1.085,2.425-2.425
				S-341.16,42-342.5,42L-342.5,42z"/>
		</g>
		<g>
			<rect x="-342" y="45" fill="#FFFFFF" width="7" height="5"/>
		</g>
		<rect x="-351" y="45" width="9" height="6"/>
	</g>
</mask>
<rect x="-348" y="40" opacity="0.15" mask="url(#SVGID_1_)" width="13" height="10"/>
<g>
	<path fill="#FFFFFF" d="M-226-24c0,1.65-1.35,3-3,3h-49c-1.65,0-3-1.35-3-3v-40c0-1.65,1.35-3,3-3h13.038
		c1.65,0,3.449,1.273,3.998,2.829l0.121,0.342c0.549,1.556,2.348,2.829,3.998,2.829H-229c1.65,0,3,1.35,3,3V-24z"/>
	<g>
		<path fill="#CCCCCC" d="M-264.962-66c1.221,0,2.649,1.01,3.055,2.162l0.121,0.342c0.692,1.961,2.862,3.496,4.941,3.496H-229
			c1.103,0,2,0.897,2,2v34c0,1.103-0.897,2-2,2h-49c-1.103,0-2-0.897-2-2v-40c0-1.103,0.897-2,2-2H-264.962 M-264.962-67H-278
			c-1.65,0-3,1.35-3,3v40c0,1.65,1.35,3,3,3h49c1.65,0,3-1.35,3-3v-34c0-1.65-1.35-3-3-3h-27.845c-1.65,0-3.449-1.273-3.998-2.829
			l-0.121-0.342C-261.512-65.727-263.312-67-264.962-67L-264.962-67z"/>
	</g>
</g>
<rect x="-280" y="-55" fill="#E5E5E5" width="53" height="1"/>
<g>
	<path fill="#FFFFFF" d="M-226,36c0,1.65-1.35,3-3,3h-49c-1.65,0-3-1.35-3-3V-4c0-1.65,1.35-3,3-3h13.038
		c1.65,0,3.449,1.273,3.998,2.829l0.121,0.342C-260.294-2.273-258.495-1-256.845-1H-229c1.65,0,3,1.35,3,3V36z"/>
	<g>
		<path fill="#CCCCCC" d="M-264.962-6c1.221,0,2.649,1.01,3.055,2.162l0.121,0.342C-261.095-1.536-258.924,0-256.845,0H-229
			c1.103,0,2,0.897,2,2v34c0,1.103-0.897,2-2,2h-49c-1.103,0-2-0.897-2-2V-4c0-1.103,0.897-2,2-2H-264.962 M-264.962-7H-278
			c-1.65,0-3,1.35-3,3v40c0,1.65,1.35,3,3,3h49c1.65,0,3-1.35,3-3V2c0-1.65-1.35-3-3-3h-27.845c-1.65,0-3.449-1.273-3.998-2.829
			l-0.121-0.342C-261.512-5.727-263.312-7-264.962-7L-264.962-7z"/>
	</g>
</g>
<rect x="-280" y="5" fill="#E5E5E5" width="53" height="1"/>
<g>
	<path fill="#FFFFFF" d="M-226,96c0,1.65-1.35,3-3,3h-49c-1.65,0-3-1.35-3-3V56c0-1.65,1.35-3,3-3h13.038
		c1.65,0,3.449,1.273,3.998,2.829l0.121,0.342c0.549,1.556,2.348,2.829,3.998,2.829H-229c1.65,0,3,1.35,3,3V96z"/>
	<g>
		<path fill="#CCCCCC" d="M-264.962,54c1.221,0,2.649,1.01,3.055,2.162l0.121,0.342c0.692,1.961,2.862,3.496,4.941,3.496H-229
			c1.103,0,2,0.897,2,2v34c0,1.103-0.897,2-2,2h-49c-1.103,0-2-0.897-2-2V56c0-1.103,0.897-2,2-2H-264.962 M-264.962,53H-278
			c-1.65,0-3,1.35-3,3v40c0,1.65,1.35,3,3,3h49c1.65,0,3-1.35,3-3V62c0-1.65-1.35-3-3-3h-27.845c-1.65,0-3.449-1.273-3.998-2.829
			l-0.121-0.342C-261.512,54.273-263.312,53-264.962,53L-264.962,53z"/>
	</g>
</g>
<rect x="-280" y="65" fill="#E5E5E5" width="53" height="1"/>
<defs>
	<filter id="Adobe_OpacityMaskFilter_1_" filterUnits="userSpaceOnUse" x="-248" y="81" width="17" height="12">
		<feColorMatrix  type="matrix" values="1 0 0 0 0  0 1 0 0 0  0 0 1 0 0  0 0 0 1 0"/>
	</filter>
</defs>
<mask maskUnits="userSpaceOnUse" x="-248" y="81" width="17" height="12" id="SVGID_2_">
	<g filter="url(#Adobe_OpacityMaskFilter_1_)">
		<g>
			<path fill="#FFFFFF" d="M-242.5,83.525c1.048,0,1.9,0.852,1.9,1.9s-0.852,1.9-1.9,1.9s-1.9-0.852-1.9-1.9
				S-243.548,83.525-242.5,83.525 M-242.5,82.025c-1.879,0-3.4,1.521-3.4,3.4s1.521,3.4,3.4,3.4s3.4-1.521,3.4-3.4
				S-240.621,82.025-242.5,82.025L-242.5,82.025z"/>
		</g>
		<g>
			<rect x="-241" y="86" fill="#FFFFFF" width="9" height="6"/>
		</g>
		<g>
			<rect x="-250" y="86" width="9" height="6"/>
		</g>
	</g>
</mask>
<rect x="-248" y="81" opacity="0.15" mask="url(#SVGID_2_)" width="17" height="12"/>
<g>
	<path fill="#999999" d="M-338.5-7c0.786,0,1.425,0.639,1.425,1.425c0,0.786-0.639,1.425-1.425,1.425s-1.425-0.639-1.425-1.425
		C-339.925-6.361-339.286-7-338.5-7 M-338.5-8c-1.34,0-2.425,1.085-2.425,2.425s1.085,2.425,2.425,2.425s2.425-1.085,2.425-2.425
		S-337.16-8-338.5-8L-338.5-8z"/>
</g>
<g>
	<rect x="-342" y="-5" fill="#999999" width="7" height="5"/>
</g>
<g>
	<path fill="#999999" d="M-236.5,23.525c1.048,0,1.9,0.852,1.9,1.9s-0.852,1.9-1.9,1.9s-1.9-0.852-1.9-1.9
		S-237.548,23.525-236.5,23.525 M-236.5,22.025c-1.879,0-3.4,1.521-3.4,3.4s1.521,3.4,3.4,3.4s3.4-1.521,3.4-3.4
		S-234.621,22.025-236.5,22.025L-236.5,22.025z"/>
</g>
<g>
	<rect x="-241" y="26" fill="#999999" width="9" height="6"/>
</g>
<defs>
	<filter id="Adobe_OpacityMaskFilter_2_" filterUnits="userSpaceOnUse" x="-176" y="-67" width="20" height="26">
		<feFlood  style="flood-color:white;flood-opacity:1" result="back"/>
		<feBlend  in="SourceGraphic" in2="back" mode="normal"/>
	</filter>
</defs>
<mask maskUnits="userSpaceOnUse" x="-176" y="-67" width="20" height="26" id="SVGID_3_">
	<g filter="url(#Adobe_OpacityMaskFilter_2_)">
		<g>
			<polygon points="-156,-59 -156,-67 -164,-67 			"/>
		</g>
	</g>
</mask>
<g mask="url(#SVGID_3_)">
	<path fill="#FFFFFF" d="M-157-41h-18c-0.552,0-1-0.448-1-1v-24c0-0.552,0.448-1,1-1h18c0.552,0,1,0.448,1,1v24
		C-156-41.448-156.448-41-157-41z"/>
	<g>
		<path fill="#CCCCCC" d="M-157-66v24h-18v-24H-157 M-157-67h-18c-0.552,0-1,0.448-1,1v24c0,0.552,0.448,1,1,1h18
			c0.552,0,1-0.448,1-1v-24C-156-66.552-156.448-67-157-67L-157-67z"/>
	</g>
</g>
<g>
	<path fill="#CCCCCC" d="M-163-64.586l4.586,4.586h-4.172L-163-60.414V-64.586 M-164-67v7l1,1h7L-164-67L-164-67z"/>
</g>
<defs>
	<filter id="Adobe_OpacityMaskFilter_3_" filterUnits="userSpaceOnUse" x="-129" y="-67" width="45" height="61">
		<feFlood  style="flood-color:white;flood-opacity:1" result="back"/>
		<feBlend  in="SourceGraphic" in2="back" mode="normal"/>
	</filter>
</defs>
<mask maskUnits="userSpaceOnUse" x="-129" y="-67" width="45" height="61" id="SVGID_4_">
	<g filter="url(#Adobe_OpacityMaskFilter_3_)">
		<polyline points="-100,-67 -84,-67 -84,-51 		"/>
	</g>
</mask>
<g mask="url(#SVGID_4_)">
	<path fill="#FFFFFF" d="M-126.5-6.5c-1.103,0-2-0.897-2-2v-56c0-1.103,0.897-2,2-2h40c1.103,0,2,0.897,2,2v56c0,1.103-0.897,2-2,2
		H-126.5z"/>
	<path fill="#CCCCCC" d="M-86.5-66c0.827,0,1.5,0.673,1.5,1.5v56c0,0.827-0.673,1.5-1.5,1.5h-40c-0.827,0-1.5-0.673-1.5-1.5v-56
		c0-0.827,0.673-1.5,1.5-1.5H-86.5 M-86.5-67h-40c-1.375,0-2.5,1.125-2.5,2.5v56c0,1.375,1.125,2.5,2.5,2.5h40
		c1.375,0,2.5-1.125,2.5-2.5v-56C-84-65.875-85.125-67-86.5-67L-86.5-67z"/>
</g>
<g>
	<polygon fill="#FFFFFF" points="-96.897,-51.5 -98.719,-52.281 -99.5,-54.103 -99.5,-65.793 -85.207,-51.5 	"/>
	<path fill="#CCCCCC" d="M-99-64.586L-86.414-52h-10.381l-1.544-0.662L-99-54.205V-64.586 M-100-67v13l0.9,2.1L-97-51h13L-100-67
		L-100-67z"/>
</g>
<rect x="-176" y="-67" fill="none" width="20" height="26"/>
<rect x="-129" y="-67" fill="none" width="45" height="61"/>
<path d="M-15-37h-26c-1.1,0-2-0.9-2-2v-1c0-1.1,0.9-2,2-2h26c1.1,0,2,0.9,2,2v1C-13-37.9-13.9-37-15-37z"/>
<defs>
	<filter id="Adobe_OpacityMaskFilter_4_" filterUnits="userSpaceOnUse" x="-178" y="34" width="19" height="14">
		<feColorMatrix  type="matrix" values="1 0 0 0 0  0 1 0 0 0  0 0 1 0 0  0 0 0 1 0"/>
	</filter>
</defs>
<mask maskUnits="userSpaceOnUse" x="-178" y="34" width="19" height="14" id="SVGID_5_">
	<g filter="url(#Adobe_OpacityMaskFilter_4_)">
		<rect x="-178" y="40" fill="#FFFFFF" width="17" height="2"/>
		<polyline fill="none" stroke="#FFFFFF" stroke-width="1.6" stroke-miterlimit="10" points="-166,35 -160,41 -166,47 		"/>
	</g>
</mask>
<rect x="-178" y="34" mask="url(#SVGID_5_)" fill="#B2B2B2" width="19" height="14"/>
<defs>
	<filter id="Adobe_OpacityMaskFilter_5_" filterUnits="userSpaceOnUse" x="-253" y="34" width="19" height="14">
		<feColorMatrix  type="matrix" values="1 0 0 0 0  0 1 0 0 0  0 0 1 0 0  0 0 0 1 0"/>
	</filter>
</defs>
<mask maskUnits="userSpaceOnUse" x="-253" y="34" width="19" height="14" id="SVGID_6_">
	<g filter="url(#Adobe_OpacityMaskFilter_5_)">
		<rect x="-251" y="40" fill="#FFFFFF" width="17" height="2"/>
		<polyline fill="none" stroke="#FFFFFF" stroke-width="1.6" stroke-miterlimit="10" points="-246,35 -252,41 -246,47 		"/>
	</g>
</mask>
<rect x="-253" y="34" mask="url(#SVGID_6_)" fill="#B2B2B2" width="19" height="14"/>
<rect x="54" y="35" width="18" height="2"/>
<rect x="54" y="41" width="18" height="2"/>
<rect x="54" y="47" width="18" height="2"/>
<rect x="49" y="41" width="3" height="2"/>
<rect x="49" y="35" width="3" height="2"/>
<rect x="49" y="47" width="3" height="2"/>
<rect x="49" y="35" fill="none" width="23" height="14"/>
<polygon points="7,0 3.5,5.25 0,0 "/>
<rect fill="none" width="8" height="6"/>
</svg>
