<?xml version="1.0" encoding="utf-8"?>
<!-- Generator: Adobe Illustrator 18.0.0, SVG Export Plug-In . SVG Version: 6.00 Build 0)  -->
<!DOCTYPE svg PUBLIC "-//W3C//DTD SVG 1.1//EN" "http://www.w3.org/Graphics/SVG/1.1/DTD/svg11.dtd">
<svg version="1.1" id="Layer_1" xmlns="http://www.w3.org/2000/svg" xmlns:xlink="http://www.w3.org/1999/xlink" x="0px" y="0px"
	 width="45px" height="61px" viewBox="0 0 45 61" enable-background="new 0 0 45 61" xml:space="preserve">
<g>
	<g>
		<path fill="#FFFFFF" d="M-202,19c0,1.1-0.9,2-2,2h-22c-1.1,0-2-0.9-2-2V2c0-1.1,0.9-2,2-2h5c1.1,0,2.225,0.45,2.5,1s1.4,1,2.5,1
			h12c1.1,0,2,0.9,2,2V19z"/>
		<g>
			<path fill="#CCCCCC" d="M-221,1c0.805,0,1.495,0.315,1.606,0.447C-218.884,2.467-217.3,3-216,3h12c0.551,0,1,0.449,1,1v15
				c0,0.551-0.449,1-1,1h-22c-0.551,0-1-0.449-1-1V2c0-0.551,0.449-1,1-1H-221 M-221,0h-5c-1.1,0-2,0.9-2,2v17c0,1.1,0.9,2,2,2h22
				c1.1,0,2-0.9,2-2V4c0-1.1-0.9-2-2-2h-12c-1.1,0-2.225-0.45-2.5-1S-219.9,0-221,0L-221,0z"/>
		</g>
	</g>
	<g>
		<path fill="#E5E5E5" d="M-203,6.515C-203,6.782-203.218,7-203.485,7h-23.03C-226.782,7-227,6.782-227,6.515v-0.03
			C-227,6.218-226.782,6-226.515,6h23.03C-203.218,6-203,6.218-203,6.485V6.515z"/>
	</g>
</g>
<g>
	<g>
		<path fill="#FFFFFF" d="M-202,69c0,1.1-0.9,2-2,2h-22c-1.1,0-2-0.9-2-2V52c0-1.1,0.9-2,2-2h5c1.1,0,2.225,0.45,2.5,1s1.4,1,2.5,1
			h12c1.1,0,2,0.9,2,2V69z"/>
		<g>
			<path fill="#CCCCCC" d="M-221,51c0.805,0,1.495,0.315,1.606,0.447C-218.884,52.467-217.3,53-216,53h12c0.551,0,1,0.449,1,1v15
				c0,0.551-0.449,1-1,1h-22c-0.551,0-1-0.449-1-1V52c0-0.551,0.449-1,1-1H-221 M-221,50h-5c-1.1,0-2,0.9-2,2v17c0,1.1,0.9,2,2,2h22
				c1.1,0,2-0.9,2-2V54c0-1.1-0.9-2-2-2h-12c-1.1,0-2.225-0.45-2.5-1S-219.9,50-221,50L-221,50z"/>
		</g>
	</g>
	<g>
		<rect x="-227" y="56" fill="#E5E5E5" width="24" height="1"/>
	</g>
</g>
<g>
	<g>
		<path fill="#FFFFFF" d="M-202,119c0,1.1-0.9,2-2,2h-22c-1.1,0-2-0.9-2-2v-17c0-1.1,0.9-2,2-2h5c1.1,0,2.225,0.45,2.5,1
			s1.4,1,2.5,1h12c1.1,0,2,0.9,2,2V119z"/>
		<g>
			<path fill="#CCCCCC" d="M-221,101c0.805,0,1.495,0.315,1.606,0.447c0.51,1.019,2.094,1.553,3.395,1.553h12c0.551,0,1,0.449,1,1
				v15c0,0.551-0.449,1-1,1h-22c-0.551,0-1-0.449-1-1v-17c0-0.551,0.449-1,1-1H-221 M-221,100h-5c-1.1,0-2,0.9-2,2v17
				c0,1.1,0.9,2,2,2h22c1.1,0,2-0.9,2-2v-15c0-1.1-0.9-2-2-2h-12c-1.1,0-2.225-0.45-2.5-1S-219.9,100-221,100L-221,100z"/>
		</g>
	</g>
	<g>
		<path fill="#E5E5E5" d="M-203,106.515c0,0.267-0.218,0.485-0.485,0.485h-23.03c-0.267,0-0.485-0.218-0.485-0.485v-0.03
			c0-0.267,0.218-0.485,0.485-0.485h23.03c0.267,0,0.485,0.218,0.485,0.485V106.515z"/>
	</g>
</g>
<defs>
	<filter id="Adobe_OpacityMaskFilter" filterUnits="userSpaceOnUse" x="-249" y="107" width="13" height="10">
		<feColorMatrix  type="matrix" values="1 0 0 0 0  0 1 0 0 0  0 0 1 0 0  0 0 0 1 0"/>
	</filter>
</defs>
<mask maskUnits="userSpaceOnUse" x="-249" y="107" width="13" height="10" id="SVGID_1_">
	<g filter="url(#Adobe_OpacityMaskFilter)">
		<g>
			<path fill="#FFFFFF" d="M-243.5,110c0.786,0,1.425,0.639,1.425,1.425c0,0.786-0.639,1.425-1.425,1.425s-1.425-0.639-1.425-1.425
				C-244.925,110.639-244.286,110-243.5,110 M-243.5,109c-1.34,0-2.425,1.085-2.425,2.425c0,1.34,1.085,2.425,2.425,2.425
				c1.34,0,2.425-1.085,2.425-2.425C-241.075,110.085-242.16,109-243.5,109L-243.5,109z"/>
		</g>
		<g>
			<rect x="-243" y="112" fill="#FFFFFF" width="7" height="5"/>
		</g>
		<rect x="-252" y="112" width="9" height="6"/>
	</g>
</mask>
<rect x="-249" y="107" opacity="0.15" mask="url(#SVGID_1_)" width="13" height="10"/>
<g>
	<path fill="#FFFFFF" d="M-97,43c0,1.65-1.35,3-3,3h-49c-1.65,0-3-1.35-3-3V3c0-1.65,1.35-3,3-3h13.038
		c1.65,0,3.449,1.273,3.998,2.829l0.121,0.342C-131.294,4.727-129.495,6-127.845,6H-100c1.65,0,3,1.35,3,3V43z"/>
	<g>
		<path fill="#CCCCCC" d="M-135.962,1c1.221,0,2.649,1.01,3.055,2.162l0.121,0.342C-132.095,5.464-129.924,7-127.845,7H-100
			c1.103,0,2,0.897,2,2v34c0,1.103-0.897,2-2,2h-49c-1.103,0-2-0.897-2-2V3c0-1.103,0.897-2,2-2H-135.962 M-135.962,0H-149
			c-1.65,0-3,1.35-3,3v40c0,1.65,1.35,3,3,3h49c1.65,0,3-1.35,3-3V9c0-1.65-1.35-3-3-3h-27.845c-1.65,0-3.449-1.273-3.998-2.829
			l-0.121-0.342C-132.512,1.273-134.312,0-135.962,0L-135.962,0z"/>
	</g>
</g>
<rect x="-151" y="12" fill="#E5E5E5" width="53" height="1"/>
<g>
	<path fill="#FFFFFF" d="M-97,103c0,1.65-1.35,3-3,3h-49c-1.65,0-3-1.35-3-3V63c0-1.65,1.35-3,3-3h13.038
		c1.65,0,3.449,1.273,3.998,2.829l0.121,0.342c0.549,1.556,2.348,2.829,3.998,2.829H-100c1.65,0,3,1.35,3,3V103z"/>
	<g>
		<path fill="#CCCCCC" d="M-135.962,61c1.221,0,2.649,1.01,3.055,2.162l0.121,0.342c0.692,1.961,2.862,3.496,4.941,3.496H-100
			c1.103,0,2,0.897,2,2v34c0,1.103-0.897,2-2,2h-49c-1.103,0-2-0.897-2-2V63c0-1.103,0.897-2,2-2H-135.962 M-135.962,60H-149
			c-1.65,0-3,1.35-3,3v40c0,1.65,1.35,3,3,3h49c1.65,0,3-1.35,3-3V69c0-1.65-1.35-3-3-3h-27.845c-1.65,0-3.449-1.273-3.998-2.829
			l-0.121-0.342C-132.512,61.273-134.312,60-135.962,60L-135.962,60z"/>
	</g>
</g>
<rect x="-151" y="72" fill="#E5E5E5" width="53" height="1"/>
<g>
	<path fill="#FFFFFF" d="M-97,163c0,1.65-1.35,3-3,3h-49c-1.65,0-3-1.35-3-3v-40c0-1.65,1.35-3,3-3h13.038
		c1.65,0,3.449,1.273,3.998,2.829l0.121,0.342c0.549,1.556,2.348,2.829,3.998,2.829H-100c1.65,0,3,1.35,3,3V163z"/>
	<g>
		<path fill="#CCCCCC" d="M-135.962,121c1.221,0,2.649,1.01,3.055,2.162l0.121,0.342c0.692,1.961,2.862,3.496,4.941,3.496H-100
			c1.103,0,2,0.897,2,2v34c0,1.103-0.897,2-2,2h-49c-1.103,0-2-0.897-2-2v-40c0-1.103,0.897-2,2-2H-135.962 M-135.962,120H-149
			c-1.65,0-3,1.35-3,3v40c0,1.65,1.35,3,3,3h49c1.65,0,3-1.35,3-3v-34c0-1.65-1.35-3-3-3h-27.845c-1.65,0-3.449-1.273-3.998-2.829
			l-0.121-0.342C-132.512,121.273-134.312,120-135.962,120L-135.962,120z"/>
	</g>
</g>
<rect x="-151" y="132" fill="#E5E5E5" width="53" height="1"/>
<g>
	<path fill="#999999" d="M-212,67v-3c0-0.55,0.45-1,1-1h4c0.55,0,1,0.45,1,1v3"/>
</g>
<g>
	<path fill="#999999" d="M-110,99v-4c0-1.1,0.9-2,2-2h3c1.1,0,2,0.9,2,2v4"/>
</g>
<defs>
	<filter id="Adobe_OpacityMaskFilter_1_" filterUnits="userSpaceOnUse" x="-47" y="-40" width="20" height="26">
		<feFlood  style="flood-color:white;flood-opacity:1" result="back"/>
		<feBlend  in="SourceGraphic" in2="back" mode="normal"/>
	</filter>
</defs>
<mask maskUnits="userSpaceOnUse" x="-47" y="-40" width="20" height="26" id="SVGID_2_">
	<g filter="url(#Adobe_OpacityMaskFilter_1_)">
		<g>
			<polygon points="-27,-32 -27,-40 -35,-40 			"/>
		</g>
	</g>
</mask>
<g mask="url(#SVGID_2_)">
	<path fill="#FFFFFF" d="M-28-14h-18c-0.552,0-1-0.448-1-1v-24c0-0.552,0.448-1,1-1h18c0.552,0,1,0.448,1,1v24
		C-27-14.448-27.448-14-28-14z"/>
	<g>
		<path fill="#CCCCCC" d="M-28-39v24h-18v-24H-28 M-28-40h-18c-0.552,0-1,0.448-1,1v24c0,0.552,0.448,1,1,1h18c0.552,0,1-0.448,1-1
			v-24C-27-39.552-27.448-40-28-40L-28-40z"/>
	</g>
</g>
<g>
	<path fill="#CCCCCC" d="M-34-37.586L-29.414-33h-4.172L-34-33.414V-37.586 M-35-40v7l1,1h7L-35-40L-35-40z"/>
</g>
<rect x="-47" y="-40" fill="none" width="20" height="26"/>
<g>
	<path fill="#CCCCCC" d="M-28,25h-18V1h11V0h-11c-0.552,0-1,0.448-1,1v24c0,0.552,0.448,1,1,1h18c0.552,0,1-0.448,1-1V8h-1V25z"/>
</g>
<g>
	<path fill="#CCCCCC" d="M-34,1.414L-28.414,7H-34V1.414 M-34.5,0C-34.775,0-35,0.45-35,1v6c0,0.55,0.45,1,1,1h6
		c0.55,0,1-0.225,1-0.5s-0.318-0.818-0.707-1.207l-5.586-5.586C-33.682,0.318-34.225,0-34.5,0L-34.5,0z"/>
</g>
<g>
	<path fill="#CCCCCC" d="M-29,55h-18V31h11v-1h-11c-0.552,0-1,0.448-1,1v24c0,0.552,0.448,1,1,1h18c0.552,0,1-0.448,1-1V38h-1V55z"
		/>
</g>
<g>
	<path fill="#CCCCCC" d="M-35,31.414L-29.414,37H-35V31.414 M-35.5,30c-0.275,0-0.5,0.45-0.5,1v6c0,0.55,0.45,1,1,1h6
		c0.55,0,1-0.225,1-0.5s-0.318-0.818-0.707-1.207l-5.586-5.586C-34.682,30.318-35.225,30-35.5,30L-35.5,30z"/>
</g>
<path d="M114,30H88c-1.1,0-2-0.9-2-2v-1c0-1.1,0.9-2,2-2h26c1.1,0,2,0.9,2,2v1C116,29.1,115.1,30,114,30z"/>
<rect x="183" y="102" width="18" height="2"/>
<rect x="183" y="108" width="18" height="2"/>
<rect x="183" y="114" width="18" height="2"/>
<rect x="178" y="108" width="3" height="2"/>
<rect x="178" y="102" width="3" height="2"/>
<rect x="178" y="114" width="3" height="2"/>
<rect x="178" y="102" fill="none" width="23" height="14"/>
<path fill="none" stroke="#999999" stroke-miterlimit="10" d="M-207.5,63v-1c0-0.828-0.672-1.5-1.5-1.5s-1.5,0.672-1.5,1.5v1"/>
<g>
	<path fill="#CCCCCC" d="M-212,117v-3c0-0.55,0.45-1,1-1h4c0.55,0,1,0.45,1,1v3"/>
</g>
<path fill="none" stroke="#CCCCCC" stroke-miterlimit="10" d="M-210.5,113v-1c0-0.828-0.672-1.5-1.5-1.5s-1.5,0.672-1.5,1.5v1"/>
<g>
	<g>
		<path fill="#FFFFFF" d="M-270,222c0,2.2-1.8,4-4,4h-44c-2.2,0-4-1.8-4-4v-34c0-2.2,1.8-4,4-4h10c2.2,0,4.45,0.9,5,2s2.801,2,5,2
			H-274c2.2,0,4,1.8,4,4V222z"/>
		<g>
			<path fill="#CCCCCC" d="M-308,186c1.585,0,2.946,0.61,3.234,0.938c1.043,2.01,4.184,3.062,6.767,3.062H-274c1.103,0,2,0.897,2,2
				v30c0,1.103-0.897,2-2,2h-44c-1.103,0-2-0.897-2-2v-34c0-1.103,0.897-2,2-2H-308 M-308,184h-10c-2.2,0-4,1.8-4,4v34
				c0,2.2,1.8,4,4,4h44c2.2,0,4-1.8,4-4v-30c0-2.2-1.8-4-4-4h-23.999c-2.2,0-4.45-0.9-5-2C-303.55,184.9-305.8,184-308,184L-308,184
				z"/>
		</g>
	</g>
	<g>
		<rect x="-320" y="196" fill="#E5E5E5" width="48" height="2"/>
	</g>
</g>
<g>
	<path fill="#999999" d="M-290,216v-6c0-1.1,0.9-2,2-2h8c1.1,0,2,0.9,2,2v6"/>
</g>
<path fill="none" stroke="#999999" stroke-width="2" stroke-miterlimit="10" d="M-281,208v-2c0-1.657-1.343-3-3-3s-3,1.343-3,3v2"/>
<path fill="none" stroke="#999999" stroke-miterlimit="10" d="M-104.5,93v-1.5c0-1.105-0.895-2-2-2s-2,0.895-2,2V93"/>
<rect x="-122" y="195" width="17" height="2"/>
<polyline fill="none" stroke="#000000" stroke-width="2" stroke-miterlimit="10" points="-117,190 -123,196 -117,202 "/>
<rect x="-73" y="195" width="17" height="2"/>
<polyline fill="none" stroke="#000000" stroke-width="2" stroke-miterlimit="10" points="-61,190 -55,196 -61,202 "/>
<g>
	<g>
		<g>
			<path fill="#FFFFFF" d="M45,61H2.5C1.125,61,0,59.875,0,58.5V0"/>
		</g>
		<path fill="#CCCCCC" d="M44,15v43.5c0,0.827-0.673,1.5-1.5,1.5h-40C1.673,60,1,59.327,1,58.5v-56C1,1.673,1.673,1,2.5,1H30V0l0,0
			H2.5C1.125,0,0,1.125,0,2.5v56C0,59.875,1.125,61,2.5,61h40c1.375,0,2.5-1.125,2.5-2.5V15H44z"/>
	</g>
</g>
<g>
	<path fill="#CCCCCC" d="M31,1.414L31,1.414L43.586,14c0,0,0,0,0,0H31V1.414 M30.5,0C30.225,0,30,0.45,30,1v13c0,0.55,0.45,1,1,1h13
		c0.55,0,1-0.225,1-0.5s-0.318-0.818-0.707-1.207L31.707,0.707C31.318,0.318,30.775,0,30.5,0L30.5,0z"/>
</g>
</svg>
