<?xml version="1.0" encoding="utf-8"?>
<!-- Generator: Adobe Illustrator 18.0.0, SVG Export Plug-In . SVG Version: 6.00 Build 0)  -->
<!DOCTYPE svg PUBLIC "-//W3C//DTD SVG 1.1//EN" "http://www.w3.org/Graphics/SVG/1.1/DTD/svg11.dtd">
<svg version="1.1" id="Layer_1" xmlns="http://www.w3.org/2000/svg" xmlns:xlink="http://www.w3.org/1999/xlink" x="0px" y="0px"
	 width="45px" height="58px" viewBox="0 0 45 58" enable-background="new 0 0 45 58" xml:space="preserve">
<polygon fill="#FFFFFF" points="44,14 44,57 1,57 1,1 31,1 "/>
<g>
	<path fill="#CCCCCC" d="M30,0v12.857C30,14.036,30.964,15,32.143,15H45"/>
</g>
<path fill="#CCCCCC" d="M44,15v41c0,0.551-0.449,1-1,1H2c-0.551,0-1-0.449-1-1V2c0-0.551,0.449-1,1-1h28L44,15z M30.6,0H2
	C0.9,0,0,0.9,0,2v54c0,1.1,0.9,2,2,2h41c1.1,0,2-0.9,2-2V14.4L30.6,0z"/>
<path fill="#FFFFFF" d="M43.1,14H32c-0.55,0-1-0.45-1-1V1.9L43.1,14z"/>
<g>
	<path fill="none" d="M1,56c0,0.551,0.449,1,1,1h41c0.551,0,1-0.449,1-1V36H1V56z"/>
</g>
</svg>
