<?xml version="1.0" encoding="utf-8"?>
<!-- Generator: Adobe Illustrator 18.0.0, SVG Export Plug-In . SVG Version: 6.00 Build 0)  -->
<!DOCTYPE svg PUBLIC "-//W3C//DTD SVG 1.1//EN" "http://www.w3.org/Graphics/SVG/1.1/DTD/svg11.dtd">
<svg version="1.1" id="Layer_1" xmlns="http://www.w3.org/2000/svg" xmlns:xlink="http://www.w3.org/1999/xlink" x="0px" y="0px"
	 width="45px" height="58px" viewBox="0 0 45 58" enable-background="new 0 0 45 58" xml:space="preserve">
<path fill="#FFFFFF" d="M44.969,15c-0.037-0.35-0.131-0.687-0.284-1c-0.144-0.296-0.327-0.574-0.564-0.811L32.114,1.182
	C31.789,0.857,31.407,0.607,31,0.411c-0.319-0.153-0.651-0.273-1-0.338C29.758,0.028,29.511,0,29.261,0H3.5C1.575,0,0,1.575,0,3.5
	v51C0,56.425,1.575,58,3.5,58h38c1.925,0,3.5-1.575,3.5-3.5V15.311C45,15.206,44.98,15.104,44.969,15z"/>
<g>
	<path fill="none" d="M44,15.311c0-0.105-0.014-0.208-0.03-0.311H33c-1.65,0-3-1.35-3-3V1.101C29.76,1.041,29.515,1,29.261,1H3.5
		C2.122,1,1,2.122,1,3.5V36h43V15.311z"/>
	<path fill="none" d="M31.407,1.889C31.281,1.763,31.143,1.655,31,1.555V12c0,1.103,0.897,2,2,2h10.499
		c-0.03-0.034-0.053-0.072-0.085-0.104L31.407,1.889z"/>
	<path fill="#CCCCCC" d="M44.969,15c-0.037-0.35-0.131-0.687-0.284-1c-0.144-0.296-0.327-0.574-0.564-0.811L32.114,1.182
		C31.789,0.857,31.407,0.607,31,0.411c-0.319-0.153-0.651-0.273-1-0.338C29.758,0.028,29.511,0,29.261,0H3.5C1.575,0,0,1.575,0,3.5
		V36h1V3.5C1,2.122,2.122,1,3.5,1h25.761C29.515,1,29.76,1.041,30,1.101V12c0,1.65,1.35,3,3,3h10.97
		c0.016,0.102,0.03,0.205,0.03,0.311V36h1V15.311C45,15.206,44.98,15.104,44.969,15z M33,14c-1.103,0-2-0.897-2-2V1.555
		c0.143,0.1,0.281,0.208,0.407,0.334l12.008,12.008c0.032,0.032,0.056,0.07,0.085,0.104H33z"/>
	<path fill="#FF1C8C" d="M3.5,57h38c1.379,0,2.5-1.122,2.5-2.5V36H1v18.5C1,55.878,2.122,57,3.5,57z"/>
	<path fill="#CC1670" d="M44,54.5c0,1.378-1.121,2.5-2.5,2.5h-38C2.122,57,1,55.878,1,54.5V36H0v18.5C0,56.425,1.575,58,3.5,58h38
		c1.925,0,3.5-1.575,3.5-3.5V36h-1V54.5z"/>
</g>
</svg>
