<?xml version="1.0" encoding="utf-8"?>
<!-- Generator: Adobe Illustrator 18.0.0, SVG Export Plug-In . SVG Version: 6.00 Build 0)  -->
<!DOCTYPE svg PUBLIC "-//W3C//DTD SVG 1.1//EN" "http://www.w3.org/Graphics/SVG/1.1/DTD/svg11.dtd">
<svg version="1.1" id="Layer_1" xmlns="http://www.w3.org/2000/svg" xmlns:xlink="http://www.w3.org/1999/xlink" x="0px" y="0px"
	 width="55px" height="46px" viewBox="0 0 55 46" enable-background="new 0 0 55 46" xml:space="preserve">
<g>
	<path fill="#FFFFFF" d="M55,43c0,1.65-1.35,3-3,3H3c-1.65,0-3-1.35-3-3V3c0-1.65,1.35-3,3-3h13.038c1.65,0,3.449,1.273,3.998,2.829
		l0.121,0.342C20.706,4.727,22.505,6,24.155,6H52c1.65,0,3,1.35,3,3V43z"/>
	<g>
		<path fill="#CCCCCC" d="M16.038,1c1.221,0,2.649,1.01,3.055,2.162l0.121,0.342C19.905,5.464,22.076,7,24.155,7H52
			c1.103,0,2,0.897,2,2v34c0,1.103-0.897,2-2,2H3c-1.103,0-2-0.897-2-2V3c0-1.103,0.897-2,2-2H16.038 M16.038,0H3C1.35,0,0,1.35,0,3
			v40c0,1.65,1.35,3,3,3h49c1.65,0,3-1.35,3-3V9c0-1.65-1.35-3-3-3H24.155c-1.65,0-3.449-1.273-3.998-2.829l-0.121-0.342
			C19.488,1.273,17.688,0,16.038,0L16.038,0z"/>
	</g>
</g>
<rect x="1" y="12" fill="#E5E5E5" width="53" height="1"/>
</svg>
