<?xml version="1.0" encoding="utf-8"?>
<!-- Generator: Adobe Illustrator 18.0.0, SVG Export Plug-In . SVG Version: 6.00 Build 0)  -->
<!DOCTYPE svg PUBLIC "-//W3C//DTD SVG 1.1//EN" "http://www.w3.org/Graphics/SVG/1.1/DTD/svg11.dtd">
<svg version="1.1" id="Layer_1" xmlns="http://www.w3.org/2000/svg" xmlns:xlink="http://www.w3.org/1999/xlink" x="0px" y="0px"
	 width="55px" height="43px" viewBox="0 0 55 43" enable-background="new 0 0 55 43" xml:space="preserve">
<path fill="#FFFFFF" d="M51.5,4H23.036c-0.663,0-1.299-0.263-1.768-0.732l-3.536-2.536C17.263,0.263,16.628,0,15.964,0H3.5
	C1.575,0,0,1.575,0,3.5v36C0,41.425,1.575,43,3.5,43h48c1.925,0,3.5-1.575,3.5-3.5v-32C55,5.575,53.425,4,51.5,4z"/>
<g>
	<path fill="#CCCCCC" d="M51.5,4H23.036c-0.663,0-1.299-0.263-1.768-0.732l-3.536-2.536C17.263,0.263,16.628,0,15.964,0H3.5
		C1.575,0,0,1.575,0,3.5v36C0,41.425,1.575,43,3.5,43h48c1.925,0,3.5-1.575,3.5-3.5v-32C55,5.575,53.425,4,51.5,4z M54,39.5
		c0,1.378-1.122,2.5-2.5,2.5h-48C2.122,42,1,40.878,1,39.5V12h53V39.5z M54,11H1V3.5C1,2.122,2.122,1,3.5,1h12.464
		c0.401,0,0.777,0.156,1.061,0.439l0.058,0.058l0.066,0.048l3.474,2.492C21.277,4.659,22.13,5,23.036,5H51.5
		C52.878,5,54,6.122,54,7.5V11z"/>
</g>
</svg>
