<?xml version="1.0" encoding="utf-8"?>
<!-- Generator: Adobe Illustrator 18.0.0, SVG Export Plug-In . SVG Version: 6.00 Build 0)  -->
<!DOCTYPE svg PUBLIC "-//W3C//DTD SVG 1.1//EN" "http://www.w3.org/Graphics/SVG/1.1/DTD/svg11.dtd">
<svg version="1.1" id="Layer_1" xmlns="http://www.w3.org/2000/svg" xmlns:xlink="http://www.w3.org/1999/xlink" x="0px" y="0px"
	 width="45px" height="61px" viewBox="0 0 45 61" enable-background="new 0 0 45 61" xml:space="preserve">
<g>
	<g>
		<g>
			<path fill="#FFFFFF" d="M45,61H2.5C1.125,61,0,59.875,0,58.5V0"/>
		</g>
		<path fill="#CCCCCC" d="M44,15v43.5c0,0.827-0.673,1.5-1.5,1.5h-40C1.673,60,1,59.327,1,58.5v-56C1,1.673,1.673,1,2.5,1H30V0l0,0
			H2.5C1.125,0,0,1.125,0,2.5v56C0,59.875,1.125,61,2.5,61h40c1.375,0,2.5-1.125,2.5-2.5V15H44z"/>
	</g>
</g>
<g>
	<path fill="#CCCCCC" d="M31,1.414L31,1.414L43.586,14l0,0H31V1.414 M30.5,0C30.225,0,30,0.45,30,1v13c0,0.55,0.45,1,1,1h13
		c0.55,0,1-0.225,1-0.5s-0.318-0.818-0.707-1.207L31.707,0.707C31.318,0.318,30.775,0,30.5,0L30.5,0z"/>
</g>
</svg>
