<?xml version="1.0" encoding="utf-8"?>
<!-- Generator: Adobe Illustrator 18.0.0, SVG Export Plug-In . SVG Version: 6.00 Build 0)  -->
<!DOCTYPE svg PUBLIC "-//W3C//DTD SVG 1.1//EN" "http://www.w3.org/Graphics/SVG/1.1/DTD/svg11.dtd">
<svg version="1.1" id="Layer_1" xmlns="http://www.w3.org/2000/svg" xmlns:xlink="http://www.w3.org/1999/xlink" x="0px" y="0px"
	 width="45px" height="58px" viewBox="0 0 45 58" enable-background="new 0 0 45 58" xml:space="preserve">
<path fill="#FFFFFF" d="M44.969,15c-0.037-0.35-0.131-0.687-0.284-1c-0.144-0.296-0.327-0.574-0.564-0.811L32.114,1.182
	C31.789,0.857,31.407,0.607,31,0.411c-0.319-0.153-0.651-0.273-1-0.338C29.758,0.028,29.511,0,29.261,0H3.5C1.575,0,0,1.575,0,3.5
	v51C0,56.425,1.575,58,3.5,58h38c1.925,0,3.5-1.575,3.5-3.5V15.311C45,15.206,44.98,15.104,44.969,15z"/>
<g>
	<path fill="#CCCCCC" d="M33,14.001h10.5c-0.029-0.034-0.053-0.072-0.085-0.104l-0.001-0.001c0.032,0.032,0.055,0.07,0.085,0.104
		L33,14.001C31.897,14,31,13.103,31,12v0.001C31,13.104,31.897,14.001,33,14.001z"/>
	<path fill="#CCCCCC" d="M44.969,15c-0.037-0.35-0.131-0.687-0.284-1c-0.144-0.296-0.327-0.574-0.564-0.811L32.114,1.182
		C31.789,0.857,31.407,0.607,31,0.411c-0.319-0.153-0.651-0.273-1-0.338C29.758,0.028,29.511,0,29.261,0H3.5C1.575,0,0,1.575,0,3.5
		v51C0,56.425,1.575,58,3.5,58h38c1.925,0,3.5-1.575,3.5-3.5V15.311C45,15.206,44.98,15.104,44.969,15z M31,12V1.555
		c0.143,0.1,0.281,0.208,0.407,0.334l12.007,12.007l0.001,0.001c0.032,0.032,0.056,0.07,0.085,0.104H33
		C31.897,14.001,31,13.104,31,12L31,12z M44,54.5c0,1.378-1.121,2.5-2.5,2.5h-38C2.122,57,1,55.878,1,54.5v-51
		C1,2.122,2.122,1,3.5,1h25.761C29.515,1,29.76,1.041,30,1.101V12c0,1.65,1.35,3,3,3h10.97c0.016,0.103,0.03,0.206,0.03,0.311V54.5z
		"/>
	<path fill="#CCCCCC" d="M23,38.261c-1.049-0.363-2.379-0.353-3.696,0.145c-2.391,0.903-3.798,3.021-3.143,4.729
		c0.655,1.708,3.125,2.361,5.516,1.458c1.869-0.706,3.121-2.153,3.272-3.568L25,41V29.467l7,2.333L23,24V38.261z"/>
</g>
</svg>
