<?xml version="1.0" encoding="utf-8"?>
<!-- Generator: Adobe Illustrator 18.0.0, SVG Export Plug-In . SVG Version: 6.00 Build 0)  -->
<!DOCTYPE svg PUBLIC "-//W3C//DTD SVG 1.1//EN" "http://www.w3.org/Graphics/SVG/1.1/DTD/svg11.dtd">
<svg version="1.1" id="Layer_1" xmlns="http://www.w3.org/2000/svg" xmlns:xlink="http://www.w3.org/1999/xlink" x="0px" y="0px"
	 width="55px" height="44px" viewBox="0 0 55 44" enable-background="new 0 0 55 44" xml:space="preserve">
<path fill="#FFFFFF" d="M13.5,0h-10C1.575,0,0,1.575,0,3.5v37C0,42.425,1.575,44,3.5,44h48c1.925,0,3.5-1.575,3.5-3.5v-32
	C55,6.575,53.425,5,51.5,5h-26c-1.925,0-4.614-1.114-5.975-2.475l-0.05-0.05C18.114,1.114,15.425,0,13.5,0L13.5,0z"/>
<rect x="1" y="12" fill="#E6E6E6" width="53" height="1"/>
<path fill="#CCCCCC" d="M13.5,1c1.673,0,4.085,0.999,5.267,2.182l0.051,0.051C20.37,4.784,23.305,6,25.5,6h26
	C52.878,6,54,7.122,54,8.5v32c0,1.378-1.122,2.5-2.5,2.5h-48C2.122,43,1,41.878,1,40.5v-37C1,2.122,2.122,1,3.5,1H13.5 M13.5,0h-10
	C1.575,0,0,1.575,0,3.5v37C0,42.425,1.575,44,3.5,44h48c1.925,0,3.5-1.575,3.5-3.5v-32C55,6.575,53.425,5,51.5,5h-26
	c-1.925,0-4.614-1.114-5.975-2.475l-0.05-0.05C18.114,1.114,15.425,0,13.5,0L13.5,0z"/>
<path fill="#CCCCCC" d="M46,30h-5v-1c0-1.657-1.343-3-3-3s-3,1.343-3,3v1h1v-1c0-1.103,0.897-2,2-2s2,0.897,2,2v1
	c-0.55,0-1,0.45-1,1v4c0,0.55,0.45,1,1,1h6c0.55,0,1-0.45,1-1v-4C47,30.45,46.55,30,46,30z"/>
</svg>
