<?xml version="1.0" encoding="utf-8"?>
<!-- Generator: Adobe Illustrator 18.0.0, SVG Export Plug-In . SVG Version: 6.00 Build 0)  -->
<!DOCTYPE svg PUBLIC "-//W3C//DTD SVG 1.1//EN" "http://www.w3.org/Graphics/SVG/1.1/DTD/svg11.dtd">
<svg version="1.1" id="Layer_1" xmlns="http://www.w3.org/2000/svg" xmlns:xlink="http://www.w3.org/1999/xlink" x="0px" y="0px"
	 width="26px" height="26px" viewBox="0 0 26 26" enable-background="new 0 0 26 26" xml:space="preserve">
<g>
	<path fill="#CCCCCC" d="M13,1c6.617,0,12,5.383,12,12s-5.383,12-12,12S1,19.617,1,13S6.383,1,13,1 M13,0C5.821,0,0,5.821,0,13
		s5.821,13,13,13s13-5.821,13-13S20.179,0,13,0L13,0z"/>
</g>
<g>
	<path fill="#CCCCCC" d="M11.083,17.019c0.041-0.182,0.103-0.422,0.185-0.721l1.107-4.043c0.012-0.047,0.022-0.094,0.031-0.141
		s0.013-0.091,0.013-0.132c0-0.24-0.076-0.39-0.229-0.448c-0.152-0.059-0.43-0.097-0.833-0.114v-0.475
		c0.337-0.023,0.828-0.072,1.47-0.145c0.643-0.073,1.098-0.136,1.366-0.189l0.768-0.149l-1.397,5.124
		c-0.117,0.439-0.196,0.744-0.237,0.914c-0.105,0.434-0.158,0.715-0.158,0.844s0.029,0.212,0.088,0.25s0.123,0.057,0.194,0.057
		c0.182,0,0.408-0.155,0.678-0.466c0.271-0.311,0.508-0.636,0.714-0.976l0.502,0.321c-0.587,0.861-1.033,1.42-1.344,1.719
		c-0.51,0.492-0.984,0.693-1.746,0.693c-0.329,0-0.624-0.101-0.885-0.303c-0.261-0.202-0.391-0.511-0.391-0.927
		C10.978,17.566,11.013,17.335,11.083,17.019z M15.316,6.797c0.234,0.234,0.352,0.519,0.352,0.853s-0.117,0.62-0.352,0.857
		s-0.519,0.356-0.853,0.356s-0.62-0.119-0.857-0.356s-0.356-0.523-0.356-0.857s0.119-0.618,0.356-0.853s0.523-0.352,0.857-0.352
		S15.082,6.562,15.316,6.797z"/>
</g>
</svg>
