<?xml version="1.0" encoding="utf-8"?>
<!-- Generator: Adobe Illustrator 18.0.0, SVG Export Plug-In . SVG Version: 6.00 Build 0)  -->
<!DOCTYPE svg PUBLIC "-//W3C//DTD SVG 1.1//EN" "http://www.w3.org/Graphics/SVG/1.1/DTD/svg11.dtd">
<svg version="1.1" id="Layer_1" xmlns="http://www.w3.org/2000/svg" xmlns:xlink="http://www.w3.org/1999/xlink" x="0px" y="0px"
	 width="26px" height="26px" viewBox="0 0 26 26" enable-background="new 0 0 26 26" xml:space="preserve">
<g>
	<path fill="#CCCCCC" d="M13,1c6.617,0,12,5.383,12,12s-5.383,12-12,12S1,19.617,1,13S6.383,1,13,1 M13,0C5.821,0,0,5.821,0,13
		s5.821,13,13,13s13-5.821,13-13S20.179,0,13,0L13,0z"/>
</g>
<polygon fill="#CCCCCC" points="18.424,8.424 17.576,7.576 13,12.152 8.424,7.576 7.576,8.424 12.152,13 7.576,17.576 8.424,18.424 
	13,13.848 17.576,18.424 18.424,17.576 13.848,13 "/>
</svg>
