<?xml version="1.0" encoding="utf-8"?>
<!-- Generator: Adobe Illustrator 18.0.0, SVG Export Plug-In . SVG Version: 6.00 Build 0)  -->
<!DOCTYPE svg PUBLIC "-//W3C//DTD SVG 1.1//EN" "http://www.w3.org/Graphics/SVG/1.1/DTD/svg11.dtd">
<svg version="1.1" id="Layer_1" xmlns="http://www.w3.org/2000/svg" xmlns:xlink="http://www.w3.org/1999/xlink" x="0px" y="0px"
	 width="20px" height="26px" viewBox="0 0 20 26" enable-background="new 0 0 20 26" xml:space="preserve">
<g>
	<path fill="#CCCCCC" d="M19,25H1V1h11V0H1C0.448,0,0,0.448,0,1v24c0,0.552,0.448,1,1,1h18c0.552,0,1-0.448,1-1V8h-1V25z"/>
</g>
<g>
	<path fill="#CCCCCC" d="M13,1.414L18.586,7H13V1.414 M12.5,0C12.225,0,12,0.45,12,1v6c0,0.55,0.45,1,1,1h6c0.55,0,1-0.225,1-0.5
		s-0.318-0.818-0.707-1.207l-5.586-5.586C13.318,0.318,12.775,0,12.5,0L12.5,0z"/>
</g>
</svg>
