<?xml version="1.0" encoding="utf-8"?>
<!-- Generator: Adobe Illustrator 18.0.0, SVG Export Plug-In . SVG Version: 6.00 Build 0)  -->
<!DOCTYPE svg PUBLIC "-//W3C//DTD SVG 1.1//EN" "http://www.w3.org/Graphics/SVG/1.1/DTD/svg11.dtd">
<svg version="1.1" id="Layer_1" xmlns="http://www.w3.org/2000/svg" xmlns:xlink="http://www.w3.org/1999/xlink" x="0px" y="0px"
	 width="26px" height="21px" viewBox="0 0 26 21" enable-background="new 0 0 26 21" xml:space="preserve">
<path fill="#FFFFFF" d="M7,1c0.805,0,1.383,0.383,2,1c0.633,0.633,1.7,1,3,1h12c0.551,0,1,0.449,1,1v15c0,0.551-0.449,1-1,1H2
	c-0.551,0-1-0.449-1-1V2c0-0.551,0.449-1,1-1H7"/>
<g>
	<g>
		<g>
			<path fill="#CCCCCC" d="M7,1c0.805,0,1.383,0.383,2,1c0.75,0.75,1.7,1,3,1h12c0.551,0,1,0.449,1,1v15c0,0.551-0.449,1-1,1H2
				c-0.551,0-1-0.449-1-1V2c0-0.551,0.449-1,1-1H7 M7,0H2C0.9,0,0,0.9,0,2v17c0,1.1,0.9,2,2,2h22c1.1,0,2-0.9,2-2V4c0-1.1-0.9-2-2-2
				H12c-1.1,0-1.625-0.125-2.5-1C8.828,0.328,8.1,0,7,0L7,0z"/>
		</g>
	</g>
</g>
<rect x="1" y="6" fill="#E5E5E5" width="24" height="1"/>
<g>
	<path fill="#CCCCCC" d="M16,17v-3c0-0.55,0.45-1,1-1h4c0.55,0,1,0.45,1,1v3"/>
</g>
<path fill="none" stroke="#CCCCCC" stroke-miterlimit="10" d="M17.5,14v-2c0-0.828-0.672-1.5-1.5-1.5c-0.828,0-1.5,0.672-1.5,1.5v1"
	/>
</svg>
