<?xml version="1.0" encoding="utf-8"?>
<!-- Generator: Adobe Illustrator 18.0.0, SVG Export Plug-In . SVG Version: 6.00 Build 0)  -->
<!DOCTYPE svg PUBLIC "-//W3C//DTD SVG 1.1//EN" "http://www.w3.org/Graphics/SVG/1.1/DTD/svg11.dtd">
<svg version="1.1" id="Layer_1" xmlns="http://www.w3.org/2000/svg" xmlns:xlink="http://www.w3.org/1999/xlink" x="0px" y="0px"
	 width="26px" height="21px" viewBox="0 0 26 21" enable-background="new 0 0 26 21" xml:space="preserve">
<g>
	<g>
		<path fill="#FFFFFF" d="M26,19c0,1.1-0.9,2-2,2H2c-1.1,0-2-0.9-2-2V2c0-1.1,0.9-2,2-2h5c1.1,0,2.225,0.45,2.5,1
			c0.275,0.55,1.4,1,2.5,1h12c1.1,0,2,0.9,2,2V19z"/>
		<g>
			<path fill="#CCCCCC" d="M7,1c0.805,0,1.495,0.315,1.606,0.447C9.116,2.467,10.7,3,12,3h12c0.551,0,1,0.449,1,1v15
				c0,0.551-0.449,1-1,1H2c-0.551,0-1-0.449-1-1V2c0-0.551,0.449-1,1-1H7 M7,0H2C0.9,0,0,0.9,0,2v17c0,1.1,0.9,2,2,2h22
				c1.1,0,2-0.9,2-2V4c0-1.1-0.9-2-2-2H12c-1.1,0-2.225-0.45-2.5-1C9.225,0.45,8.1,0,7,0L7,0z"/>
		</g>
	</g>
	<g>
		<path fill="#E5E5E5" d="M25,6.515C25,6.782,24.782,7,24.515,7H1.485C1.218,7,1,6.782,1,6.515v-0.03C1,6.218,1.218,6,1.485,6h23.03
			C24.782,6,25,6.218,25,6.485V6.515z"/>
	</g>
</g>
</svg>
