<?xml version="1.0" encoding="utf-8"?>
<!-- Generator: Adobe Illustrator 18.0.0, SVG Export Plug-In . SVG Version: 6.00 Build 0)  -->
<!DOCTYPE svg PUBLIC "-//W3C//DTD SVG 1.1//EN" "http://www.w3.org/Graphics/SVG/1.1/DTD/svg11.dtd">
<svg version="1.1" id="Layer_1" xmlns="http://www.w3.org/2000/svg" xmlns:xlink="http://www.w3.org/1999/xlink" x="0px" y="0px"
	 width="20px" height="26px" viewBox="0 0 20 26" enable-background="new 0 0 20 26" xml:space="preserve">
<g>
	<g>
		<path fill="#FFFFFF" d="M-155,19c0,1.1-0.9,2-2,2h-22c-1.1,0-2-0.9-2-2V2c0-1.1,0.9-2,2-2h5c1.1,0,2.225,0.45,2.5,1s1.4,1,2.5,1
			h12c1.1,0,2,0.9,2,2V19z"/>
		<g>
			<path fill="#CCCCCC" d="M-174,1c0.805,0,1.495,0.315,1.606,0.447C-171.884,2.467-170.3,3-169,3h12c0.551,0,1,0.449,1,1v15
				c0,0.551-0.449,1-1,1h-22c-0.551,0-1-0.449-1-1V2c0-0.551,0.449-1,1-1H-174 M-174,0h-5c-1.1,0-2,0.9-2,2v17c0,1.1,0.9,2,2,2h22
				c1.1,0,2-0.9,2-2V4c0-1.1-0.9-2-2-2h-12c-1.1,0-2.225-0.45-2.5-1S-172.9,0-174,0L-174,0z"/>
		</g>
	</g>
	<g>
		<path fill="#E5E5E5" d="M-156,6.515C-156,6.782-156.218,7-156.485,7h-23.03C-179.782,7-180,6.782-180,6.515v-0.03
			C-180,6.218-179.782,6-179.515,6h23.03C-156.218,6-156,6.218-156,6.485V6.515z"/>
	</g>
</g>
<g>
	<g>
		<path fill="#FFFFFF" d="M-155,69c0,1.1-0.9,2-2,2h-22c-1.1,0-2-0.9-2-2V52c0-1.1,0.9-2,2-2h5c1.1,0,2.225,0.45,2.5,1s1.4,1,2.5,1
			h12c1.1,0,2,0.9,2,2V69z"/>
		<g>
			<path fill="#CCCCCC" d="M-174,51c0.805,0,1.495,0.315,1.606,0.447C-171.884,52.467-170.3,53-169,53h12c0.551,0,1,0.449,1,1v15
				c0,0.551-0.449,1-1,1h-22c-0.551,0-1-0.449-1-1V52c0-0.551,0.449-1,1-1H-174 M-174,50h-5c-1.1,0-2,0.9-2,2v17c0,1.1,0.9,2,2,2h22
				c1.1,0,2-0.9,2-2V54c0-1.1-0.9-2-2-2h-12c-1.1,0-2.225-0.45-2.5-1S-172.9,50-174,50L-174,50z"/>
		</g>
	</g>
	<g>
		<rect x="-180" y="56" fill="#E5E5E5" width="24" height="1"/>
	</g>
</g>
<g>
	<g>
		<path fill="#FFFFFF" d="M-155,119c0,1.1-0.9,2-2,2h-22c-1.1,0-2-0.9-2-2v-17c0-1.1,0.9-2,2-2h5c1.1,0,2.225,0.45,2.5,1
			s1.4,1,2.5,1h12c1.1,0,2,0.9,2,2V119z"/>
		<g>
			<path fill="#CCCCCC" d="M-174,101c0.805,0,1.495,0.315,1.606,0.447c0.51,1.019,2.094,1.553,3.395,1.553h12c0.551,0,1,0.449,1,1
				v15c0,0.551-0.449,1-1,1h-22c-0.551,0-1-0.449-1-1v-17c0-0.551,0.449-1,1-1H-174 M-174,100h-5c-1.1,0-2,0.9-2,2v17
				c0,1.1,0.9,2,2,2h22c1.1,0,2-0.9,2-2v-15c0-1.1-0.9-2-2-2h-12c-1.1,0-2.225-0.45-2.5-1S-172.9,100-174,100L-174,100z"/>
		</g>
	</g>
	<g>
		<path fill="#E5E5E5" d="M-156,106.515c0,0.267-0.218,0.485-0.485,0.485h-23.03c-0.267,0-0.485-0.218-0.485-0.485v-0.03
			c0-0.267,0.218-0.485,0.485-0.485h23.03c0.267,0,0.485,0.218,0.485,0.485V106.515z"/>
	</g>
</g>
<defs>
	<filter id="Adobe_OpacityMaskFilter" filterUnits="userSpaceOnUse" x="-202" y="107" width="13" height="10">
		<feColorMatrix  type="matrix" values="1 0 0 0 0  0 1 0 0 0  0 0 1 0 0  0 0 0 1 0"/>
	</filter>
</defs>
<mask maskUnits="userSpaceOnUse" x="-202" y="107" width="13" height="10" id="SVGID_1_">
	<g filter="url(#Adobe_OpacityMaskFilter)">
		<g>
			<path fill="#FFFFFF" d="M-196.5,110c0.786,0,1.425,0.639,1.425,1.425c0,0.786-0.639,1.425-1.425,1.425s-1.425-0.639-1.425-1.425
				C-197.925,110.639-197.286,110-196.5,110 M-196.5,109c-1.34,0-2.425,1.085-2.425,2.425c0,1.34,1.085,2.425,2.425,2.425
				c1.34,0,2.425-1.085,2.425-2.425C-194.075,110.085-195.16,109-196.5,109L-196.5,109z"/>
		</g>
		<g>
			<rect x="-196" y="112" fill="#FFFFFF" width="7" height="5"/>
		</g>
		<rect x="-205" y="112" width="9" height="6"/>
	</g>
</mask>
<rect x="-202" y="107" opacity="0.15" mask="url(#SVGID_1_)" width="13" height="10"/>
<g>
	<path fill="#FFFFFF" d="M-50,43c0,1.65-1.35,3-3,3h-49c-1.65,0-3-1.35-3-3V3c0-1.65,1.35-3,3-3h13.038
		c1.65,0,3.449,1.273,3.998,2.829l0.121,0.342C-84.294,4.727-82.495,6-80.845,6H-53c1.65,0,3,1.35,3,3V43z"/>
	<g>
		<path fill="#CCCCCC" d="M-88.962,1c1.221,0,2.649,1.01,3.055,2.162l0.121,0.342C-85.095,5.464-82.924,7-80.845,7H-53
			c1.103,0,2,0.897,2,2v34c0,1.103-0.897,2-2,2h-49c-1.103,0-2-0.897-2-2V3c0-1.103,0.897-2,2-2H-88.962 M-88.962,0H-102
			c-1.65,0-3,1.35-3,3v40c0,1.65,1.35,3,3,3h49c1.65,0,3-1.35,3-3V9c0-1.65-1.35-3-3-3h-27.845c-1.65,0-3.449-1.273-3.998-2.829
			l-0.121-0.342C-85.512,1.273-87.312,0-88.962,0L-88.962,0z"/>
	</g>
</g>
<rect x="-104" y="12" fill="#E5E5E5" width="53" height="1"/>
<g>
	<path fill="#FFFFFF" d="M-50,103c0,1.65-1.35,3-3,3h-49c-1.65,0-3-1.35-3-3V63c0-1.65,1.35-3,3-3h13.038
		c1.65,0,3.449,1.273,3.998,2.829l0.121,0.342C-84.294,64.727-82.495,66-80.845,66H-53c1.65,0,3,1.35,3,3V103z"/>
	<g>
		<path fill="#CCCCCC" d="M-88.962,61c1.221,0,2.649,1.01,3.055,2.162l0.121,0.342C-85.095,65.464-82.924,67-80.845,67H-53
			c1.103,0,2,0.897,2,2v34c0,1.103-0.897,2-2,2h-49c-1.103,0-2-0.897-2-2V63c0-1.103,0.897-2,2-2H-88.962 M-88.962,60H-102
			c-1.65,0-3,1.35-3,3v40c0,1.65,1.35,3,3,3h49c1.65,0,3-1.35,3-3V69c0-1.65-1.35-3-3-3h-27.845c-1.65,0-3.449-1.273-3.998-2.829
			l-0.121-0.342C-85.512,61.273-87.312,60-88.962,60L-88.962,60z"/>
	</g>
</g>
<rect x="-104" y="72" fill="#E5E5E5" width="53" height="1"/>
<g>
	<path fill="#FFFFFF" d="M-50,163c0,1.65-1.35,3-3,3h-49c-1.65,0-3-1.35-3-3v-40c0-1.65,1.35-3,3-3h13.038
		c1.65,0,3.449,1.273,3.998,2.829l0.121,0.342c0.549,1.556,2.348,2.829,3.998,2.829H-53c1.65,0,3,1.35,3,3V163z"/>
	<g>
		<path fill="#CCCCCC" d="M-88.962,121c1.221,0,2.649,1.01,3.055,2.162l0.121,0.342c0.692,1.961,2.862,3.496,4.941,3.496H-53
			c1.103,0,2,0.897,2,2v34c0,1.103-0.897,2-2,2h-49c-1.103,0-2-0.897-2-2v-40c0-1.103,0.897-2,2-2H-88.962 M-88.962,120H-102
			c-1.65,0-3,1.35-3,3v40c0,1.65,1.35,3,3,3h49c1.65,0,3-1.35,3-3v-34c0-1.65-1.35-3-3-3h-27.845c-1.65,0-3.449-1.273-3.998-2.829
			l-0.121-0.342C-85.512,121.273-87.312,120-88.962,120L-88.962,120z"/>
	</g>
</g>
<rect x="-104" y="132" fill="#E5E5E5" width="53" height="1"/>
<g>
	<path fill="#999999" d="M-165,67v-3c0-0.55,0.45-1,1-1h4c0.55,0,1,0.45,1,1v3"/>
</g>
<g>
	<path fill="#999999" d="M-63,99v-4c0-1.1,0.9-2,2-2h3c1.1,0,2,0.9,2,2v4"/>
</g>
<defs>
	<filter id="Adobe_OpacityMaskFilter_1_" filterUnits="userSpaceOnUse" x="0" y="-40" width="20" height="26">
		<feFlood  style="flood-color:white;flood-opacity:1" result="back"/>
		<feBlend  in="SourceGraphic" in2="back" mode="normal"/>
	</filter>
</defs>
<mask maskUnits="userSpaceOnUse" x="0" y="-40" width="20" height="26" id="SVGID_2_">
	<g filter="url(#Adobe_OpacityMaskFilter_1_)">
		<g>
			<polygon points="20,-32 20,-40 12,-40 			"/>
		</g>
	</g>
</mask>
<g mask="url(#SVGID_2_)">
	<path fill="#FFFFFF" d="M19-14H1c-0.552,0-1-0.448-1-1v-24c0-0.552,0.448-1,1-1h18c0.552,0,1,0.448,1,1v24
		C20-14.448,19.552-14,19-14z"/>
	<g>
		<path fill="#CCCCCC" d="M19-39v24H1v-24H19 M19-40H1c-0.552,0-1,0.448-1,1v24c0,0.552,0.448,1,1,1h18c0.552,0,1-0.448,1-1v-24
			C20-39.552,19.552-40,19-40L19-40z"/>
	</g>
</g>
<g>
	<path fill="#CCCCCC" d="M13-37.586L17.586-33h-4.172L13-33.414V-37.586 M12-40v7l1,1h7L12-40L12-40z"/>
</g>
<defs>
	<filter id="Adobe_OpacityMaskFilter_2_" filterUnits="userSpaceOnUse" x="47" y="0" width="45" height="61">
		<feFlood  style="flood-color:white;flood-opacity:1" result="back"/>
		<feBlend  in="SourceGraphic" in2="back" mode="normal"/>
	</filter>
</defs>
<mask maskUnits="userSpaceOnUse" x="47" y="0" width="45" height="61" id="SVGID_3_">
	<g filter="url(#Adobe_OpacityMaskFilter_2_)">
		<polyline points="76,0 92,0 92,16 		"/>
	</g>
</mask>
<g mask="url(#SVGID_3_)">
	<path fill="#FFFFFF" d="M49.5,60.5c-1.103,0-2-0.897-2-2v-56c0-1.103,0.897-2,2-2h40c1.103,0,2,0.897,2,2v56c0,1.103-0.897,2-2,2
		H49.5z"/>
	<path fill="#CCCCCC" d="M89.5,1C90.327,1,91,1.673,91,2.5v56c0,0.827-0.673,1.5-1.5,1.5h-40c-0.827,0-1.5-0.673-1.5-1.5v-56
		C48,1.673,48.673,1,49.5,1H89.5 M89.5,0h-40C48.125,0,47,1.125,47,2.5v56c0,1.375,1.125,2.5,2.5,2.5h40c1.375,0,2.5-1.125,2.5-2.5
		v-56C92,1.125,90.875,0,89.5,0L89.5,0z"/>
</g>
<g>
	<polygon fill="#FFFFFF" points="79.103,15.5 77.281,14.719 76.5,12.897 76.5,1.207 90.793,15.5 	"/>
	<path fill="#CCCCCC" d="M77,2.414L89.586,15H79.205l-1.544-0.662L77,12.795V2.414 M76,0v13l0.9,2.1L79,16h13L76,0L76,0z"/>
</g>
<rect y="-40" fill="none" width="20" height="26"/>
<g>
	<path fill="#CCCCCC" d="M19,25H1V1h11V0H1C0.448,0,0,0.448,0,1v24c0,0.552,0.448,1,1,1h18c0.552,0,1-0.448,1-1V8h-1V25z"/>
</g>
<g>
	<path fill="#CCCCCC" d="M13,1.414L18.586,7H13V1.414 M12.5,0C12.225,0,12,0.45,12,1v6c0,0.55,0.45,1,1,1h6c0.55,0,1-0.225,1-0.5
		s-0.318-0.818-0.707-1.207l-5.586-5.586C13.318,0.318,12.775,0,12.5,0L12.5,0z"/>
</g>
<rect x="47" fill="none" width="45" height="61"/>
<path d="M161,30h-26c-1.1,0-2-0.9-2-2v-1c0-1.1,0.9-2,2-2h26c1.1,0,2,0.9,2,2v1C163,29.1,162.1,30,161,30z"/>
<rect x="230" y="102" width="18" height="2"/>
<rect x="230" y="108" width="18" height="2"/>
<rect x="230" y="114" width="18" height="2"/>
<rect x="225" y="108" width="3" height="2"/>
<rect x="225" y="102" width="3" height="2"/>
<rect x="225" y="114" width="3" height="2"/>
<rect x="225" y="102" fill="none" width="23" height="14"/>
<g>
	<path fill="#CCCCCC" d="M118,134H82V86h22v-2H82c-1.105,0-2,0.895-2,2v48c0,1.105,0.895,2,2,2h36c1.105,0,2-0.895,2-2v-34h-2V134z"
		/>
</g>
<g>
	<path fill="#CCCCCC" d="M106,86.828L106,86.828L117.172,98H106V86.828 M105,84c-0.55,0-1,0.9-1,2v12c0,1.1,0.9,2,2,2h12
		c1.1,0,2-0.45,2-1s-0.636-1.636-1.414-2.414l-11.172-11.172C106.636,84.636,105.55,84,105,84L105,84z"/>
</g>
<path fill="none" stroke="#999999" stroke-miterlimit="10" d="M-160.5,63v-1c0-0.828-0.672-1.5-1.5-1.5s-1.5,0.672-1.5,1.5v1"/>
<g>
	<path fill="#CCCCCC" d="M-165,117v-3c0-0.55,0.45-1,1-1h4c0.55,0,1,0.45,1,1v3"/>
</g>
<path fill="none" stroke="#CCCCCC" stroke-miterlimit="10" d="M-163.5,113v-1c0-0.828-0.672-1.5-1.5-1.5s-1.5,0.672-1.5,1.5v1"/>
<g>
	<g>
		<path fill="#FFFFFF" d="M-223,222c0,2.2-1.8,4-4,4h-44c-2.2,0-4-1.8-4-4v-34c0-2.2,1.8-4,4-4h10c2.2,0,4.45,0.9,5,2
			c0.55,1.1,2.8,2,5.001,2H-227c2.2,0,4,1.8,4,4V222z"/>
		<g>
			<path fill="#CCCCCC" d="M-261,186c1.585,0,2.946,0.61,3.234,0.938c1.043,2.01,4.184,3.062,6.767,3.062H-227c1.103,0,2,0.897,2,2
				v30c0,1.103-0.897,2-2,2h-44c-1.103,0-2-0.897-2-2v-34c0-1.103,0.897-2,2-2H-261 M-261,184h-10c-2.2,0-4,1.8-4,4v34
				c0,2.2,1.8,4,4,4h44c2.2,0,4-1.8,4-4v-30c0-2.2-1.8-4-4-4h-23.999c-2.2,0-4.45-0.9-5-2C-256.55,184.9-258.8,184-261,184L-261,184
				z"/>
		</g>
	</g>
	<g>
		<rect x="-273" y="196" fill="#E5E5E5" width="48" height="2"/>
	</g>
</g>
<g>
	<path fill="#999999" d="M-243,216v-6c0-1.1,0.9-2,2-2h8c1.1,0,2,0.9,2,2v6"/>
</g>
<path fill="none" stroke="#999999" stroke-width="2" stroke-miterlimit="10" d="M-234,208v-2c0-1.657-1.343-3-3-3s-3,1.343-3,3v2"/>
<path fill="none" stroke="#999999" stroke-miterlimit="10" d="M-57.5,93v-1.5c0-1.105-0.895-2-2-2s-2,0.895-2,2V93"/>
<rect x="-75" y="195" width="17" height="2"/>
<polyline fill="none" stroke="#000000" stroke-width="2" stroke-miterlimit="10" points="-70,190 -76,196 -70,202 "/>
<rect x="-26" y="195" width="17" height="2"/>
<polyline fill="none" stroke="#000000" stroke-width="2" stroke-miterlimit="10" points="-14,190 -8,196 -14,202 "/>
</svg>
