<?xml version="1.0" encoding="utf-8"?>
<!-- Generator: Adobe Illustrator 18.0.0, SVG Export Plug-In . SVG Version: 6.00 Build 0)  -->
<!DOCTYPE svg PUBLIC "-//W3C//DTD SVG 1.1//EN" "http://www.w3.org/Graphics/SVG/1.1/DTD/svg11.dtd">
<svg version="1.1" id="Layer_1" xmlns="http://www.w3.org/2000/svg" xmlns:xlink="http://www.w3.org/1999/xlink" x="0px" y="0px"
	 width="20px" height="26px" viewBox="0 0 20 26" enable-background="new 0 0 20 26" xml:space="preserve">
<polygon fill="#FFFFFF" points="19,7.5 19,25 1,25 1,1 12.5,1 "/>
<g>
	<path fill="#CCCCCC" d="M13,0H1C0.448,0,0,0.448,0,1v24c0,0.552,0.448,1,1,1h18c0.552,0,1-0.448,1-1V7L13,0z M19,7.5V25H1V1h11.5
		L19,7.5z"/>
</g>
<g>
	<path fill="#CCCCCC" d="M12,0v6.857C12,7.486,12.514,8,13.143,8H20"/>
</g>
<polyline fill="#FFFFFF" points="18.5,7 13,7 13,1.5 "/>
<g>
	<path fill="#1EA0BD" d="M20,16v9c0,0.55-0.45,1-1,1H1c-0.55,0-1-0.45-1-1v-9"/>
</g>
<g>
	<polyline fill="#26C8EC" points="19,16 19,25 1,25 1,16 	"/>
</g>
</svg>
