<?xml version="1.0" encoding="utf-8"?>
<!-- Generator: Adobe Illustrator 18.0.0, SVG Export Plug-In . SVG Version: 6.00 Build 0)  -->
<!DOCTYPE svg PUBLIC "-//W3C//DTD SVG 1.1//EN" "http://www.w3.org/Graphics/SVG/1.1/DTD/svg11.dtd">
<svg version="1.1" id="Layer_1" xmlns="http://www.w3.org/2000/svg" xmlns:xlink="http://www.w3.org/1999/xlink" x="0px" y="0px"
	 width="26px" height="21px" viewBox="0 0 26 21" enable-background="new 0 0 26 21" xml:space="preserve">
<g>
	<g>
		<path fill="#FFFFFF" d="M26-81c0,1.1-0.9,2-2,2H2c-1.1,0-2-0.9-2-2v-17c0-1.1,0.9-2,2-2h5c1.1,0,2.225,0.45,2.5,1
			c0.275,0.55,1.4,1,2.5,1h12c1.1,0,2,0.9,2,2V-81z"/>
		<g>
			<path fill="#CCCCCC" d="M7-99c0.805,0,1.495,0.315,1.606,0.447C9.116-97.533,10.7-97,12-97h12c0.551,0,1,0.449,1,1v15
				c0,0.551-0.449,1-1,1H2c-0.551,0-1-0.449-1-1v-17c0-0.551,0.449-1,1-1H7 M7-100H2c-1.1,0-2,0.9-2,2v17c0,1.1,0.9,2,2,2h22
				c1.1,0,2-0.9,2-2v-15c0-1.1-0.9-2-2-2H12c-1.1,0-2.225-0.45-2.5-1C9.225-99.55,8.1-100,7-100L7-100z"/>
		</g>
	</g>
	<g>
		<path fill="#E5E5E5" d="M25-93.485C25-93.218,24.782-93,24.515-93H1.485C1.218-93,1-93.218,1-93.485v-0.03
			C1-93.782,1.218-94,1.485-94h23.03C24.782-94,25-93.782,25-93.515V-93.485z"/>
	</g>
</g>
<g>
	<g>
		<path fill="#FFFFFF" d="M26-31c0,1.1-0.9,2-2,2H2c-1.1,0-2-0.9-2-2v-17c0-1.1,0.9-2,2-2h5c1.1,0,2.225,0.45,2.5,1
			c0.275,0.55,1.4,1,2.5,1h12c1.1,0,2,0.9,2,2V-31z"/>
		<g>
			<path fill="#CCCCCC" d="M7-49c0.805,0,1.495,0.315,1.606,0.447C9.116-47.533,10.7-47,12-47h12c0.551,0,1,0.449,1,1v15
				c0,0.551-0.449,1-1,1H2c-0.551,0-1-0.449-1-1v-17c0-0.551,0.449-1,1-1H7 M7-50H2c-1.1,0-2,0.9-2,2v17c0,1.1,0.9,2,2,2h22
				c1.1,0,2-0.9,2-2v-15c0-1.1-0.9-2-2-2H12c-1.1,0-2.225-0.45-2.5-1C9.225-49.55,8.1-50,7-50L7-50z"/>
		</g>
	</g>
	<g>
		<rect x="1" y="-44" fill="#E5E5E5" width="24" height="1"/>
	</g>
</g>
<g>
	<g>
		<path fill="#FFFFFF" d="M26,19c0,1.1-0.9,2-2,2H2c-1.1,0-2-0.9-2-2V2c0-1.1,0.9-2,2-2h5c1.1,0,2.225,0.45,2.5,1
			c0.275,0.55,1.4,1,2.5,1h12c1.1,0,2,0.9,2,2V19z"/>
		<g>
			<path fill="#CCCCCC" d="M7,1c0.805,0,1.495,0.315,1.606,0.447C9.116,2.467,10.7,3,12,3h12c0.551,0,1,0.449,1,1v15
				c0,0.551-0.449,1-1,1H2c-0.551,0-1-0.449-1-1V2c0-0.551,0.449-1,1-1H7 M7,0H2C0.9,0,0,0.9,0,2v17c0,1.1,0.9,2,2,2h22
				c1.1,0,2-0.9,2-2V4c0-1.1-0.9-2-2-2H12c-1.1,0-2.225-0.45-2.5-1C9.225,0.45,8.1,0,7,0L7,0z"/>
		</g>
	</g>
	<g>
		<path fill="#E5E5E5" d="M25,6.515C25,6.782,24.782,7,24.515,7H1.485C1.218,7,1,6.782,1,6.515v-0.03C1,6.218,1.218,6,1.485,6h23.03
			C24.782,6,25,6.218,25,6.485V6.515z"/>
	</g>
</g>
<defs>
	<filter id="Adobe_OpacityMaskFilter" filterUnits="userSpaceOnUse" x="-21" y="7" width="13" height="10">
		<feColorMatrix  type="matrix" values="1 0 0 0 0  0 1 0 0 0  0 0 1 0 0  0 0 0 1 0"/>
	</filter>
</defs>
<mask maskUnits="userSpaceOnUse" x="-21" y="7" width="13" height="10" id="SVGID_1_">
	<g filter="url(#Adobe_OpacityMaskFilter)">
		<g>
			<path fill="#FFFFFF" d="M-15.5,10c0.786,0,1.425,0.639,1.425,1.425s-0.639,1.425-1.425,1.425s-1.425-0.639-1.425-1.425
				S-16.286,10-15.5,10 M-15.5,9c-1.34,0-2.425,1.085-2.425,2.425s1.085,2.425,2.425,2.425s2.425-1.085,2.425-2.425S-14.16,9-15.5,9
				L-15.5,9z"/>
		</g>
		<g>
			<rect x="-15" y="12" fill="#FFFFFF" width="7" height="5"/>
		</g>
		<rect x="-24" y="12" width="9" height="6"/>
	</g>
</mask>
<rect x="-21" y="7" opacity="0.15" mask="url(#SVGID_1_)" width="13" height="10"/>
<g>
	<path fill="#FFFFFF" d="M131-57c0,1.65-1.35,3-3,3H79c-1.65,0-3-1.35-3-3v-40c0-1.65,1.35-3,3-3h13.038
		c1.65,0,3.449,1.273,3.998,2.829l0.121,0.342C96.706-95.273,98.505-94,100.155-94H128c1.65,0,3,1.35,3,3V-57z"/>
	<g>
		<path fill="#CCCCCC" d="M92.038-99c1.221,0,2.649,1.01,3.055,2.162l0.121,0.342C95.905-94.536,98.076-93,100.155-93H128
			c1.103,0,2,0.897,2,2v34c0,1.103-0.897,2-2,2H79c-1.103,0-2-0.897-2-2v-40c0-1.103,0.897-2,2-2H92.038 M92.038-100H79
			c-1.65,0-3,1.35-3,3v40c0,1.65,1.35,3,3,3h49c1.65,0,3-1.35,3-3v-34c0-1.65-1.35-3-3-3h-27.845c-1.65,0-3.449-1.273-3.998-2.829
			l-0.121-0.342C95.488-98.727,93.688-100,92.038-100L92.038-100z"/>
	</g>
</g>
<rect x="77" y="-88" fill="#E5E5E5" width="53" height="1"/>
<g>
	<path fill="#FFFFFF" d="M131,3c0,1.65-1.35,3-3,3H79c-1.65,0-3-1.35-3-3v-40c0-1.65,1.35-3,3-3h13.038
		c1.65,0,3.449,1.273,3.998,2.829l0.121,0.342C96.706-35.273,98.505-34,100.155-34H128c1.65,0,3,1.35,3,3V3z"/>
	<g>
		<path fill="#CCCCCC" d="M92.038-39c1.221,0,2.649,1.01,3.055,2.162l0.121,0.342C95.905-34.536,98.076-33,100.155-33H128
			c1.103,0,2,0.897,2,2V3c0,1.103-0.897,2-2,2H79c-1.103,0-2-0.897-2-2v-40c0-1.103,0.897-2,2-2H92.038 M92.038-40H79
			c-1.65,0-3,1.35-3,3V3c0,1.65,1.35,3,3,3h49c1.65,0,3-1.35,3-3v-34c0-1.65-1.35-3-3-3h-27.845c-1.65,0-3.449-1.273-3.998-2.829
			l-0.121-0.342C95.488-38.727,93.688-40,92.038-40L92.038-40z"/>
	</g>
</g>
<rect x="77" y="-28" fill="#E5E5E5" width="53" height="1"/>
<g>
	<path fill="#FFFFFF" d="M131,63c0,1.65-1.35,3-3,3H79c-1.65,0-3-1.35-3-3V23c0-1.65,1.35-3,3-3h13.038
		c1.65,0,3.449,1.273,3.998,2.829l0.121,0.342C96.706,24.727,98.505,26,100.155,26H128c1.65,0,3,1.35,3,3V63z"/>
	<g>
		<path fill="#CCCCCC" d="M92.038,21c1.221,0,2.649,1.01,3.055,2.162l0.121,0.342C95.905,25.464,98.076,27,100.155,27H128
			c1.103,0,2,0.897,2,2v34c0,1.103-0.897,2-2,2H79c-1.103,0-2-0.897-2-2V23c0-1.103,0.897-2,2-2H92.038 M92.038,20H79
			c-1.65,0-3,1.35-3,3v40c0,1.65,1.35,3,3,3h49c1.65,0,3-1.35,3-3V29c0-1.65-1.35-3-3-3h-27.845c-1.65,0-3.449-1.273-3.998-2.829
			l-0.121-0.342C95.488,21.273,93.688,20,92.038,20L92.038,20z"/>
	</g>
</g>
<rect x="77" y="32" fill="#E5E5E5" width="53" height="1"/>
<defs>
	<filter id="Adobe_OpacityMaskFilter_1_" filterUnits="userSpaceOnUse" x="109" y="48" width="17" height="12">
		<feColorMatrix  type="matrix" values="1 0 0 0 0  0 1 0 0 0  0 0 1 0 0  0 0 0 1 0"/>
	</filter>
</defs>
<mask maskUnits="userSpaceOnUse" x="109" y="48" width="17" height="12" id="SVGID_2_">
	<g filter="url(#Adobe_OpacityMaskFilter_1_)">
		<g>
			<path fill="#FFFFFF" d="M114.5,50.525c1.048,0,1.9,0.852,1.9,1.9s-0.852,1.9-1.9,1.9s-1.9-0.852-1.9-1.9
				S113.452,50.525,114.5,50.525 M114.5,49.025c-1.879,0-3.4,1.521-3.4,3.4s1.521,3.4,3.4,3.4c1.879,0,3.4-1.521,3.4-3.4
				S116.379,49.025,114.5,49.025L114.5,49.025z"/>
		</g>
		<g>
			<rect x="116" y="53" fill="#FFFFFF" width="9" height="6"/>
		</g>
		<g>
			<rect x="107" y="53" width="9" height="6"/>
		</g>
	</g>
</mask>
<rect x="109" y="48" opacity="0.15" mask="url(#SVGID_2_)" width="17" height="12"/>
<g>
	<path fill="#999999" d="M16-33v-3c0-0.55,0.45-1,1-1h4c0.55,0,1,0.45,1,1v3"/>
</g>
<g>
	<path fill="#999999" d="M120.5-9.475c1.048,0,1.9,0.852,1.9,1.9s-0.852,1.9-1.9,1.9s-1.9-0.852-1.9-1.9S119.452-9.475,120.5-9.475
		 M120.5-10.975c-1.879,0-3.4,1.521-3.4,3.4s1.521,3.4,3.4,3.4c1.879,0,3.4-1.521,3.4-3.4S122.379-10.975,120.5-10.975L120.5-10.975
		z"/>
</g>
<g>
	<rect x="116" y="-7" fill="#999999" width="9" height="6"/>
</g>
<defs>
	<filter id="Adobe_OpacityMaskFilter_2_" filterUnits="userSpaceOnUse" x="181" y="-100" width="20" height="26">
		<feFlood  style="flood-color:white;flood-opacity:1" result="back"/>
		<feBlend  in="SourceGraphic" in2="back" mode="normal"/>
	</filter>
</defs>
<mask maskUnits="userSpaceOnUse" x="181" y="-100" width="20" height="26" id="SVGID_3_">
	<g filter="url(#Adobe_OpacityMaskFilter_2_)">
		<g>
			<polygon points="201,-92 201,-100 193,-100 			"/>
		</g>
	</g>
</mask>
<g mask="url(#SVGID_3_)">
	<path fill="#FFFFFF" d="M200-74h-18c-0.552,0-1-0.448-1-1v-24c0-0.552,0.448-1,1-1h18c0.552,0,1,0.448,1,1v24
		C201-74.448,200.552-74,200-74z"/>
	<g>
		<path fill="#CCCCCC" d="M200-99v24h-18v-24H200 M200-100h-18c-0.552,0-1,0.448-1,1v24c0,0.552,0.448,1,1,1h18c0.552,0,1-0.448,1-1
			v-24C201-99.552,200.552-100,200-100L200-100z"/>
	</g>
</g>
<g>
	<path fill="#CCCCCC" d="M200-35h-18v-24h11v-1h-11c-0.552,0-1,0.448-1,1v24c0,0.552,0.448,1,1,1h18c0.552,0,1-0.448,1-1v-17h-1V-35
		z"/>
</g>
<g>
	<path fill="#CCCCCC" d="M194-97.586L198.586-93h-4.172L194-93.414V-97.586 M193-100v7l1,1h7L193-100L193-100z"/>
</g>
<defs>
	<filter id="Adobe_OpacityMaskFilter_3_" filterUnits="userSpaceOnUse" x="228" y="-100" width="45" height="61">
		<feFlood  style="flood-color:white;flood-opacity:1" result="back"/>
		<feBlend  in="SourceGraphic" in2="back" mode="normal"/>
	</filter>
</defs>
<mask maskUnits="userSpaceOnUse" x="228" y="-100" width="45" height="61" id="SVGID_4_">
	<g filter="url(#Adobe_OpacityMaskFilter_3_)">
		<polyline points="257,-100 273,-100 273,-84 		"/>
	</g>
</mask>
<g mask="url(#SVGID_4_)">
	<path fill="#FFFFFF" d="M230.5-39.5c-1.103,0-2-0.897-2-2v-56c0-1.103,0.897-2,2-2h40c1.103,0,2,0.897,2,2v56c0,1.103-0.897,2-2,2
		H230.5z"/>
	<path fill="#CCCCCC" d="M270.5-99c0.827,0,1.5,0.673,1.5,1.5v56c0,0.827-0.673,1.5-1.5,1.5h-40c-0.827,0-1.5-0.673-1.5-1.5v-56
		c0-0.827,0.673-1.5,1.5-1.5H270.5 M270.5-100h-40c-1.375,0-2.5,1.125-2.5,2.5v56c0,1.375,1.125,2.5,2.5,2.5h40
		c1.375,0,2.5-1.125,2.5-2.5v-56C273-98.875,271.875-100,270.5-100L270.5-100z"/>
</g>
<g>
	<polygon fill="#FFFFFF" points="260.103,-84.5 258.281,-85.281 257.5,-87.103 257.5,-98.793 271.793,-84.5 	"/>
	<path fill="#CCCCCC" d="M258-97.586L270.586-85h-10.381l-1.544-0.662L258-87.205V-97.586 M257-100v13l0.9,2.1L260-84h13L257-100
		L257-100z"/>
</g>
<rect x="181" y="-100" fill="none" width="20" height="26"/>
<rect x="228" y="-100" fill="none" width="45" height="61"/>
<path d="M342-70h-26c-1.1,0-2-0.9-2-2v-1c0-1.1,0.9-2,2-2h26c1.1,0,2,0.9,2,2v1C344-70.9,343.1-70,342-70z"/>
<defs>
	<filter id="Adobe_OpacityMaskFilter_4_" filterUnits="userSpaceOnUse" x="179" y="1" width="19" height="14">
		<feColorMatrix  type="matrix" values="1 0 0 0 0  0 1 0 0 0  0 0 1 0 0  0 0 0 1 0"/>
	</filter>
</defs>
<mask maskUnits="userSpaceOnUse" x="179" y="1" width="19" height="14" id="SVGID_5_">
	<g filter="url(#Adobe_OpacityMaskFilter_4_)">
		<rect x="179" y="7" fill="#FFFFFF" width="17" height="2"/>
		<polyline fill="none" stroke="#FFFFFF" stroke-width="1.6" stroke-miterlimit="10" points="191,2 197,8 191,14 		"/>
	</g>
</mask>
<rect x="179" y="1" mask="url(#SVGID_5_)" fill="#B2B2B2" width="19" height="14"/>
<defs>
	<filter id="Adobe_OpacityMaskFilter_5_" filterUnits="userSpaceOnUse" x="104" y="1" width="19" height="14">
		<feColorMatrix  type="matrix" values="1 0 0 0 0  0 1 0 0 0  0 0 1 0 0  0 0 0 1 0"/>
	</filter>
</defs>
<mask maskUnits="userSpaceOnUse" x="104" y="1" width="19" height="14" id="SVGID_6_">
	<g filter="url(#Adobe_OpacityMaskFilter_5_)">
		<rect x="106" y="7" fill="#FFFFFF" width="17" height="2"/>
		<polyline fill="none" stroke="#FFFFFF" stroke-width="1.6" stroke-miterlimit="10" points="111,2 105,8 111,14 		"/>
	</g>
</mask>
<rect x="104" y="1" mask="url(#SVGID_6_)" fill="#B2B2B2" width="19" height="14"/>
<rect x="411" y="2" width="18" height="2"/>
<rect x="411" y="8" width="18" height="2"/>
<rect x="411" y="14" width="18" height="2"/>
<rect x="406" y="8" width="3" height="2"/>
<rect x="406" y="2" width="3" height="2"/>
<rect x="406" y="14" width="3" height="2"/>
<rect x="406" y="2" fill="none" width="23" height="14"/>
<g>
	<path fill="#CCCCCC" d="M194-58.586L199.586-53H194V-58.586 M193.5-60c-0.275,0-0.5,0.45-0.5,1v6c0,0.55,0.45,1,1,1h6
		c0.55,0,1-0.225,1-0.5s-0.318-0.818-0.707-1.207l-5.586-5.586C194.318-59.682,193.775-60,193.5-60L193.5-60z"/>
</g>
<g>
	<path fill="#CCCCCC" d="M299,34h-36v-48h22v-2h-22c-1.105,0-2,0.895-2,2v48c0,1.105,0.895,2,2,2h36c1.105,0,2-0.895,2-2V0h-2V34z"
		/>
</g>
<g>
	<path fill="#CCCCCC" d="M287-13.172L287-13.172L298.172-2H287V-13.172 M286-16c-0.55,0-1,0.9-1,2v12c0,1.1,0.9,2,2,2h12
		c1.1,0,2-0.45,2-1s-0.636-1.636-1.414-2.414l-11.172-11.172C287.636-15.364,286.55-16,286-16L286-16z"/>
</g>
<path fill="none" stroke="#999999" stroke-miterlimit="10" d="M20.5-37v-1c0-0.828-0.672-1.5-1.5-1.5s-1.5,0.672-1.5,1.5v1"/>
<g>
	<path fill="#CCCCCC" d="M16,17v-3c0-0.55,0.45-1,1-1h4c0.55,0,1,0.45,1,1v3"/>
</g>
<path fill="none" stroke="#CCCCCC" stroke-miterlimit="10" d="M17.5,13v-1c0-0.828-0.672-1.5-1.5-1.5c-0.828,0-1.5,0.672-1.5,1.5v1"
	/>
<g>
	<g>
		<path fill="#FFFFFF" d="M-42,122c0,2.2-1.8,4-4,4h-44c-2.2,0-4-1.8-4-4V88c0-2.2,1.8-4,4-4h10c2.2,0,4.45,0.9,5,2
			c0.55,1.1,2.8,2,5,2H-46c2.2,0,4,1.8,4,4V122z"/>
		<g>
			<path fill="#CCCCCC" d="M-80,86c1.585,0,2.946,0.61,3.234,0.938c1.043,2.01,4.184,3.062,6.767,3.062H-46c1.103,0,2,0.897,2,2v30
				c0,1.103-0.897,2-2,2h-44c-1.103,0-2-0.897-2-2V88c0-1.103,0.897-2,2-2H-80 M-80,84h-10c-2.2,0-4,1.8-4,4v34c0,2.2,1.8,4,4,4h44
				c2.2,0,4-1.8,4-4V92c0-2.2-1.8-4-4-4h-23.999c-2.2,0-4.45-0.9-5-2C-75.55,84.9-77.8,84-80,84L-80,84z"/>
		</g>
	</g>
	<g>
		<rect x="-92" y="96" fill="#E5E5E5" width="48" height="2"/>
	</g>
</g>
<g>
	<path fill="#999999" d="M-62,116v-6c0-1.1,0.9-2,2-2h8c1.1,0,2,0.9,2,2v6"/>
</g>
<path fill="none" stroke="#999999" stroke-width="2" stroke-miterlimit="10" d="M-53,108v-2c0-1.657-1.343-3-3-3s-3,1.343-3,3v2"/>
</svg>
