<?xml version="1.0" encoding="utf-8"?>
<!-- Generator: Adobe Illustrator 18.0.0, SVG Export Plug-In . SVG Version: 6.00 Build 0)  -->
<!DOCTYPE svg PUBLIC "-//W3C//DTD SVG 1.1//EN" "http://www.w3.org/Graphics/SVG/1.1/DTD/svg11.dtd">
<svg version="1.1" id="Layer_1" xmlns="http://www.w3.org/2000/svg" xmlns:xlink="http://www.w3.org/1999/xlink" x="0px" y="0px"
	 width="26px" height="21px" viewBox="0 0 26 21" enable-background="new 0 0 26 21" xml:space="preserve">
<g>
	<g>
		<g>
			<path fill="#CCCCCC" d="M7,0H2C0.9,0,0,0.9,0,2v17c0,1.1,0.9,2,2,2h22c1.1,0,2-0.9,2-2V4c0-1.1-0.9-2-2-2H12
				c-1.1,0-1.625-0.125-2.5-1C8.828,0.328,8.1,0,7,0L7,0z M7,0H2C0.9,0,0,0.9,0,2v17c0,1.1,0.9,2,2,2h22c1.1,0,2-0.9,2-2V4
				c0-1.1-0.9-2-2-2H12c-1.1,0-1.625-0.125-2.5-1C8.828,0.328,8.1,0,7,0L7,0z"/>
		</g>
	</g>
</g>
<path fill="#FFFFFF" d="M7,1c0.805,0,1.383,0.383,2,1c0.75,0.75,1.7,1,3,1h12c0.551,0,1,0.449,1,1v15c0,0.551-0.449,1-1,1H2
	c-0.551,0-1-0.449-1-1V2c0-0.551,0.449-1,1-1H7"/>
<rect x="1" y="6" fill="#E6E6E6" width="24" height="1"/>
<path fill="#CCCCCC" d="M21,12h-3v-1c0-1.103-0.897-2-2-2s-2,0.897-2,2v1h1v-1c0-0.552,0.449-1,1-1c0.551,0,1,0.448,1,1v1
	c-0.55,0-1,0.45-1,1v3c0,0.55,0.45,1,1,1h4c0.55,0,1-0.45,1-1v-3C22,12.45,21.55,12,21,12z"/>
</svg>
