<?xml version="1.0" encoding="utf-8"?>
<!-- Generator: Adobe Illustrator 18.0.0, SVG Export Plug-In . SVG Version: 6.00 Build 0)  -->
<!DOCTYPE svg PUBLIC "-//W3C//DTD SVG 1.1//EN" "http://www.w3.org/Graphics/SVG/1.1/DTD/svg11.dtd">
<svg version="1.1" id="Layer_1" xmlns="http://www.w3.org/2000/svg" xmlns:xlink="http://www.w3.org/1999/xlink" x="0px" y="0px"
	 width="26px" height="21px" viewBox="0 0 26 21" enable-background="new 0 0 26 21" xml:space="preserve">
<g>
	<g>
		<path fill="#FFFFFF" d="M26-31c0,1.1-0.9,2-2,2H2c-1.1,0-2-0.9-2-2v-17c0-1.1,0.9-2,2-2h5c1.1,0,2.225,0.45,2.5,1
			c0.275,0.55,1.4,1,2.5,1h12c1.1,0,2,0.9,2,2V-31z"/>
		<g>
			<path fill="#CCCCCC" d="M7-49c0.805,0,1.495,0.315,1.606,0.447C9.116-47.533,10.7-47,12-47h12c0.551,0,1,0.449,1,1v15
				c0,0.551-0.449,1-1,1H2c-0.551,0-1-0.449-1-1v-17c0-0.551,0.449-1,1-1H7 M7-50H2c-1.1,0-2,0.9-2,2v17c0,1.1,0.9,2,2,2h22
				c1.1,0,2-0.9,2-2v-15c0-1.1-0.9-2-2-2H12c-1.1,0-2.225-0.45-2.5-1C9.225-49.55,8.1-50,7-50L7-50z"/>
		</g>
	</g>
	<g>
		<path fill="#E5E5E5" d="M25-43.485C25-43.218,24.782-43,24.515-43H1.485C1.218-43,1-43.218,1-43.485v-0.03
			C1-43.782,1.218-44,1.485-44h23.03C24.782-44,25-43.782,25-43.515V-43.485z"/>
	</g>
</g>
<g>
	<g>
		<path fill="#FFFFFF" d="M26,19c0,1.1-0.9,2-2,2H2c-1.1,0-2-0.9-2-2V2c0-1.1,0.9-2,2-2h5c1.1,0,2.225,0.45,2.5,1
			c0.275,0.55,1.4,1,2.5,1h12c1.1,0,2,0.9,2,2V19z"/>
		<g>
			<path fill="#CCCCCC" d="M7,1c0.805,0,1.495,0.315,1.606,0.447C9.116,2.467,10.7,3,12,3h12c0.551,0,1,0.449,1,1v15
				c0,0.551-0.449,1-1,1H2c-0.551,0-1-0.449-1-1V2c0-0.551,0.449-1,1-1H7 M7,0H2C0.9,0,0,0.9,0,2v17c0,1.1,0.9,2,2,2h22
				c1.1,0,2-0.9,2-2V4c0-1.1-0.9-2-2-2H12c-1.1,0-2.225-0.45-2.5-1C9.225,0.45,8.1,0,7,0L7,0z"/>
		</g>
	</g>
	<g>
		<rect x="1" y="6" fill="#E5E5E5" width="24" height="1"/>
	</g>
</g>
<g>
	<g>
		<path fill="#FFFFFF" d="M26,69c0,1.1-0.9,2-2,2H2c-1.1,0-2-0.9-2-2V52c0-1.1,0.9-2,2-2h5c1.1,0,2.225,0.45,2.5,1
			c0.275,0.55,1.4,1,2.5,1h12c1.1,0,2,0.9,2,2V69z"/>
		<g>
			<path fill="#CCCCCC" d="M7,51c0.805,0,1.495,0.315,1.606,0.447C9.116,52.467,10.7,53,12,53h12c0.551,0,1,0.449,1,1v15
				c0,0.551-0.449,1-1,1H2c-0.551,0-1-0.449-1-1V52c0-0.551,0.449-1,1-1H7 M7,50H2c-1.1,0-2,0.9-2,2v17c0,1.1,0.9,2,2,2h22
				c1.1,0,2-0.9,2-2V54c0-1.1-0.9-2-2-2H12c-1.1,0-2.225-0.45-2.5-1C9.225,50.45,8.1,50,7,50L7,50z"/>
		</g>
	</g>
	<g>
		<path fill="#E5E5E5" d="M25,56.515C25,56.782,24.782,57,24.515,57H1.485C1.218,57,1,56.782,1,56.515v-0.03
			C1,56.218,1.218,56,1.485,56h23.03C24.782,56,25,56.218,25,56.485V56.515z"/>
	</g>
</g>
<defs>
	<filter id="Adobe_OpacityMaskFilter" filterUnits="userSpaceOnUse" x="9" y="57" width="13" height="10">
		<feColorMatrix  type="matrix" values="1 0 0 0 0  0 1 0 0 0  0 0 1 0 0  0 0 0 1 0"/>
	</filter>
</defs>
<mask maskUnits="userSpaceOnUse" x="9" y="57" width="13" height="10" id="SVGID_1_">
	<g filter="url(#Adobe_OpacityMaskFilter)">
		<g>
			<path fill="#FFFFFF" d="M14.5,60c0.786,0,1.425,0.639,1.425,1.425S15.286,62.85,14.5,62.85s-1.425-0.639-1.425-1.425
				S13.714,60,14.5,60 M14.5,59c-1.34,0-2.425,1.085-2.425,2.425S13.16,63.85,14.5,63.85s2.425-1.085,2.425-2.425S15.84,59,14.5,59
				L14.5,59z"/>
		</g>
		<g>
			<rect x="15" y="62" fill="#FFFFFF" width="7" height="5"/>
		</g>
		<rect x="6" y="62" width="9" height="6"/>
	</g>
</mask>
<rect x="9" y="57" opacity="0.15" mask="url(#SVGID_1_)" width="13" height="10"/>
<g>
	<path fill="#FFFFFF" d="M131-7c0,1.65-1.35,3-3,3H79c-1.65,0-3-1.35-3-3v-40c0-1.65,1.35-3,3-3h13.038
		c1.65,0,3.449,1.273,3.998,2.829l0.121,0.342C96.706-45.273,98.505-44,100.155-44H128c1.65,0,3,1.35,3,3V-7z"/>
	<g>
		<path fill="#CCCCCC" d="M92.038-49c1.221,0,2.649,1.01,3.055,2.162l0.121,0.342C95.905-44.536,98.076-43,100.155-43H128
			c1.103,0,2,0.897,2,2v34c0,1.103-0.897,2-2,2H79c-1.103,0-2-0.897-2-2v-40c0-1.103,0.897-2,2-2H92.038 M92.038-50H79
			c-1.65,0-3,1.35-3,3v40c0,1.65,1.35,3,3,3h49c1.65,0,3-1.35,3-3v-34c0-1.65-1.35-3-3-3h-27.845c-1.65,0-3.449-1.273-3.998-2.829
			l-0.121-0.342C95.488-48.727,93.688-50,92.038-50L92.038-50z"/>
	</g>
</g>
<rect x="77" y="-38" fill="#E5E5E5" width="53" height="1"/>
<g>
	<path fill="#FFFFFF" d="M131,53c0,1.65-1.35,3-3,3H79c-1.65,0-3-1.35-3-3V13c0-1.65,1.35-3,3-3h13.038
		c1.65,0,3.449,1.273,3.998,2.829l0.121,0.342C96.706,14.727,98.505,16,100.155,16H128c1.65,0,3,1.35,3,3V53z"/>
	<g>
		<path fill="#CCCCCC" d="M92.038,11c1.221,0,2.649,1.01,3.055,2.162l0.121,0.342C95.905,15.464,98.076,17,100.155,17H128
			c1.103,0,2,0.897,2,2v34c0,1.103-0.897,2-2,2H79c-1.103,0-2-0.897-2-2V13c0-1.103,0.897-2,2-2H92.038 M92.038,10H79
			c-1.65,0-3,1.35-3,3v40c0,1.65,1.35,3,3,3h49c1.65,0,3-1.35,3-3V19c0-1.65-1.35-3-3-3h-27.845c-1.65,0-3.449-1.273-3.998-2.829
			l-0.121-0.342C95.488,11.273,93.688,10,92.038,10L92.038,10z"/>
	</g>
</g>
<rect x="77" y="22" fill="#E5E5E5" width="53" height="1"/>
<g>
	<path fill="#FFFFFF" d="M131,113c0,1.65-1.35,3-3,3H79c-1.65,0-3-1.35-3-3V73c0-1.65,1.35-3,3-3h13.038
		c1.65,0,3.449,1.273,3.998,2.829l0.121,0.342C96.706,74.727,98.505,76,100.155,76H128c1.65,0,3,1.35,3,3V113z"/>
	<g>
		<path fill="#CCCCCC" d="M92.038,71c1.221,0,2.649,1.01,3.055,2.162l0.121,0.342C95.905,75.464,98.076,77,100.155,77H128
			c1.103,0,2,0.897,2,2v34c0,1.103-0.897,2-2,2H79c-1.103,0-2-0.897-2-2V73c0-1.103,0.897-2,2-2H92.038 M92.038,70H79
			c-1.65,0-3,1.35-3,3v40c0,1.65,1.35,3,3,3h49c1.65,0,3-1.35,3-3V79c0-1.65-1.35-3-3-3h-27.845c-1.65,0-3.449-1.273-3.998-2.829
			l-0.121-0.342C95.488,71.273,93.688,70,92.038,70L92.038,70z"/>
	</g>
</g>
<rect x="77" y="82" fill="#E5E5E5" width="53" height="1"/>
<defs>
	<filter id="Adobe_OpacityMaskFilter_1_" filterUnits="userSpaceOnUse" x="109" y="98" width="17" height="12">
		<feColorMatrix  type="matrix" values="1 0 0 0 0  0 1 0 0 0  0 0 1 0 0  0 0 0 1 0"/>
	</filter>
</defs>
<mask maskUnits="userSpaceOnUse" x="109" y="98" width="17" height="12" id="SVGID_2_">
	<g filter="url(#Adobe_OpacityMaskFilter_1_)">
		<g>
			<path fill="#FFFFFF" d="M114.5,100.525c1.048,0,1.9,0.852,1.9,1.9s-0.852,1.9-1.9,1.9s-1.9-0.852-1.9-1.9
				S113.452,100.525,114.5,100.525 M114.5,99.025c-1.879,0-3.4,1.521-3.4,3.4s1.521,3.4,3.4,3.4c1.879,0,3.4-1.521,3.4-3.4
				S116.379,99.025,114.5,99.025L114.5,99.025z"/>
		</g>
		<g>
			<rect x="116" y="103" fill="#FFFFFF" width="9" height="6"/>
		</g>
		<g>
			<rect x="107" y="103" width="9" height="6"/>
		</g>
	</g>
</mask>
<rect x="109" y="98" opacity="0.15" mask="url(#SVGID_2_)" width="17" height="12"/>
<g>
	<path fill="#999999" d="M16,17v-3c0-0.55,0.45-1,1-1h4c0.55,0,1,0.45,1,1v3"/>
</g>
<g>
	<path fill="#999999" d="M120.5,40.525c1.048,0,1.9,0.852,1.9,1.9s-0.852,1.9-1.9,1.9s-1.9-0.852-1.9-1.9
		S119.452,40.525,120.5,40.525 M120.5,39.025c-1.879,0-3.4,1.521-3.4,3.4s1.521,3.4,3.4,3.4c1.879,0,3.4-1.521,3.4-3.4
		S122.379,39.025,120.5,39.025L120.5,39.025z"/>
</g>
<g>
	<rect x="116" y="43" fill="#999999" width="9" height="6"/>
</g>
<defs>
	<filter id="Adobe_OpacityMaskFilter_2_" filterUnits="userSpaceOnUse" x="181" y="-50" width="20" height="26">
		<feFlood  style="flood-color:white;flood-opacity:1" result="back"/>
		<feBlend  in="SourceGraphic" in2="back" mode="normal"/>
	</filter>
</defs>
<mask maskUnits="userSpaceOnUse" x="181" y="-50" width="20" height="26" id="SVGID_3_">
	<g filter="url(#Adobe_OpacityMaskFilter_2_)">
		<g>
			<polygon points="201,-42 201,-50 193,-50 			"/>
		</g>
	</g>
</mask>
<g mask="url(#SVGID_3_)">
	<path fill="#FFFFFF" d="M200-24h-18c-0.552,0-1-0.448-1-1v-24c0-0.552,0.448-1,1-1h18c0.552,0,1,0.448,1,1v24
		C201-24.448,200.552-24,200-24z"/>
	<g>
		<path fill="#CCCCCC" d="M200-49v24h-18v-24H200 M200-50h-18c-0.552,0-1,0.448-1,1v24c0,0.552,0.448,1,1,1h18c0.552,0,1-0.448,1-1
			v-24C201-49.552,200.552-50,200-50L200-50z"/>
	</g>
</g>
<g>
	<path fill="#CCCCCC" d="M200,15h-18V-9h11v-1h-11c-0.552,0-1,0.448-1,1v24c0,0.552,0.448,1,1,1h18c0.552,0,1-0.448,1-1V-2h-1V15z"
		/>
</g>
<g>
	<path fill="#CCCCCC" d="M194-47.586L198.586-43h-4.172L194-43.414V-47.586 M193-50v7l1,1h7L193-50L193-50z"/>
</g>
<defs>
	<filter id="Adobe_OpacityMaskFilter_3_" filterUnits="userSpaceOnUse" x="228" y="-50" width="45" height="61">
		<feFlood  style="flood-color:white;flood-opacity:1" result="back"/>
		<feBlend  in="SourceGraphic" in2="back" mode="normal"/>
	</filter>
</defs>
<mask maskUnits="userSpaceOnUse" x="228" y="-50" width="45" height="61" id="SVGID_4_">
	<g filter="url(#Adobe_OpacityMaskFilter_3_)">
		<polyline points="257,-50 273,-50 273,-34 		"/>
	</g>
</mask>
<g mask="url(#SVGID_4_)">
	<path fill="#FFFFFF" d="M230.5,10.5c-1.103,0-2-0.897-2-2v-56c0-1.103,0.897-2,2-2h40c1.103,0,2,0.897,2,2v56c0,1.103-0.897,2-2,2
		H230.5z"/>
	<path fill="#CCCCCC" d="M270.5-49c0.827,0,1.5,0.673,1.5,1.5v56c0,0.827-0.673,1.5-1.5,1.5h-40c-0.827,0-1.5-0.673-1.5-1.5v-56
		c0-0.827,0.673-1.5,1.5-1.5H270.5 M270.5-50h-40c-1.375,0-2.5,1.125-2.5,2.5v56c0,1.375,1.125,2.5,2.5,2.5h40
		c1.375,0,2.5-1.125,2.5-2.5v-56C273-48.875,271.875-50,270.5-50L270.5-50z"/>
</g>
<g>
	<polygon fill="#FFFFFF" points="260.103,-34.5 258.281,-35.281 257.5,-37.103 257.5,-48.793 271.793,-34.5 	"/>
	<path fill="#CCCCCC" d="M258-47.586L270.586-35h-10.381l-1.544-0.662L258-37.205V-47.586 M257-50v13l0.9,2.1L260-34h13L257-50
		L257-50z"/>
</g>
<rect x="181" y="-50" fill="none" width="20" height="26"/>
<rect x="228" y="-50" fill="none" width="45" height="61"/>
<path d="M342-20h-26c-1.1,0-2-0.9-2-2v-1c0-1.1,0.9-2,2-2h26c1.1,0,2,0.9,2,2v1C344-20.9,343.1-20,342-20z"/>
<defs>
	<filter id="Adobe_OpacityMaskFilter_4_" filterUnits="userSpaceOnUse" x="179" y="51" width="19" height="14">
		<feColorMatrix  type="matrix" values="1 0 0 0 0  0 1 0 0 0  0 0 1 0 0  0 0 0 1 0"/>
	</filter>
</defs>
<mask maskUnits="userSpaceOnUse" x="179" y="51" width="19" height="14" id="SVGID_5_">
	<g filter="url(#Adobe_OpacityMaskFilter_4_)">
		<rect x="179" y="57" fill="#FFFFFF" width="17" height="2"/>
		<polyline fill="none" stroke="#FFFFFF" stroke-width="1.6" stroke-miterlimit="10" points="191,52 197,58 191,64 		"/>
	</g>
</mask>
<rect x="179" y="51" mask="url(#SVGID_5_)" fill="#B2B2B2" width="19" height="14"/>
<defs>
	<filter id="Adobe_OpacityMaskFilter_5_" filterUnits="userSpaceOnUse" x="104" y="51" width="19" height="14">
		<feColorMatrix  type="matrix" values="1 0 0 0 0  0 1 0 0 0  0 0 1 0 0  0 0 0 1 0"/>
	</filter>
</defs>
<mask maskUnits="userSpaceOnUse" x="104" y="51" width="19" height="14" id="SVGID_6_">
	<g filter="url(#Adobe_OpacityMaskFilter_5_)">
		<rect x="106" y="57" fill="#FFFFFF" width="17" height="2"/>
		<polyline fill="none" stroke="#FFFFFF" stroke-width="1.6" stroke-miterlimit="10" points="111,52 105,58 111,64 		"/>
	</g>
</mask>
<rect x="104" y="51" mask="url(#SVGID_6_)" fill="#B2B2B2" width="19" height="14"/>
<rect x="411" y="52" width="18" height="2"/>
<rect x="411" y="58" width="18" height="2"/>
<rect x="411" y="64" width="18" height="2"/>
<rect x="406" y="58" width="3" height="2"/>
<rect x="406" y="52" width="3" height="2"/>
<rect x="406" y="64" width="3" height="2"/>
<rect x="406" y="52" fill="none" width="23" height="14"/>
<g>
	<path fill="#CCCCCC" d="M194-8.586L199.586-3H194V-8.586 M193.5-10c-0.275,0-0.5,0.45-0.5,1v6c0,0.55,0.45,1,1,1h6
		c0.55,0,1-0.225,1-0.5s-0.318-0.818-0.707-1.207l-5.586-5.586C194.318-9.682,193.775-10,193.5-10L193.5-10z"/>
</g>
<g>
	<path fill="#CCCCCC" d="M299,84h-36V36h22v-2h-22c-1.105,0-2,0.895-2,2v48c0,1.105,0.895,2,2,2h36c1.105,0,2-0.895,2-2V50h-2V84z"
		/>
</g>
<g>
	<path fill="#CCCCCC" d="M287,36.828L287,36.828L298.172,48H287V36.828 M286,34c-0.55,0-1,0.9-1,2v12c0,1.1,0.9,2,2,2h12
		c1.1,0,2-0.45,2-1s-0.636-1.636-1.414-2.414l-11.172-11.172C287.636,34.636,286.55,34,286,34L286,34z"/>
</g>
<path fill="none" stroke="#999999" stroke-miterlimit="10" d="M20.5,13v-1c0-0.828-0.672-1.5-1.5-1.5s-1.5,0.672-1.5,1.5v1"/>
<g>
	<g>
		<path fill="#FFFFFF" d="M-42,172c0,2.2-1.8,4-4,4h-44c-2.2,0-4-1.8-4-4v-34c0-2.2,1.8-4,4-4h10c2.2,0,4.45,0.9,5,2
			c0.55,1.1,2.8,2,5,2H-46c2.2,0,4,1.8,4,4V172z"/>
		<g>
			<path fill="#CCCCCC" d="M-80,136c1.585,0,2.946,0.61,3.234,0.938c1.043,2.01,4.184,3.062,6.767,3.062H-46c1.103,0,2,0.897,2,2v30
				c0,1.103-0.897,2-2,2h-44c-1.103,0-2-0.897-2-2v-34c0-1.103,0.897-2,2-2H-80 M-80,134h-10c-2.2,0-4,1.8-4,4v34c0,2.2,1.8,4,4,4
				h44c2.2,0,4-1.8,4-4v-30c0-2.2-1.8-4-4-4h-23.999c-2.2,0-4.45-0.9-5-2C-75.55,134.9-77.8,134-80,134L-80,134z"/>
		</g>
	</g>
	<g>
		<rect x="-92" y="146" fill="#E5E5E5" width="48" height="2"/>
	</g>
</g>
<g>
	<path fill="#999999" d="M-62,166v-6c0-1.1,0.9-2,2-2h8c1.1,0,2,0.9,2,2v6"/>
</g>
<path fill="none" stroke="#999999" stroke-width="2" stroke-miterlimit="10" d="M-53,158v-2c0-1.657-1.343-3-3-3s-3,1.343-3,3v2"/>
</svg>
