<?xml version="1.0" encoding="utf-8"?>
<!-- Generator: Adobe Illustrator 18.0.0, SVG Export Plug-In . SVG Version: 6.00 Build 0)  -->
<!DOCTYPE svg PUBLIC "-//W3C//DTD SVG 1.1//EN" "http://www.w3.org/Graphics/SVG/1.1/DTD/svg11.dtd">
<svg version="1.1" id="Layer_1" xmlns="http://www.w3.org/2000/svg" xmlns:xlink="http://www.w3.org/1999/xlink" x="0px" y="0px"
	 width="26px" height="26px" viewBox="0 0 26 26" enable-background="new 0 0 26 26" xml:space="preserve">
<path fill="#CCCCCC" d="M13,1.25c6.479,0,11.75,5.271,11.75,11.75S19.479,24.75,13,24.75C6.521,24.75,1.25,19.479,1.25,13
	S6.521,1.25,13,1.25 M13,0C5.82,0,0,5.821,0,13c0,7.181,5.82,13,13,13c7.181,0,13-5.819,13-13C26,5.821,20.181,0,13,0L13,0z"/>
<polygon fill="#A6A6A6" points="11,8.5 18,13 11,17.5 "/>
</svg>
