<?xml version="1.0" encoding="utf-8"?>
<!-- Generator: Adobe Illustrator 18.0.0, SVG Export Plug-In . SVG Version: 6.00 Build 0)  -->
<!DOCTYPE svg PUBLIC "-//W3C//DTD SVG 1.1//EN" "http://www.w3.org/Graphics/SVG/1.1/DTD/svg11.dtd">
<svg version="1.1" id="Layer_1" xmlns="http://www.w3.org/2000/svg" xmlns:xlink="http://www.w3.org/1999/xlink" x="0px" y="0px"
	 width="20px" height="26px" viewBox="0 0 20 26" enable-background="new 0 0 20 26" xml:space="preserve">
<defs>
	<filter id="Adobe_OpacityMaskFilter" filterUnits="userSpaceOnUse" x="0" y="0" width="20" height="26">
		<feFlood  style="flood-color:white;flood-opacity:1" result="back"/>
		<feBlend  in="SourceGraphic" in2="back" mode="normal"/>
	</filter>
</defs>
<mask maskUnits="userSpaceOnUse" x="0" y="0" width="20" height="26" id="SVGID_1_">
	<g filter="url(#Adobe_OpacityMaskFilter)">
		<g>
			<polygon points="20,8 20,0 12,0 			"/>
		</g>
	</g>
</mask>
<g mask="url(#SVGID_1_)">
	<path fill="#FFFFFF" d="M19,26H1c-0.552,0-1-0.448-1-1V1c0-0.552,0.448-1,1-1h18c0.552,0,1,0.448,1,1v24C20,25.552,19.552,26,19,26
		z"/>
	<g>
		<path fill="#CCCCCC" d="M19,1v24H1V1H19 M19,0H1C0.448,0,0,0.448,0,1v24c0,0.552,0.448,1,1,1h18c0.552,0,1-0.448,1-1V1
			C20,0.448,19.552,0,19,0L19,0z"/>
	</g>
</g>
<g>
	<path fill="#CCCCCC" d="M13,2.414L17.586,7h-4.172L13,6.586V2.414 M12,0v7l1,1h7L12,0L12,0z"/>
</g>
<rect fill="none" width="20" height="26"/>
</svg>
