<?xml version="1.0" encoding="utf-8"?>
<!-- Generator: Adobe Illustrator 18.0.0, SVG Export Plug-In . SVG Version: 6.00 Build 0)  -->
<!DOCTYPE svg PUBLIC "-//W3C//DTD SVG 1.1//EN" "http://www.w3.org/Graphics/SVG/1.1/DTD/svg11.dtd">
<svg version="1.1" id="Layer_1" xmlns="http://www.w3.org/2000/svg" xmlns:xlink="http://www.w3.org/1999/xlink" x="0px" y="0px"
	 width="23px" height="14px" viewBox="0 0 23 14" enable-background="new 0 0 23 14" xml:space="preserve">
<g>
	<g>
		<path fill="#FFFFFF" d="M-380-83c0,1.1-0.9,2-2,2h-22c-1.1,0-2-0.9-2-2v-17c0-1.1,0.9-2,2-2h5c1.1,0,2.225,0.45,2.5,1s1.4,1,2.5,1
			h12c1.1,0,2,0.9,2,2V-83z"/>
		<g>
			<path fill="#CCCCCC" d="M-399-101c0.805,0,1.495,0.315,1.606,0.447C-396.884-99.533-395.3-99-394-99h12c0.551,0,1,0.449,1,1v15
				c0,0.551-0.449,1-1,1h-22c-0.551,0-1-0.449-1-1v-17c0-0.551,0.449-1,1-1H-399 M-399-102h-5c-1.1,0-2,0.9-2,2v17c0,1.1,0.9,2,2,2
				h22c1.1,0,2-0.9,2-2v-15c0-1.1-0.9-2-2-2h-12c-1.1,0-2.225-0.45-2.5-1S-397.9-102-399-102L-399-102z"/>
		</g>
	</g>
	<g>
		<path fill="#E5E5E5" d="M-381-95.485c0,0.267-0.218,0.485-0.485,0.485h-23.03c-0.267,0-0.485-0.218-0.485-0.485v-0.03
			c0-0.267,0.218-0.485,0.485-0.485h23.03c0.267,0,0.485,0.218,0.485,0.485V-95.485z"/>
	</g>
</g>
<g>
	<g>
		<path fill="#FFFFFF" d="M-380-33c0,1.1-0.9,2-2,2h-22c-1.1,0-2-0.9-2-2v-17c0-1.1,0.9-2,2-2h5c1.1,0,2.225,0.45,2.5,1s1.4,1,2.5,1
			h12c1.1,0,2,0.9,2,2V-33z"/>
		<g>
			<path fill="#CCCCCC" d="M-399-51c0.805,0,1.495,0.315,1.606,0.447C-396.884-49.533-395.3-49-394-49h12c0.551,0,1,0.449,1,1v15
				c0,0.551-0.449,1-1,1h-22c-0.551,0-1-0.449-1-1v-17c0-0.551,0.449-1,1-1H-399 M-399-52h-5c-1.1,0-2,0.9-2,2v17c0,1.1,0.9,2,2,2
				h22c1.1,0,2-0.9,2-2v-15c0-1.1-0.9-2-2-2h-12c-1.1,0-2.225-0.45-2.5-1S-397.9-52-399-52L-399-52z"/>
		</g>
	</g>
	<g>
		<path fill="#E5E5E5" d="M-381-45.485c0,0.267-0.218,0.485-0.485,0.485h-23.03c-0.267,0-0.485-0.218-0.485-0.485v-0.03
			c0-0.267,0.218-0.485,0.485-0.485h23.03c0.267,0,0.485,0.218,0.485,0.485V-45.485z"/>
	</g>
</g>
<g>
	<g>
		<path fill="#FFFFFF" d="M-380,17c0,1.1-0.9,2-2,2h-22c-1.1,0-2-0.9-2-2V0c0-1.1,0.9-2,2-2h5c1.1,0,2.225,0.45,2.5,1s1.4,1,2.5,1
			h12c1.1,0,2,0.9,2,2V17z"/>
		<g>
			<path fill="#CCCCCC" d="M-399-1c0.805,0,1.495,0.315,1.606,0.447C-396.884,0.467-395.3,1-394,1h12c0.551,0,1,0.449,1,1v15
				c0,0.551-0.449,1-1,1h-22c-0.551,0-1-0.449-1-1V0c0-0.551,0.449-1,1-1H-399 M-399-2h-5c-1.1,0-2,0.9-2,2v17c0,1.1,0.9,2,2,2h22
				c1.1,0,2-0.9,2-2V2c0-1.1-0.9-2-2-2h-12c-1.1,0-2.225-0.45-2.5-1S-397.9-2-399-2L-399-2z"/>
		</g>
	</g>
	<g>
		<path fill="#E5E5E5" d="M-381,4.515C-381,4.782-381.218,5-381.485,5h-23.03C-404.782,5-405,4.782-405,4.515v-0.03
			C-405,4.218-404.782,4-404.515,4h23.03C-381.218,4-381,4.218-381,4.485V4.515z"/>
	</g>
</g>
<defs>
	<filter id="Adobe_OpacityMaskFilter" filterUnits="userSpaceOnUse" x="-397" y="5" width="13" height="10">
		<feColorMatrix  type="matrix" values="1 0 0 0 0  0 1 0 0 0  0 0 1 0 0  0 0 0 1 0"/>
	</filter>
</defs>
<mask maskUnits="userSpaceOnUse" x="-397" y="5" width="13" height="10" id="SVGID_1_">
	<g filter="url(#Adobe_OpacityMaskFilter)">
		<g>
			<path fill="#FFFFFF" d="M-391.5,8c0.786,0,1.425,0.639,1.425,1.425s-0.639,1.425-1.425,1.425s-1.425-0.639-1.425-1.425
				S-392.286,8-391.5,8 M-391.5,7c-1.34,0-2.425,1.085-2.425,2.425s1.085,2.425,2.425,2.425s2.425-1.085,2.425-2.425
				S-390.16,7-391.5,7L-391.5,7z"/>
		</g>
		<g>
			<rect x="-391" y="10" fill="#FFFFFF" width="7" height="5"/>
		</g>
		<rect x="-400" y="10" width="9" height="6"/>
	</g>
</mask>
<rect x="-397" y="5" opacity="0.15" mask="url(#SVGID_1_)" width="13" height="10"/>
<g>
	<path fill="#FFFFFF" d="M-275-59c0,1.65-1.35,3-3,3h-49c-1.65,0-3-1.35-3-3v-40c0-1.65,1.35-3,3-3h13.038
		c1.65,0,3.449,1.273,3.998,2.829l0.121,0.342c0.549,1.556,2.348,2.829,3.998,2.829H-278c1.65,0,3,1.35,3,3V-59z"/>
	<g>
		<path fill="#CCCCCC" d="M-313.962-101c1.221,0,2.649,1.01,3.055,2.162l0.121,0.342c0.692,1.961,2.862,3.496,4.941,3.496H-278
			c1.103,0,2,0.897,2,2v34c0,1.103-0.897,2-2,2h-49c-1.103,0-2-0.897-2-2v-40c0-1.103,0.897-2,2-2H-313.962 M-313.962-102H-327
			c-1.65,0-3,1.35-3,3v40c0,1.65,1.35,3,3,3h49c1.65,0,3-1.35,3-3v-34c0-1.65-1.35-3-3-3h-27.845c-1.65,0-3.449-1.273-3.998-2.829
			l-0.121-0.342C-310.512-100.727-312.312-102-313.962-102L-313.962-102z"/>
	</g>
</g>
<rect x="-329" y="-90" fill="#E5E5E5" width="53" height="1"/>
<g>
	<path fill="#FFFFFF" d="M-275,1c0,1.65-1.35,3-3,3h-49c-1.65,0-3-1.35-3-3v-40c0-1.65,1.35-3,3-3h13.038
		c1.65,0,3.449,1.273,3.998,2.829l0.121,0.342c0.549,1.556,2.348,2.829,3.998,2.829H-278c1.65,0,3,1.35,3,3V1z"/>
	<g>
		<path fill="#CCCCCC" d="M-313.962-41c1.221,0,2.649,1.01,3.055,2.162l0.121,0.342c0.692,1.961,2.862,3.496,4.941,3.496H-278
			c1.103,0,2,0.897,2,2V1c0,1.103-0.897,2-2,2h-49c-1.103,0-2-0.897-2-2v-40c0-1.103,0.897-2,2-2H-313.962 M-313.962-42H-327
			c-1.65,0-3,1.35-3,3V1c0,1.65,1.35,3,3,3h49c1.65,0,3-1.35,3-3v-34c0-1.65-1.35-3-3-3h-27.845c-1.65,0-3.449-1.273-3.998-2.829
			l-0.121-0.342C-310.512-40.727-312.312-42-313.962-42L-313.962-42z"/>
	</g>
</g>
<rect x="-329" y="-30" fill="#E5E5E5" width="53" height="1"/>
<g>
	<path fill="#FFFFFF" d="M-275,61c0,1.65-1.35,3-3,3h-49c-1.65,0-3-1.35-3-3V21c0-1.65,1.35-3,3-3h13.038
		c1.65,0,3.449,1.273,3.998,2.829l0.121,0.342c0.549,1.556,2.348,2.829,3.998,2.829H-278c1.65,0,3,1.35,3,3V61z"/>
	<g>
		<path fill="#CCCCCC" d="M-313.962,19c1.221,0,2.649,1.01,3.055,2.162l0.121,0.342c0.692,1.961,2.862,3.496,4.941,3.496H-278
			c1.103,0,2,0.897,2,2v34c0,1.103-0.897,2-2,2h-49c-1.103,0-2-0.897-2-2V21c0-1.103,0.897-2,2-2H-313.962 M-313.962,18H-327
			c-1.65,0-3,1.35-3,3v40c0,1.65,1.35,3,3,3h49c1.65,0,3-1.35,3-3V27c0-1.65-1.35-3-3-3h-27.845c-1.65,0-3.449-1.273-3.998-2.829
			l-0.121-0.342C-310.512,19.273-312.312,18-313.962,18L-313.962,18z"/>
	</g>
</g>
<rect x="-329" y="30" fill="#E5E5E5" width="53" height="1"/>
<defs>
	<filter id="Adobe_OpacityMaskFilter_1_" filterUnits="userSpaceOnUse" x="-297" y="46" width="17" height="12">
		<feColorMatrix  type="matrix" values="1 0 0 0 0  0 1 0 0 0  0 0 1 0 0  0 0 0 1 0"/>
	</filter>
</defs>
<mask maskUnits="userSpaceOnUse" x="-297" y="46" width="17" height="12" id="SVGID_2_">
	<g filter="url(#Adobe_OpacityMaskFilter_1_)">
		<g>
			<path fill="#FFFFFF" d="M-291.5,48.525c1.048,0,1.9,0.852,1.9,1.9s-0.852,1.9-1.9,1.9s-1.9-0.852-1.9-1.9
				S-292.548,48.525-291.5,48.525 M-291.5,47.025c-1.879,0-3.4,1.521-3.4,3.4s1.521,3.4,3.4,3.4s3.4-1.521,3.4-3.4
				S-289.621,47.025-291.5,47.025L-291.5,47.025z"/>
		</g>
		<g>
			<rect x="-290" y="51" fill="#FFFFFF" width="9" height="6"/>
		</g>
		<g>
			<rect x="-299" y="51" width="9" height="6"/>
		</g>
	</g>
</mask>
<rect x="-297" y="46" opacity="0.15" mask="url(#SVGID_2_)" width="17" height="12"/>
<g>
	<path fill="#999999" d="M-387.5-42c0.786,0,1.425,0.639,1.425,1.425s-0.639,1.425-1.425,1.425s-1.425-0.639-1.425-1.425
		S-388.286-42-387.5-42 M-387.5-43c-1.34,0-2.425,1.085-2.425,2.425s1.085,2.425,2.425,2.425s2.425-1.085,2.425-2.425
		S-386.16-43-387.5-43L-387.5-43z"/>
</g>
<g>
	<rect x="-391" y="-40" fill="#999999" width="7" height="5"/>
</g>
<g>
	<path fill="#999999" d="M-285.5-11.475c1.048,0,1.9,0.852,1.9,1.9s-0.852,1.9-1.9,1.9s-1.9-0.852-1.9-1.9
		S-286.548-11.475-285.5-11.475 M-285.5-12.975c-1.879,0-3.4,1.521-3.4,3.4s1.521,3.4,3.4,3.4s3.4-1.521,3.4-3.4
		S-283.621-12.975-285.5-12.975L-285.5-12.975z"/>
</g>
<g>
	<rect x="-290" y="-9" fill="#999999" width="9" height="6"/>
</g>
<defs>
	<filter id="Adobe_OpacityMaskFilter_2_" filterUnits="userSpaceOnUse" x="-225" y="-102" width="20" height="26">
		<feFlood  style="flood-color:white;flood-opacity:1" result="back"/>
		<feBlend  in="SourceGraphic" in2="back" mode="normal"/>
	</filter>
</defs>
<mask maskUnits="userSpaceOnUse" x="-225" y="-102" width="20" height="26" id="SVGID_3_">
	<g filter="url(#Adobe_OpacityMaskFilter_2_)">
		<g>
			<polygon points="-205,-94 -205,-102 -213,-102 			"/>
		</g>
	</g>
</mask>
<g mask="url(#SVGID_3_)">
	<path fill="#FFFFFF" d="M-206-76h-18c-0.552,0-1-0.448-1-1v-24c0-0.552,0.448-1,1-1h18c0.552,0,1,0.448,1,1v24
		C-205-76.448-205.448-76-206-76z"/>
	<g>
		<path fill="#CCCCCC" d="M-206-101v24h-18v-24H-206 M-206-102h-18c-0.552,0-1,0.448-1,1v24c0,0.552,0.448,1,1,1h18
			c0.552,0,1-0.448,1-1v-24C-205-101.552-205.448-102-206-102L-206-102z"/>
	</g>
</g>
<g>
	<path fill="#CCCCCC" d="M-212-99.586l4.586,4.586h-4.172L-212-95.414V-99.586 M-213-102v7l1,1h7L-213-102L-213-102z"/>
</g>
<defs>
	<filter id="Adobe_OpacityMaskFilter_3_" filterUnits="userSpaceOnUse" x="-178" y="-102" width="45" height="61">
		<feFlood  style="flood-color:white;flood-opacity:1" result="back"/>
		<feBlend  in="SourceGraphic" in2="back" mode="normal"/>
	</filter>
</defs>
<mask maskUnits="userSpaceOnUse" x="-178" y="-102" width="45" height="61" id="SVGID_4_">
	<g filter="url(#Adobe_OpacityMaskFilter_3_)">
		<polyline points="-149,-102 -133,-102 -133,-86 		"/>
	</g>
</mask>
<g mask="url(#SVGID_4_)">
	<path fill="#FFFFFF" d="M-175.5-41.5c-1.103,0-2-0.897-2-2v-56c0-1.103,0.897-2,2-2h40c1.103,0,2,0.897,2,2v56c0,1.103-0.897,2-2,2
		H-175.5z"/>
	<path fill="#CCCCCC" d="M-135.5-101c0.827,0,1.5,0.673,1.5,1.5v56c0,0.827-0.673,1.5-1.5,1.5h-40c-0.827,0-1.5-0.673-1.5-1.5v-56
		c0-0.827,0.673-1.5,1.5-1.5H-135.5 M-135.5-102h-40c-1.375,0-2.5,1.125-2.5,2.5v56c0,1.375,1.125,2.5,2.5,2.5h40
		c1.375,0,2.5-1.125,2.5-2.5v-56C-133-100.875-134.125-102-135.5-102L-135.5-102z"/>
</g>
<g>
	<polygon fill="#FFFFFF" points="-145.897,-86.5 -147.719,-87.281 -148.5,-89.103 -148.5,-100.793 -134.207,-86.5 	"/>
	<path fill="#CCCCCC" d="M-148-99.586L-135.414-87h-10.381l-1.544-0.662L-148-89.205V-99.586 M-149-102v13l0.9,2.1l2.1,0.9h13
		L-149-102L-149-102z"/>
</g>
<rect x="-225" y="-102" fill="none" width="20" height="26"/>
<rect x="-178" y="-102" fill="none" width="45" height="61"/>
<path d="M-64-72h-26c-1.1,0-2-0.9-2-2v-1c0-1.1,0.9-2,2-2h26c1.1,0,2,0.9,2,2v1C-62-72.9-62.9-72-64-72z"/>
<defs>
	<filter id="Adobe_OpacityMaskFilter_4_" filterUnits="userSpaceOnUse" x="-227" y="-1" width="19" height="14">
		<feColorMatrix  type="matrix" values="1 0 0 0 0  0 1 0 0 0  0 0 1 0 0  0 0 0 1 0"/>
	</filter>
</defs>
<mask maskUnits="userSpaceOnUse" x="-227" y="-1" width="19" height="14" id="SVGID_5_">
	<g filter="url(#Adobe_OpacityMaskFilter_4_)">
		<rect x="-227" y="5" fill="#FFFFFF" width="17" height="2"/>
		<polyline fill="none" stroke="#FFFFFF" stroke-width="1.6" stroke-miterlimit="10" points="-215,0 -209,6 -215,12 		"/>
	</g>
</mask>
<rect x="-227" y="-1" mask="url(#SVGID_5_)" fill="#B2B2B2" width="19" height="14"/>
<defs>
	<filter id="Adobe_OpacityMaskFilter_5_" filterUnits="userSpaceOnUse" x="-302" y="-1" width="19" height="14">
		<feColorMatrix  type="matrix" values="1 0 0 0 0  0 1 0 0 0  0 0 1 0 0  0 0 0 1 0"/>
	</filter>
</defs>
<mask maskUnits="userSpaceOnUse" x="-302" y="-1" width="19" height="14" id="SVGID_6_">
	<g filter="url(#Adobe_OpacityMaskFilter_5_)">
		<rect x="-300" y="5" fill="#FFFFFF" width="17" height="2"/>
		<polyline fill="none" stroke="#FFFFFF" stroke-width="1.6" stroke-miterlimit="10" points="-295,0 -301,6 -295,12 		"/>
	</g>
</mask>
<rect x="-302" y="-1" mask="url(#SVGID_6_)" fill="#B2B2B2" width="19" height="14"/>
<rect x="5" width="18" height="2"/>
<rect x="5" y="6" width="18" height="2"/>
<rect x="5" y="12" width="18" height="2"/>
<rect y="6" width="3" height="2"/>
<rect width="3" height="2"/>
<rect y="12" width="3" height="2"/>
<rect fill="none" width="23" height="14"/>
</svg>
